<svg width="25" height="24" viewBox="0 0 25 24" fill="none" xmlns="http://www.w3.org/2000/svg">
<path d="M4.75981 10.1468C4.48737 12.2308 4.32188 14.3485 4.26902 16.4941C7.165 17.7032 9.91942 19.1836 12.5005 20.9037C15.0816 19.1836 17.836 17.7032 20.732 16.4941C20.6791 14.3485 20.5136 12.2308 20.2412 10.1468M4.75981 10.1468C3.88411 9.85242 2.99778 9.5812 2.10156 9.33382C5.34695 7.05899 8.8279 5.09732 12.5005 3.49268C16.1732 5.09732 19.6541 7.059 22.8995 9.33383C22.0033 9.58122 21.1169 9.85245 20.2412 10.1468M4.75981 10.1468C7.44705 11.05 10.0343 12.171 12.5005 13.4888C14.9668 12.171 17.554 11.0501 20.2412 10.1468M7.25049 15.0001C7.6647 15.0001 8.00049 14.6643 8.00049 14.2501C8.00049 13.8359 7.6647 13.5001 7.25049 13.5001C6.83627 13.5001 6.50049 13.8359 6.50049 14.2501C6.50049 14.6643 6.83627 15.0001 7.25049 15.0001ZM7.25049 15.0001V11.3246C8.94196 10.2736 10.6941 9.31107 12.5005 8.44342M5.49313 19.9928C6.6647 18.8212 7.25049 17.2857 7.25049 15.7501V14.2501" stroke="white" stroke-width="1.5" stroke-linecap="round" stroke-linejoin="round"/>
</svg>
