<svg width="24" height="24" viewBox="0 0 24 24" fill="none" xmlns="http://www.w3.org/2000/svg">
<g clip-path="url(#clip0_79_30503)">
<path d="M15.2344 11.6717C15.2724 11.7062 15.3105 11.7407 15.3497 11.7763C15.9181 12.3115 16.3015 13.0146 16.7153 13.6696C16.853 13.8874 16.9924 14.1041 17.1328 14.3201C17.3585 14.6676 17.581 15.017 17.8029 15.3669C17.9529 15.603 18.1041 15.8383 18.2573 16.0723C18.9785 17.1762 19.4612 18.2389 19.1975 19.5908C18.9903 20.519 18.4281 21.3604 17.6309 21.8787C16.7153 22.4492 15.6979 22.6531 14.638 22.4178C14.327 22.3331 14.0277 22.2102 13.7273 22.0942C11.9734 21.4187 10.1135 21.4794 8.37305 22.1541C7.28955 22.5741 6.25379 22.6438 5.15863 22.1918C4.27928 21.7798 3.6078 21.046 3.23437 20.1561C2.90265 19.188 2.89631 18.2071 3.30121 17.2595C3.50202 16.8504 3.73237 16.4661 3.98437 16.0867C4.04668 15.9921 4.10893 15.8974 4.17114 15.8028C4.20247 15.7551 4.2338 15.7074 4.26608 15.6583C4.41244 15.4342 4.55594 15.2083 4.69922 14.9823C4.90948 14.6507 5.12089 14.3201 5.33509 13.9911C5.45589 13.8051 5.57491 13.6182 5.69257 13.4303C6.45466 12.2148 6.45466 12.2148 6.98437 11.7186C7.02099 11.6816 7.05761 11.6446 7.09534 11.6065C9.35177 9.37018 12.9889 9.55096 15.2344 11.6717Z" fill="#FFC200"/>
<path d="M11.2353 2.05724C11.3535 2.14911 11.4664 2.2444 11.5781 2.34398C11.6103 2.37232 11.6425 2.40066 11.6757 2.42986C12.4385 3.14448 12.8622 4.1766 12.9067 5.21142C12.9342 6.38684 12.6686 7.4256 11.9062 8.34399C11.8748 8.38568 11.8748 8.38568 11.8427 8.42821C11.3588 9.04692 10.5863 9.41504 9.82597 9.54241C8.92394 9.65042 8.0359 9.41479 7.31248 8.85961C6.46033 8.13496 5.91261 7.12241 5.81248 6.00023C5.74636 4.76866 6.0024 3.61054 6.82578 2.65178C7.97702 1.41185 9.80206 1.05312 11.2353 2.05724Z" fill="#FFC200"/>
<path d="M18.6499 3.94595C18.7665 4.04846 18.8762 4.15449 18.9844 4.26584C19.0282 4.30817 19.0282 4.30817 19.0728 4.35135C19.7277 5.02981 19.9474 6.00901 19.9316 6.92325C19.8916 8.01447 19.4116 9.01705 18.6357 9.77665C17.9608 10.3975 17.1281 10.7243 16.2074 10.7007C15.4361 10.6438 14.6987 10.3431 14.1786 9.75772C13.4446 8.86952 13.2181 7.88189 13.3125 6.75021C13.4372 5.77244 13.9292 4.78831 14.6978 4.15939C15.8588 3.27159 17.4216 3.0126 18.6499 3.94595Z" fill="#FFC200"/>
<path d="M4.74555 6.77879C4.88826 6.90428 5.02269 7.03658 5.15626 7.17173C5.18756 7.20255 5.21886 7.23336 5.25111 7.26511C5.92265 7.97313 6.21608 8.99788 6.19923 9.9542C6.14947 10.6788 5.93209 11.3339 5.48438 11.9061C5.44958 11.9544 5.41477 12.0028 5.37892 12.0526C4.85479 12.6005 4.18135 12.8848 3.43434 12.9355C2.49666 12.9467 1.68644 12.5496 1.02467 11.9068C0.27119 11.1372 -0.0319454 10.1364 -0.0220435 9.08414C0.00303831 8.24159 0.298492 7.47273 0.89924 6.8729C1.96145 5.88288 3.62307 5.83857 4.74555 6.77879Z" fill="#FFC200"/>
<path d="M22.999 10.0725C23.5353 10.5238 23.8784 11.1729 24 11.8592C24.0757 12.9421 23.8885 13.9571 23.1616 14.7984C23.1289 14.8339 23.0962 14.8695 23.0625 14.9061C23.0274 14.9455 22.9923 14.9849 22.9561 15.0255C22.3105 15.7138 21.4039 16.1102 20.4609 16.1424C19.6465 16.1122 18.9363 15.8307 18.375 15.2342C17.8364 14.6333 17.6043 13.9031 17.6153 13.101C17.6785 12.0344 18.1151 11.1274 18.8901 10.3859C20.0561 9.39079 21.7144 9.15788 22.999 10.0725Z" fill="#FFC200"/>
</g>
<defs>
<clipPath id="clip0_79_30503">
<rect width="24" height="24" fill="white"/>
</clipPath>
</defs>
</svg>
