<svg width="17" height="16" viewBox="0 0 17 16" fill="none" xmlns="http://www.w3.org/2000/svg">
<path d="M2.16667 8.5H1.375V5.33333C1.375 4.45888 2.08388 3.75 2.95833 3.75H6.125M2.16667 8.5V13.25C2.16667 14.1245 2.87555 14.8333 3.75 14.8333H13.25C14.1245 14.8333 14.8333 14.1245 14.8333 13.25V8.5M2.16667 8.5H6.91667M6.125 3.75V2.95833C6.125 2.08388 6.83388 1.375 7.70833 1.375H9.29167C10.1661 1.375 10.875 2.08388 10.875 2.95833V3.75M6.125 3.75H10.875M14.8333 8.5H15.625V5.33333C15.625 4.45888 14.9161 3.75 14.0417 3.75H10.875M14.8333 8.5H10.0833M6.91667 8.5V6.91667H10.0833V8.5M6.91667 8.5V10.0833H10.0833V8.5" stroke="#666666" stroke-width="1.5" stroke-linecap="round" stroke-linejoin="round"/>
</svg>
