<svg width="30" height="31" viewBox="0 0 30 31" fill="none" xmlns="http://www.w3.org/2000/svg">
<path d="M12.0254 20.5212L13.9004 22.3962L17.9629 18.6462" stroke="#FF6F3C" stroke-width="1.875" stroke-linecap="round" stroke-linejoin="round"/>
<path d="M11.0133 3.02124L6.48828 7.55874" stroke="#FF6F3C" stroke-width="1.875" stroke-miterlimit="10" stroke-linecap="round" stroke-linejoin="round"/>
<path d="M18.9873 3.02124L23.5123 7.55874" stroke="#FF6F3C" stroke-width="1.875" stroke-miterlimit="10" stroke-linecap="round" stroke-linejoin="round"/>
<path d="M2.5 10.3337C2.5 8.02124 3.7375 7.83374 5.275 7.83374H24.725C26.2625 7.83374 27.5 8.02124 27.5 10.3337C27.5 13.0212 26.2625 12.8337 24.725 12.8337H5.275C3.7375 12.8337 2.5 13.0212 2.5 10.3337Z" stroke="#FF6F3C" stroke-width="1.875"/>
<path d="M4.375 13.0212L6.1375 23.8212C6.5375 26.2462 7.5 28.0212 11.075 28.0212H18.6125C22.5 28.0212 23.075 26.3212 23.525 23.9712L25.625 13.0212" stroke="#FF6F3C" stroke-width="1.875" stroke-linecap="round"/>
</svg>
