<svg width="24" height="22" viewBox="0 0 24 22" fill="none" xmlns="http://www.w3.org/2000/svg">
<path d="M22 14.8486V4.5029C22 3.47433 21.02 2.71147 19.83 2.79718H19.77C17.67 2.95147 14.48 3.86861 12.7 4.82861L12.53 4.9229C12.24 5.07718 11.76 5.07718 11.47 4.9229L11.22 4.79433C9.44 3.8429 6.26 2.93433 4.16 2.78861C2.97 2.7029 2 3.47433 2 4.49433V14.8486C2 15.6715 2.78 16.4429 3.74 16.5458L4.03 16.58C6.2 16.8286 9.55 17.7715 11.47 18.6715L11.51 18.6886C11.78 18.8172 12.21 18.8172 12.47 18.6886C14.39 17.78 17.75 16.8286 19.93 16.58L20.26 16.5458C21.22 16.4429 22 15.6715 22 14.8486Z" stroke="#FF6F3C" stroke-linecap="round" stroke-linejoin="round"/>
<path d="M12 5.20569V18.0628" stroke="#FF6F3C" stroke-linecap="round" stroke-linejoin="round"/>
<path d="M7.75 7.7771H5.5" stroke="#FF6F3C" stroke-linecap="round" stroke-linejoin="round"/>
<path d="M8.5 10.3485H5.5" stroke="#FF6F3C" stroke-linecap="round" stroke-linejoin="round"/>
</svg>
