<svg width="30" height="31" viewBox="0 0 30 31" fill="none" xmlns="http://www.w3.org/2000/svg">
<path d="M2.50098 15.5212C2.50098 9.62868 2.50098 6.6824 4.33156 4.85183C6.16214 3.02124 9.10841 3.02124 15.001 3.02124C20.8935 3.02124 23.8399 3.02124 25.6704 4.85183C27.501 6.6824 27.501 9.62868 27.501 15.5212C27.501 21.4137 27.501 24.3601 25.6704 26.1906C23.8399 28.0212 20.8935 28.0212 15.001 28.0212C9.10841 28.0212 6.16214 28.0212 4.33156 26.1906C2.50098 24.3601 2.50098 21.4137 2.50098 15.5212Z" stroke="#FF6F3C" stroke-width="1.875"/>
<path d="M7.5 20.2712L8.92857 21.7712L12.5 18.0212" stroke="#FF6F3C" stroke-width="1.875" stroke-linecap="round" stroke-linejoin="round"/>
<path d="M7.5 11.5212L8.92857 13.0212L12.5 9.27124" stroke="#FF6F3C" stroke-width="1.875" stroke-linecap="round" stroke-linejoin="round"/>
<path d="M16.25 11.7712H22.5" stroke="#FF6F3C" stroke-width="1.875" stroke-linecap="round"/>
<path d="M16.25 20.5212H22.5" stroke="#FF6F3C" stroke-width="1.875" stroke-linecap="round"/>
</svg>
