<svg width="29" height="29" viewBox="0 0 29 29" fill="none" xmlns="http://www.w3.org/2000/svg">
<path d="M11.9222 19.752L11.9205 19.7467L11.588 19.6382C10.0066 19.0793 8.61922 18.0776 7.591 16.7525C6.75955 15.6818 6.18824 14.4326 5.92214 13.1033C5.65604 11.7741 5.70243 10.4012 6.05765 9.09295C6.41286 7.7847 7.06719 6.57689 7.96902 5.56476C8.87085 4.55264 9.9955 3.7639 11.2543 3.26076C12.5131 2.75761 13.8715 2.55382 15.2225 2.66547C16.5735 2.77711 17.8801 3.20114 19.0392 3.90409C20.1984 4.60705 21.1783 5.56971 21.9017 6.71614C22.6252 7.86257 23.0724 9.16142 23.208 10.5102C23.2552 10.9915 22.858 11.3835 22.375 11.3835C21.892 11.3835 21.5053 10.9897 21.4475 10.5102C21.2913 9.27268 20.8073 8.09935 20.0455 7.11163C19.2837 6.12392 18.2718 5.3577 17.1145 4.89227C15.9573 4.42683 14.6966 4.27909 13.4631 4.46432C12.2296 4.64955 11.0679 5.16102 10.0984 5.94583C9.12887 6.73063 8.38665 7.76024 7.94855 8.92813C7.51045 10.096 7.39237 11.3598 7.60655 12.5886C7.82072 13.8174 8.35936 14.9667 9.16673 15.9176C9.9741 16.8684 11.0209 17.5862 12.1988 17.9967C12.4959 17.4548 12.9746 17.0351 13.5508 16.8115C14.1269 16.5879 14.7634 16.5748 15.3483 16.7744C15.9332 16.974 16.4289 17.3736 16.7481 17.9027C17.0674 18.4319 17.1897 19.0567 17.0935 19.6672C16.9973 20.2777 16.6889 20.8346 16.2224 21.24C15.756 21.6454 15.1614 21.8732 14.5435 21.8834C13.9256 21.8935 13.3239 21.6853 12.8444 21.2954C12.3649 20.9055 12.0384 20.359 11.9222 19.752ZM10.5345 21.1082C8.82056 20.4085 7.3221 19.268 6.191 17.8025C5.9035 18.2336 5.75006 18.7402 5.75 19.2585V20.1335C5.75 23.5827 9.005 27.1335 14.5 27.1335C19.995 27.1335 23.25 23.5827 23.25 20.1335V19.2585C23.25 18.5623 22.9734 17.8946 22.4812 17.4023C21.9889 16.91 21.3212 16.6335 20.625 16.6335H18C18.367 17.1237 18.6271 17.6855 18.7633 18.2825C18.8995 18.8795 18.9089 19.4985 18.7908 20.0994C18.6727 20.7003 18.4298 21.2697 18.0778 21.7708C17.7257 22.2718 17.2724 22.6934 16.7472 23.0083C16.2219 23.3231 15.6364 23.5242 15.0286 23.5984C14.4207 23.6727 13.804 23.6185 13.2184 23.4394C12.6328 23.2603 12.0913 22.9603 11.629 22.5587C11.1667 22.1572 10.7938 21.663 10.5345 21.1082ZM19.75 11.3835C19.75 9.78397 19.0343 8.35072 17.9055 7.38822C17.3544 6.92141 16.7129 6.57333 16.0211 6.36575C15.3293 6.15818 14.6021 6.09557 13.8851 6.18186C13.168 6.26814 12.4764 6.50145 11.8536 6.86721C11.2308 7.23296 10.6902 7.72328 10.2655 8.30751C9.8409 8.89173 9.54136 9.5573 9.38567 10.2626C9.22998 10.9678 9.22149 11.6977 9.36073 12.4064C9.49996 13.1151 9.78393 13.7874 10.1949 14.3814C10.6058 14.9753 11.1349 15.4781 11.749 15.8582C12.5272 15.2274 13.4982 14.8827 14.5 14.8817C15.5013 14.8817 16.4724 15.2251 17.251 15.8547C18.0147 15.3849 18.6453 14.7273 19.0828 13.9445C19.5203 13.1618 19.75 12.2801 19.75 11.3835Z" fill="#FFC200"/>
</svg>
