<svg width="32" height="32" viewBox="0 0 32 32" fill="none" xmlns="http://www.w3.org/2000/svg">
<g clip-path="url(#clip0_79_30410)">
<path d="M13.2777 -0.0392511C13.3411 -0.0396945 13.4045 -0.0401379 13.4699 -0.0405947C13.6812 -0.0416898 13.8924 -0.0405637 14.1037 -0.0394332C14.2557 -0.0397545 14.4077 -0.0402097 14.5597 -0.0407884C14.9289 -0.0418246 15.298 -0.0414069 15.6672 -0.0402829C15.9674 -0.0394045 16.2675 -0.0391633 16.5677 -0.039373C16.6105 -0.0394029 16.6533 -0.0394327 16.6974 -0.0394634C16.7843 -0.0395276 16.8713 -0.0395935 16.9582 -0.0396613C17.7262 -0.0401961 18.4942 -0.0391564 19.2622 -0.037297C20.0068 -0.0354944 20.7513 -0.0350522 21.4958 -0.0360152C22.3075 -0.0370637 23.1191 -0.0373142 23.9308 -0.0362208C24.0174 -0.0361056 24.104 -0.0359909 24.1906 -0.0358768C24.2332 -0.0358198 24.2758 -0.0357628 24.3197 -0.0357041C24.6194 -0.0353543 24.9191 -0.03556 25.2187 -0.0359734C25.6223 -0.0365081 26.0259 -0.035694 26.4295 -0.0339828C26.5775 -0.0335527 26.7256 -0.0335464 26.8736 -0.0339963C27.0758 -0.03454 27.278 -0.0335419 27.4802 -0.0321557C27.5386 -0.0326708 27.5971 -0.0331858 27.6573 -0.0337165C28.1214 -0.0278527 28.4418 0.0960133 28.7968 0.394542C29.147 0.812785 29.265 1.19386 29.2469 1.73957C29.244 1.84573 29.244 1.84573 29.241 1.95403C29.2389 2.03011 29.2368 2.10619 29.2346 2.18458C29.1807 4.71041 29.1807 4.71041 30.1044 7.02533C30.3579 7.43802 30.5528 7.87387 30.7476 8.31657C30.8027 8.44096 30.8591 8.56466 30.916 8.68823C30.95 8.76292 30.984 8.83761 31.019 8.91456C31.0486 8.97959 31.0783 9.04462 31.1088 9.11161C31.3061 9.61562 31.3365 10.083 31.3516 10.6198C31.3543 10.7006 31.357 10.7814 31.3598 10.8646C31.3673 11.0879 31.374 11.3112 31.3807 11.5346C31.388 11.7758 31.396 12.017 31.4038 12.2583C31.4191 12.7305 31.4338 13.2028 31.4483 13.675C31.4601 14.0591 31.4722 14.4431 31.4844 14.8271C31.4861 14.8818 31.4878 14.9365 31.4896 14.9929C31.4931 15.104 31.4967 15.2151 31.5002 15.3263C31.5314 16.3088 31.562 17.2913 31.5923 18.2738C31.6217 19.2263 31.6516 20.1787 31.682 21.1311C31.7151 22.1689 31.7479 23.2067 31.7803 24.2446C31.7837 24.3554 31.7872 24.4662 31.7906 24.577C31.7923 24.6315 31.794 24.686 31.7958 24.7422C31.8077 25.1254 31.8199 25.5086 31.8321 25.8918C31.847 26.3593 31.8616 26.8268 31.8758 27.2944C31.8831 27.5327 31.8905 27.771 31.8982 28.0093C31.9066 28.2682 31.9144 28.5271 31.9221 28.786C31.9246 28.8606 31.9271 28.9352 31.9297 29.012C31.9542 29.8812 31.946 30.6397 31.3671 31.332C31.0185 31.6992 30.5576 31.9882 30.0405 32.0081C29.9515 32.0085 29.8624 32.0086 29.7734 32.0084C29.6996 32.0086 29.6996 32.0086 29.6242 32.0088C29.4578 32.0093 29.2914 32.0092 29.1251 32.0092C29.0051 32.0094 28.8852 32.0097 28.7652 32.0099C28.4346 32.0105 28.1039 32.0108 27.7732 32.0109C27.417 32.0112 27.0608 32.0118 26.7045 32.0123C25.8437 32.0136 24.9829 32.0142 24.1221 32.0147C23.717 32.015 23.3119 32.0154 22.9068 32.0157C21.5606 32.0167 20.2144 32.0176 18.8682 32.0181C18.7811 32.0181 18.694 32.0182 18.6069 32.0182C18.5638 32.0182 18.5206 32.0182 18.4761 32.0182C18.2573 32.0183 18.0385 32.0184 17.8197 32.0185C17.7546 32.0185 17.7546 32.0185 17.6882 32.0185C16.2803 32.019 14.8724 32.0205 13.4646 32.0225C11.9764 32.0246 10.4882 32.0259 8.99995 32.0261C8.1886 32.0262 7.37726 32.0268 6.56591 32.0284C5.87505 32.0297 5.1842 32.0302 4.49334 32.0296C4.14075 32.0293 3.78817 32.0294 3.43559 32.0307C3.11285 32.0318 2.79014 32.0317 2.46741 32.0307C2.35061 32.0306 2.23381 32.0308 2.11701 32.0316C1.95825 32.0325 1.79956 32.0319 1.6408 32.0309C1.59544 32.0316 1.55008 32.0322 1.50335 32.0329C1.11486 32.0276 0.80261 31.8935 0.500679 31.6497C0.243587 31.3425 0.061371 31.0215 0.0629991 30.6107C0.118109 30.0437 0.216136 29.4845 0.313668 28.9236C0.332601 28.814 0.351531 28.7044 0.370456 28.5947C0.410022 28.366 0.449827 28.1374 0.489769 27.9087C0.540644 27.6173 0.590627 27.3256 0.640395 27.034C0.679127 26.8079 0.71848 26.5819 0.758002 26.3559C0.776687 26.2485 0.795152 26.1411 0.813379 26.0336C1.07275 24.5077 1.07275 24.5077 1.56806 24.1365C1.97609 23.8837 2.33767 23.8487 2.81245 23.875C2.81825 23.7764 2.81825 23.7764 2.82417 23.6758C2.9507 22.6947 3.58263 21.7321 4.3476 21.1211C4.59369 20.9824 4.7222 20.9528 4.99995 21C5.15229 21.0938 5.15229 21.0938 5.24995 21.25C5.30354 21.6696 5.30354 21.6696 5.17944 21.8558C5.07971 21.9582 4.97577 22.0516 4.86713 22.1445C4.32772 22.6436 4.10917 23.1098 3.87495 23.8125C7.85557 23.8331 11.8362 23.8538 15.9374 23.875C15.6622 23.1182 15.4015 22.6164 14.6874 22.25C14.0875 21.9895 13.4497 21.9819 12.8317 22.1875C12.6838 22.2516 12.5591 22.3278 12.4257 22.418C12.1842 22.5755 12.0435 22.6163 11.7499 22.5625C11.5547 22.4745 11.3668 22.3788 11.1791 22.2756C10.8941 22.1355 10.6427 22.1164 10.3281 22.1172C10.2287 22.1168 10.2287 22.1168 10.1274 22.1165C9.96031 22.124 9.82494 22.1513 9.66401 22.1914C9.32879 22.2376 9.09332 22.0289 8.83202 21.847C8.22232 21.4238 7.59987 21.298 6.86762 21.2966C6.62434 21.2879 6.50799 21.2562 6.31269 21.1069C6.18745 20.9375 6.18745 20.9375 6.16181 20.8042C6.16898 20.7631 6.17615 20.722 6.18354 20.6797C6.18926 20.6383 6.19498 20.5969 6.20087 20.5542C6.27196 20.3852 6.33671 20.3357 6.49995 20.25C6.67795 20.2295 6.83779 20.2203 7.01557 20.2227C7.06507 20.2231 7.11457 20.2234 7.16557 20.2238C7.76461 20.2393 8.3522 20.3565 8.8892 20.63C8.93355 20.6524 8.9779 20.6749 9.02359 20.6981C9.05704 20.7152 9.09048 20.7324 9.12495 20.75C9.12688 20.6849 9.12881 20.6199 9.1308 20.5528C9.14914 19.9394 9.1684 19.326 9.18857 18.7127C9.19891 18.3973 9.20893 18.082 9.21819 17.7666C9.22715 17.4623 9.23696 17.1579 9.24737 16.8536C9.25119 16.7375 9.2547 16.6214 9.2579 16.5053C9.26243 16.3427 9.26806 16.18 9.27395 16.0174C9.27557 15.9455 9.27557 15.9455 9.27722 15.8721C9.28864 15.5945 9.32835 15.4087 9.49995 15.1875C9.69318 15.0909 9.84959 15.1067 10.0624 15.125C10.2351 15.255 10.3043 15.3283 10.3418 15.5434C10.3409 15.6078 10.34 15.6721 10.3391 15.7384C10.3386 15.8118 10.3381 15.8852 10.3376 15.9608C10.3348 16.08 10.3348 16.08 10.332 16.2017C10.3309 16.2855 10.3298 16.3694 10.3289 16.4533C10.3254 16.7189 10.3192 16.9844 10.3124 17.25C10.3109 17.3142 10.3109 17.3142 10.3093 17.3796C10.295 17.9686 10.2758 18.5573 10.2545 19.1461C10.2467 19.3637 10.2393 19.5813 10.2319 19.7988C10.2174 20.2201 10.2026 20.6413 10.1874 21.0625C10.2514 21.0619 10.2514 21.0619 10.3166 21.0612C10.4006 21.0607 10.4006 21.0607 10.4864 21.0602C10.5697 21.0596 10.5697 21.0596 10.6546 21.0589C10.8492 21.0633 11.0232 21.0976 11.2109 21.1484C11.272 21.1644 11.333 21.1804 11.3959 21.1968C11.5624 21.25 11.5624 21.25 11.6994 21.3193C11.8804 21.4085 11.9929 21.362 12.1874 21.3125C12.3619 21.2515 12.5348 21.1876 12.7072 21.1211C13.6066 20.8069 14.5253 21.0251 15.3749 21.375C15.3909 21.3201 15.4069 21.2653 15.4233 21.2088C15.6831 20.5014 16.2445 19.994 16.9062 19.6758C17.3019 19.4734 17.478 19.2427 17.7033 18.8665C18.0937 18.2263 18.7841 17.8177 19.4904 17.6077C20.3401 17.4129 21.2775 17.4755 22.048 17.9104C22.6392 18.2904 23.0969 18.7544 23.4374 19.375C23.4374 19.4163 23.4374 19.4575 23.4374 19.5C23.5109 19.5193 23.5109 19.5193 23.5859 19.5391C24.4083 19.851 25.0249 20.4048 25.4072 21.1961C25.768 22.0391 25.8375 23.0066 25.5197 23.8801C25.1196 24.7671 24.4718 25.4476 23.5624 25.8125C23.2553 25.9067 22.9432 25.9593 22.6249 26C22.5757 26.0065 22.5265 26.0129 22.4758 26.0195C21.9396 26.0522 21.3168 25.8668 20.8273 25.6497C20.5113 25.5136 20.2731 25.5043 19.9572 25.6284C19.8352 25.6832 19.7133 25.7382 19.5916 25.7936C19.3624 25.8797 19.155 25.9171 18.9125 25.9478C18.7961 25.9629 18.7961 25.9629 18.6773 25.9784C18.6188 25.9856 18.5603 25.9927 18.4999 26C18.5093 26.0528 18.5187 26.1056 18.5284 26.1599C18.6172 26.6591 18.7055 27.1584 18.7933 27.6577C18.8385 27.9144 18.8838 28.171 18.9295 28.4276C18.9737 28.6755 19.0174 28.9235 19.0608 29.1716C19.0774 29.2659 19.0941 29.3602 19.111 29.4544C19.3253 30.649 19.3253 30.649 19.1874 31.0625C20.5478 31.0573 21.9082 31.0513 23.2686 31.0445C23.9003 31.0414 24.532 31.0385 25.1636 31.0361C25.7143 31.0341 26.2649 31.0316 26.8156 31.0286C27.107 31.027 27.3985 31.0256 27.69 31.0248C27.9646 31.024 28.2391 31.0226 28.5137 31.0208C28.6143 31.0202 28.7148 31.0199 28.8154 31.0197C29.7496 31.0363 29.7496 31.0363 30.5624 30.625C30.9543 30.0849 30.8814 29.4536 30.8604 28.8146C30.8581 28.7342 30.8558 28.6538 30.8534 28.571C30.847 28.3491 30.84 28.1272 30.833 27.9054C30.8255 27.6656 30.8185 27.4258 30.8114 27.186C30.7958 26.6624 30.7796 26.1388 30.7633 25.6151C30.7531 25.288 30.743 24.9608 30.733 24.6336C30.7051 23.7269 30.6771 22.8203 30.6486 21.9136C30.6467 21.8557 30.6449 21.7977 30.643 21.738C30.6393 21.6206 30.6356 21.5031 30.6319 21.3856C30.6301 21.3273 30.6283 21.269 30.6264 21.2089C30.6245 21.1506 30.6227 21.0922 30.6208 21.032C30.591 20.0858 30.5623 19.1396 30.534 18.1933C30.5049 17.2208 30.475 16.2483 30.4442 15.2759C30.4269 14.7303 30.41 14.1847 30.394 13.6391C30.3804 13.1745 30.3661 12.7101 30.3507 12.2456C30.3429 12.0088 30.3354 11.772 30.3289 11.5352C30.3219 11.278 30.3131 11.0209 30.3042 10.7638C30.3024 10.6896 30.3007 10.6154 30.2989 10.5389C30.272 9.84848 30.0313 9.28914 29.7333 8.67555C29.7085 8.6237 29.6837 8.57185 29.6581 8.51843C29.5797 8.35459 29.5008 8.19096 29.4218 8.02735C29.1172 7.39437 28.8137 6.76133 28.5283 6.1194C28.4968 6.04866 28.4968 6.04866 28.4647 5.9765C28.3209 5.65036 28.2422 5.41023 28.2401 5.054C28.2391 4.93541 28.2391 4.93541 28.2381 4.81442C28.2379 4.77219 28.2377 4.72996 28.2375 4.68645C28.2368 4.55403 28.2355 4.42161 28.2342 4.28919C28.2303 3.91272 28.2269 3.53625 28.2249 3.15977C28.2236 2.92936 28.2213 2.69898 28.2186 2.46859C28.2177 2.38093 28.2171 2.29327 28.2169 2.2056C28.2166 2.0828 28.2151 1.96 28.2135 1.8372C28.213 1.7674 28.2125 1.6976 28.2119 1.62568C28.1838 1.40928 28.1364 1.29497 27.9999 1.12501C27.7109 0.964571 27.4208 0.982524 27.0995 0.984138C27.0401 0.983943 26.9806 0.983748 26.9193 0.983547C26.7199 0.983048 26.5205 0.983443 26.3211 0.983836C26.1782 0.983667 26.0353 0.983444 25.8924 0.983173C25.5041 0.982602 25.1158 0.982824 24.7275 0.98322C24.3214 0.983536 23.9153 0.983243 23.5091 0.983047C22.7833 0.982805 22.0574 0.983194 21.3316 0.983829C20.6737 0.984388 20.0157 0.984291 19.3578 0.983714C18.5937 0.983045 17.8295 0.982797 17.0653 0.983166C16.6609 0.983361 16.2564 0.983387 15.852 0.982974C15.4717 0.982613 15.0914 0.982863 14.7111 0.983586C14.5715 0.983751 14.4319 0.983703 14.2922 0.983428C14.1017 0.983087 13.9113 0.983514 13.7208 0.984138C13.6654 0.983859 13.6101 0.98358 13.553 0.983293C13.2619 0.985143 13.0213 1.00584 12.7499 1.12501C12.5979 1.31982 12.6099 1.51509 12.611 1.7557C12.6109 1.83274 12.6109 1.90978 12.6109 1.98915C12.6111 2.03021 12.6114 2.07127 12.6116 2.11357C12.6123 2.24329 12.6119 2.37298 12.6113 2.5027C12.6095 2.87148 12.6087 3.24025 12.6106 3.60903C12.6116 3.83507 12.6108 4.06104 12.6089 4.28707C12.6084 4.41316 12.6098 4.53926 12.6113 4.66534C12.6048 5.29185 12.4481 5.75469 12.1874 6.31251C12.1496 6.39678 12.1496 6.39678 12.111 6.48275C12.0448 6.62815 11.9762 6.77206 11.9064 6.91578C11.8693 6.99347 11.8693 6.99347 11.8313 7.07273C11.7537 7.23482 11.6757 7.39673 11.5976 7.5586C11.5458 7.6663 11.494 7.774 11.4422 7.88172C11.4168 7.93453 11.3914 7.98733 11.3653 8.04174C11.2897 8.19997 11.2153 8.35873 11.141 8.51754C11.0555 8.69943 10.966 8.87667 10.8682 9.05218C10.4474 9.8404 10.4876 10.6841 10.4765 11.5586C10.4716 11.7913 10.4661 12.024 10.4605 12.2567C10.4573 12.4004 10.4545 12.5441 10.4524 12.6878C10.4353 13.7173 10.4353 13.7173 10.2734 13.9727C10.0655 14.0985 9.92621 14.0924 9.68745 14.0625C9.48838 13.9525 9.44789 13.9063 9.37495 13.6875C9.37165 13.5617 9.37241 13.4358 9.37536 13.3099C9.37706 13.2321 9.37876 13.1542 9.38051 13.074C9.38276 12.9888 9.38506 12.9036 9.3874 12.8184C9.38852 12.7753 9.38965 12.7322 9.39081 12.6878C9.39678 12.4592 9.40318 12.2307 9.4099 12.0021C9.41673 11.7677 9.42217 11.5333 9.42728 11.2989C9.4315 11.1173 9.43675 10.9357 9.44227 10.7542C9.44472 10.6679 9.44679 10.5816 9.44845 10.4953C9.45943 9.94874 9.52614 9.49998 9.74995 9.00001C9.78156 8.92662 9.81318 8.85323 9.84576 8.77761C9.87593 8.7138 9.90611 8.64999 9.9372 8.58424C9.98902 8.474 9.98902 8.474 10.0419 8.36154C10.0787 8.284 10.1155 8.20646 10.1523 8.12892C10.1906 8.04753 10.2289 7.96612 10.2672 7.8847C10.3463 7.71642 10.4256 7.5482 10.5049 7.38002C10.6805 7.00732 10.8545 6.63385 11.0282 6.26022C11.0812 6.1463 11.1343 6.03245 11.1874 5.91861C11.2194 5.84984 11.2514 5.78107 11.2844 5.71022C11.3125 5.64982 11.3407 5.58942 11.3697 5.52719C11.4815 5.27602 11.5082 5.08691 11.5098 4.8137C11.5104 4.7367 11.5111 4.6597 11.5117 4.58036C11.512 4.53921 11.5122 4.49807 11.5124 4.45567C11.5131 4.32633 11.5144 4.19699 11.5157 4.06766C11.5196 3.69992 11.5229 3.33218 11.525 2.96443C11.5263 2.73929 11.5286 2.51417 11.5313 2.28904C11.5322 2.20369 11.5328 2.11832 11.533 2.03296C11.5344 1.45598 11.562 0.975002 11.8828 0.484386C12.3064 0.0791795 12.6999 -0.0465777 13.2777 -0.0392511ZM18.6406 19.3008C18.4946 19.4793 18.3673 19.6659 18.2421 19.8594C18.0177 20.2021 17.7728 20.3643 17.414 20.5547C16.8682 20.8492 16.511 21.1753 16.2499 21.75C16.1847 21.9757 16.1639 22.0769 16.2683 22.2901C16.3073 22.3439 16.3464 22.3977 16.3867 22.4531C16.6497 22.8388 16.8393 23.2163 16.914 23.6797C16.9784 23.881 16.9784 23.881 17.1311 23.9441C17.2408 23.9847 17.3511 24.0239 17.4619 24.0618C17.7575 24.1764 17.9864 24.3495 18.1308 24.6353C18.1764 24.7548 18.214 24.8773 18.2499 25C18.7064 24.9983 19.0787 24.9194 19.496 24.7461C20.21 24.4601 20.7401 24.5134 21.4407 24.7983C22.0668 25.0481 22.6151 25.056 23.2536 24.8308C23.8827 24.5543 24.3754 24.0137 24.6249 23.375C24.799 22.8388 24.7377 22.1665 24.5195 21.6558C24.1972 21.0439 23.7476 20.7264 23.1425 20.4116C22.7716 20.2117 22.5963 20.0239 22.3964 19.6536C22.1122 19.1339 21.6773 18.8084 21.1164 18.6226C20.2024 18.382 19.2936 18.5835 18.6406 19.3008ZM1.99995 25.1875C1.94227 25.3055 1.94227 25.3055 1.92594 25.427C1.91744 25.4722 1.90894 25.5175 1.90018 25.564C1.89234 25.6127 1.8845 25.6613 1.87643 25.7114C1.86704 25.7634 1.85765 25.8154 1.84797 25.8689C1.81739 26.04 1.78864 26.2114 1.75996 26.3828C1.73917 26.5022 1.7183 26.6215 1.69734 26.7408C1.65376 26.9905 1.61104 27.2404 1.56896 27.4904C1.515 27.8107 1.45916 28.1307 1.40269 28.4506C1.35941 28.6968 1.31699 28.9431 1.27484 29.1896C1.25457 29.3076 1.23405 29.4256 1.2133 29.5436C1.18446 29.7085 1.15676 29.8735 1.12936 30.0386C1.11627 30.1116 1.11627 30.1116 1.10292 30.186C1.05983 30.4541 1.05173 30.6358 1.18745 30.875C1.38321 31.0708 1.57807 31.0703 1.84612 31.0706C1.90303 31.0708 1.95994 31.071 2.01857 31.0712C2.08086 31.0711 2.14315 31.071 2.20732 31.0709C2.30685 31.0711 2.30685 31.0711 2.40838 31.0713C2.63145 31.0717 2.85451 31.0716 3.07757 31.0716C3.23719 31.0718 3.39682 31.072 3.55645 31.0722C3.94546 31.0727 4.33447 31.0729 4.72349 31.073C5.03964 31.073 5.3558 31.0731 5.67196 31.0733C6.56813 31.0739 7.4643 31.0741 8.36048 31.0741C8.40879 31.0741 8.45711 31.0741 8.50689 31.0741C8.55526 31.0741 8.60364 31.0741 8.65348 31.0741C9.43772 31.0741 10.222 31.0747 11.0062 31.0755C11.8113 31.0764 12.6164 31.0769 13.4214 31.0768C13.8735 31.0768 14.3256 31.077 14.7776 31.0776C15.2026 31.0783 15.6276 31.0782 16.0527 31.0778C16.2088 31.0777 16.365 31.0779 16.5212 31.0783C16.734 31.0787 16.9468 31.0784 17.1596 31.078C17.2218 31.0783 17.2839 31.0786 17.348 31.0789C17.7513 31.0789 17.7513 31.0789 18.1249 30.9375C18.2549 30.7773 18.25 30.6877 18.2408 30.4799C18.2293 30.3991 18.2177 30.3184 18.2059 30.2351C18.1997 30.1911 18.1936 30.147 18.1872 30.1016C18.1676 29.9634 18.1465 29.8254 18.1249 29.6875C18.1184 29.6456 18.1118 29.6036 18.1051 29.5604C18.0581 29.2649 18.0071 28.9702 17.9553 28.6755C17.9391 28.5827 17.9229 28.4899 17.9067 28.3971C17.8731 28.2048 17.8393 28.0126 17.8054 27.8203C17.7621 27.575 17.7196 27.3295 17.6772 27.084C17.6442 26.8932 17.6107 26.7025 17.577 26.5119C17.5611 26.4214 17.5454 26.3308 17.5298 26.2403C17.5081 26.1139 17.4857 25.9877 17.4631 25.8614C17.4443 25.7542 17.4443 25.7542 17.4251 25.6447C17.3481 25.3265 17.2829 25.0637 16.9999 24.875C16.8803 24.8562 16.8803 24.8562 16.7484 24.8588C16.697 24.8583 16.6457 24.8579 16.5928 24.8574C16.5082 24.8576 16.5082 24.8576 16.4219 24.8579C16.362 24.8575 16.3021 24.8572 16.2403 24.8569C16.0387 24.8559 15.837 24.8559 15.6354 24.8559C15.4911 24.8554 15.3469 24.8549 15.2027 24.8543C14.8103 24.8529 14.4178 24.8524 14.0254 24.852C13.7804 24.8518 13.5354 24.8514 13.2904 24.851C12.6122 24.8498 11.9339 24.8487 11.2557 24.8486C11.2123 24.8485 11.1689 24.8485 11.1242 24.8485C11.0362 24.8485 10.9482 24.8485 10.8602 24.8484C10.8165 24.8484 10.7728 24.8484 10.7278 24.8484C10.6841 24.8484 10.6403 24.8484 10.5953 24.8484C9.88638 24.8482 9.17751 24.8465 8.46864 24.8441C7.74097 24.8418 7.01332 24.8406 6.28565 24.8405C5.87703 24.8405 5.46843 24.8399 5.05982 24.8382C4.67558 24.8365 4.29137 24.8364 3.90713 24.8374C3.76596 24.8375 3.62479 24.8371 3.48363 24.8361C3.29117 24.8348 3.09881 24.8355 2.90636 24.8366C2.85025 24.8358 2.79414 24.8349 2.73633 24.8341C2.38508 24.8388 2.21887 24.8889 1.99995 25.1875Z" fill="white"/>
<path d="M9.125 25.6758C9.30514 25.7676 9.47176 25.8667 9.625 26C9.75669 25.9359 9.88401 25.8696 10.0098 25.7944C10.4676 25.5334 10.8769 25.4849 11.3933 25.5923C11.7986 25.7224 12.1186 25.9872 12.3359 26.3515C12.4715 26.6331 12.5118 26.8558 12.5195 27.1679C12.523 27.2592 12.523 27.2592 12.5266 27.3523C12.457 27.9025 12.1573 28.2638 11.7717 28.6404C11.7257 28.6864 11.6796 28.7325 11.6321 28.78C11.5353 28.8765 11.438 28.9727 11.3404 29.0684C11.1912 29.215 11.0433 29.363 10.8956 29.5111C10.801 29.605 10.7063 29.6989 10.6116 29.7927C10.5675 29.8368 10.5234 29.8808 10.478 29.9263C10.1877 30.2096 9.99399 30.372 9.57422 30.3789C8.99116 30.2807 8.47398 29.5522 8.06754 29.1485C7.99109 29.0727 7.91437 28.9973 7.83737 28.9221C7.72461 28.8121 7.61272 28.7012 7.50098 28.5901C7.46692 28.5571 7.43287 28.5241 7.39779 28.4902C7.03657 28.1269 6.81113 27.6977 6.79297 27.1797C6.79773 26.7676 6.9589 26.4226 7.16797 26.0742C7.69522 25.5754 8.44442 25.3796 9.125 25.6758ZM7.875 26.875C7.79182 27.0875 7.79182 27.0875 7.8125 27.3125C7.98125 27.6049 8.18992 27.8318 8.42871 28.0659C8.46304 28.1 8.49737 28.1342 8.53273 28.1694C8.64132 28.2773 8.75034 28.3847 8.85938 28.4922C8.93354 28.5657 9.00768 28.6393 9.08179 28.7129C9.26253 28.8922 9.44366 29.0712 9.625 29.25C9.99768 28.9431 10.3392 28.6079 10.6795 28.2661C10.7743 28.171 10.8694 28.0762 10.9646 27.9814C11.0251 27.9209 11.0856 27.8604 11.146 27.7998C11.2005 27.7452 11.255 27.6907 11.3111 27.6344C11.4724 27.4629 11.4966 27.4048 11.5234 27.1679C11.5207 26.9286 11.5207 26.9286 11.3516 26.7578C11.1844 26.6225 11.1066 26.5709 10.8984 26.5312C10.5793 26.5785 10.4131 26.7805 10.1875 27C9.98951 27.1883 9.92356 27.2458 9.64844 27.2695C9.4375 27.25 9.4375 27.25 9.25 27.1875C9.25 27.1462 9.25 27.105 9.25 27.0625C9.20875 27.0625 9.1675 27.0625 9.125 27.0625C9.125 27.0212 9.125 26.98 9.125 26.9375C8.91957 26.7362 8.71189 26.5816 8.42969 26.5195C8.17417 26.5806 8.05166 26.6819 7.875 26.875Z" fill="white"/>
<path d="M27.1875 15.125C27.5657 15.3982 27.7579 15.7408 27.875 16.1875C27.9311 16.7131 27.8193 17.1915 27.6797 17.6953C27.6531 17.7998 27.6531 17.7998 27.6259 17.9065C27.4883 18.4147 27.3138 18.8567 26.8979 19.1973C26.8208 19.2388 26.8208 19.2388 26.7422 19.2812C26.6904 19.3102 26.6387 19.3392 26.5854 19.3691C26.2084 19.5433 25.7935 19.5645 25.3938 19.4529C24.8357 19.2401 24.5687 18.9725 24.3125 18.4375C24.1199 17.8599 24.2872 17.2422 24.4453 16.6758C24.463 16.6064 24.4807 16.537 24.499 16.4654C24.6544 15.894 24.8768 15.3839 25.3935 15.0581C25.9692 14.7438 26.628 14.8033 27.1875 15.125ZM25.75 16.0625C25.5939 16.3859 25.4904 16.7171 25.3945 17.0625C25.3804 17.1105 25.3664 17.1585 25.3519 17.208C25.208 17.7008 25.208 17.7008 25.3139 18.185C25.5467 18.4374 25.5467 18.4374 25.8672 18.5117C26.0634 18.4999 26.1489 18.4771 26.3125 18.375C26.5449 18.0555 26.6391 17.6507 26.7343 17.2734C26.7481 17.2222 26.7619 17.1709 26.7761 17.1181C26.9117 16.6512 26.9117 16.6512 26.811 16.196C26.5808 15.9411 26.5808 15.9411 26.2617 15.8594C26.0289 15.8776 25.9288 15.9126 25.75 16.0625Z" fill="#FFC200"/>
<path d="M15.5 15.125C16.065 15.542 16.2219 16.1878 16.3906 16.8399C16.4074 16.9007 16.4242 16.9615 16.4414 17.0241C16.6094 17.6655 16.6474 18.2212 16.3125 18.8125C16.0422 19.1876 15.696 19.39 15.25 19.5C14.6742 19.5788 14.2729 19.4285 13.7969 19.1172C13.4102 18.7129 13.247 18.1679 13.1055 17.6368C13.0894 17.5767 13.0734 17.5167 13.0568 17.4548C12.8954 16.8198 12.8178 16.2289 13.125 15.625C13.3687 15.2594 13.7022 15.03 14.1243 14.899C14.6203 14.8046 15.0611 14.8757 15.5 15.125ZM13.9805 16.1719C13.849 16.6022 13.9915 17.0266 14.1055 17.4453C14.1208 17.5063 14.136 17.5673 14.1518 17.6302C14.2477 17.9864 14.331 18.2086 14.625 18.4375C14.8065 18.5283 14.9233 18.5233 15.125 18.5C15.3881 18.3412 15.4786 18.2727 15.5537 17.9734C15.5881 17.6076 15.4748 17.273 15.3711 16.9258C15.3531 16.8591 15.3351 16.7925 15.3165 16.7238C15.2009 16.3278 15.1079 16.0929 14.75 15.875C14.4262 15.8222 14.1807 15.905 13.9805 16.1719Z" fill="#FFC200"/>
<path d="M19.1174 12.2158C19.483 12.4824 19.7131 12.8034 19.8125 13.2499C19.8362 13.5565 19.8395 13.8608 19.837 14.1681C19.836 14.3121 19.837 14.456 19.8382 14.6C19.8391 15.2192 19.8093 15.7383 19.365 16.2119C18.9434 16.5807 18.5166 16.6772 17.9629 16.655C17.484 16.5874 17.1339 16.3726 16.8284 16.0024C16.6088 15.6452 16.5333 15.3422 16.5332 14.9245C16.5327 14.8767 16.5323 14.8288 16.5318 14.7795C16.5311 14.6789 16.5309 14.5782 16.5312 14.4775C16.5313 14.3252 16.5287 14.1731 16.5259 14.0208C16.5212 13.4162 16.5529 12.9118 16.9838 12.4445C17.5692 11.8893 18.4186 11.8072 19.1174 12.2158ZM17.625 13.2499C17.4912 13.5175 17.5458 13.8713 17.5441 14.1683C17.543 14.2996 17.5403 14.4308 17.5375 14.5621C17.5369 14.6459 17.5363 14.7298 17.5359 14.8137C17.535 14.8898 17.5341 14.9659 17.5331 15.0443C17.5679 15.288 17.6415 15.3891 17.8125 15.5624C18.0136 15.663 18.2201 15.6633 18.4375 15.6249C18.6057 15.489 18.716 15.3805 18.8125 15.1874C18.8313 14.9014 18.8299 14.6147 18.832 14.3281C18.8348 14.2084 18.8348 14.2084 18.8375 14.0864C18.8503 13.5209 18.8503 13.5209 18.5625 13.0624C18.2051 12.8837 17.8889 12.9781 17.625 13.2499Z" fill="#FFC200"/>
<path d="M23.5549 12.2158C23.9209 12.4826 24.1497 12.8033 24.25 13.2499C24.275 13.5553 24.2796 13.8584 24.2779 14.1647C24.2774 14.308 24.2792 14.4512 24.2811 14.5946C24.284 15.2016 24.202 15.6286 23.8672 16.1406C23.4973 16.4944 23.1382 16.6439 22.625 16.664C22.1035 16.643 21.7043 16.4878 21.3477 16.1015C21.0553 15.7472 20.9708 15.374 20.9707 14.9245C20.9702 14.8767 20.9698 14.8288 20.9693 14.7795C20.9686 14.6789 20.9684 14.5782 20.9687 14.4775C20.9688 14.3252 20.9662 14.1731 20.9634 14.0208C20.9587 13.4162 20.9904 12.9118 21.4213 12.4445C22.0067 11.8893 22.8561 11.8072 23.5549 12.2158ZM22.0625 13.2499C21.9287 13.5175 21.9833 13.8713 21.9816 14.1683C21.9805 14.2996 21.9778 14.4308 21.975 14.5621C21.9744 14.6459 21.9738 14.7298 21.9734 14.8137C21.9725 14.8898 21.9716 14.9659 21.9706 15.0443C22.0054 15.288 22.079 15.3891 22.25 15.5624C22.4511 15.663 22.6576 15.6633 22.875 15.6249C23.0432 15.489 23.1535 15.3805 23.25 15.1874C23.2688 14.9014 23.2674 14.6147 23.2695 14.3281C23.2723 14.2084 23.2723 14.2084 23.275 14.0864C23.2878 13.5209 23.2878 13.5209 23 13.0624C22.6426 12.8837 22.3264 12.9781 22.0625 13.2499Z" fill="#FFC200"/>
<path d="M14.8554 2.523C14.9293 2.52255 15.0032 2.52211 15.0794 2.52165C15.2816 2.52077 15.4838 2.5213 15.6861 2.52253C15.8979 2.52355 16.1098 2.523 16.3217 2.52268C16.6775 2.5224 17.0333 2.52339 17.3891 2.52514C17.8001 2.52714 18.2111 2.52714 18.6221 2.52606C19.018 2.52507 19.4138 2.52549 19.8096 2.52656C19.9778 2.52699 20.1461 2.52692 20.3143 2.52646C20.5494 2.52612 20.7844 2.52739 21.0195 2.5291C21.124 2.52849 21.124 2.52849 21.2306 2.52787C21.7019 2.53371 21.7019 2.53371 21.9494 2.68172C22.0715 2.82295 22.1037 2.87831 22.0976 3.06244C22.0977 3.10369 22.0978 3.14494 22.0978 3.18744C22.0467 3.36789 21.9554 3.4433 21.8124 3.56244C21.6614 3.5939 21.6614 3.5939 21.4898 3.59419C21.3921 3.59525 21.3921 3.59525 21.2923 3.59633C21.2211 3.59582 21.1499 3.59531 21.0766 3.59479C21.0014 3.59523 20.9262 3.59567 20.8487 3.59612C20.6425 3.59703 20.4365 3.59682 20.2304 3.59603C20.0146 3.59539 19.7989 3.59598 19.5831 3.59637C19.2208 3.59683 18.8585 3.59623 18.4962 3.59504C18.0774 3.59368 17.6586 3.59412 17.2398 3.59549C16.8801 3.59663 16.5205 3.59679 16.1608 3.59613C15.946 3.59574 15.7313 3.59569 15.5165 3.59652C15.2771 3.59738 15.0377 3.59619 14.7983 3.59479C14.7271 3.5953 14.6559 3.59581 14.5826 3.59633C14.4848 3.59527 14.4848 3.59527 14.3851 3.59419C14.3285 3.5941 14.2719 3.594 14.2135 3.5939C14.0126 3.55206 13.9377 3.47215 13.8124 3.31244C13.7698 3.0519 13.777 2.92766 13.9252 2.70724C14.2247 2.49013 14.4942 2.51921 14.8554 2.523Z" fill="white"/>
<path d="M24.2031 2.53755C24.3053 2.53728 24.3053 2.53728 24.4097 2.53701C24.5536 2.53688 24.6976 2.53723 24.8415 2.53801C25.0617 2.53901 25.2817 2.53802 25.5019 2.53682C25.6419 2.53694 25.7818 2.53718 25.9218 2.53755C26.0205 2.53698 26.0205 2.53698 26.1211 2.5364C26.6957 2.54192 26.6957 2.54192 26.9374 2.74995C27.0277 2.93049 27.0235 3.04973 26.9999 3.24995C26.8879 3.41606 26.8879 3.41606 26.6874 3.56245C26.4441 3.6094 26.2041 3.60624 25.957 3.60396C25.886 3.60426 25.8151 3.60456 25.742 3.60486C25.5921 3.60508 25.4423 3.6045 25.2925 3.60319C25.0632 3.60152 24.8342 3.60318 24.6049 3.60518C24.4593 3.60497 24.3136 3.60457 24.1679 3.60396C24.0652 3.60491 24.0652 3.60491 23.9603 3.60587C23.4314 3.59774 23.4314 3.59774 23.2373 3.41194C23.1221 3.24592 23.0856 3.18798 23.1171 2.99214C23.1221 2.95073 23.1271 2.90932 23.1323 2.86665C23.324 2.46114 23.8261 2.53538 24.2031 2.53755Z" fill="white"/>
<path d="M24.9707 28.4041C25.0399 28.4031 25.1092 28.4021 25.1805 28.4011C25.255 28.4014 25.3295 28.4017 25.4062 28.402C25.483 28.4017 25.5597 28.4013 25.6388 28.4009C25.801 28.4004 25.9633 28.4006 26.1255 28.4014C26.3741 28.4023 26.6225 28.4002 26.8711 28.3978C27.0286 28.3977 27.1862 28.3978 27.3438 28.3981C27.4555 28.3969 27.4555 28.3969 27.5695 28.3956C28.0816 28.4014 28.0816 28.4014 28.2991 28.582C28.4027 28.8113 28.3791 28.9475 28.3125 29.1874C28.2363 29.2928 28.2363 29.2928 28.125 29.3749C27.9713 29.3992 27.9713 29.3992 27.7864 29.4002C27.6825 29.4014 27.6825 29.4014 27.5765 29.4026C27.5017 29.4024 27.4269 29.4022 27.3499 29.402C27.2346 29.4025 27.2346 29.4025 27.117 29.403C26.9128 29.4035 26.7085 29.4031 26.5042 29.4024C26.2968 29.4022 26.0894 29.4044 25.882 29.4061C25.7241 29.4062 25.5663 29.4061 25.4084 29.406C25.2964 29.407 25.2964 29.407 25.1821 29.4081C25.1127 29.4075 25.0432 29.4069 24.9717 29.4063C24.9106 29.4063 24.8496 29.4063 24.7867 29.4063C24.5777 29.3658 24.5035 29.2919 24.375 29.1249C24.3438 28.9062 24.3438 28.9062 24.375 28.6874C24.556 28.4527 24.6783 28.406 24.9707 28.4041Z" fill="white"/>
</g>
<defs>
<clipPath id="clip0_79_30410">
<rect width="32" height="32" fill="white"/>
</clipPath>
</defs>
</svg>
