<svg width="18" height="20" viewBox="0 0 18 20" fill="none" xmlns="http://www.w3.org/2000/svg">
<path d="M12.3622 3.34667C15.2427 4.63374 17.25 7.52381 17.25 10.8827C17.25 15.4391 13.5563 19.1327 9 19.1327C4.44365 19.1327 0.75 15.4391 0.75 10.8827C0.75 8.67066 1.62058 6.66195 3.03781 5.18051C3.8043 6.25092 4.82048 7.13036 6.00121 7.7337C6.04632 4.95803 7.34797 2.48784 9.36211 0.867188C10.1255 1.89094 11.1379 2.75126 12.3622 3.34667Z" stroke="#FF6F3C" stroke-width="1.5" stroke-linecap="round" stroke-linejoin="round"/>
<path d="M9 16.1331C11.0711 16.1331 12.75 14.4542 12.75 12.3831C12.75 10.4798 11.3321 8.90767 9.49489 8.66547C8.48657 9.57001 7.78619 10.8109 7.57031 12.2117C6.78769 12.0204 6.06529 11.6756 5.43682 11.211C5.31559 11.5797 5.25 11.9738 5.25 12.3831C5.25 14.4542 6.92893 16.1331 9 16.1331Z" stroke="#FF6F3C" stroke-width="1.5" stroke-linecap="round" stroke-linejoin="round"/>
</svg>
