<svg width="20" height="20" viewBox="0 0 20 20" fill="none" xmlns="http://www.w3.org/2000/svg">
<path d="M10 1V3M4 2.61L5 4.34M16 2.61L15 4.34M8 13C8 12.6044 8.1173 12.2178 8.33706 11.8889C8.55682 11.56 8.86918 11.3036 9.23463 11.1522C9.60009 11.0009 10.0022 10.9613 10.3902 11.0384C10.7781 11.1156 11.1345 11.3061 11.4142 11.5858C11.6939 11.8655 11.8844 12.2219 11.9616 12.6098C12.0387 12.9978 11.9991 13.3999 11.8478 13.7654C11.6964 14.1308 11.44 14.4432 11.1111 14.6629C10.7822 14.8827 10.3956 15 10 15C9.46957 15 8.96086 14.7893 8.58579 14.4142C8.21071 14.0391 8 13.5304 8 13ZM10 7C4 7 1 13 1 13C1 13 4 19 10 19C16 19 19 13 19 13C19 13 16 7 10 7Z" stroke="#FF6F3C" stroke-linecap="round" stroke-linejoin="round"/>
</svg>
