<svg width="7" height="7" viewBox="0 0 7 7" fill="none" xmlns="http://www.w3.org/2000/svg">
<path d="M4.74555 0.778786C4.88826 0.904278 5.02269 1.03658 5.15626 1.17173C5.18756 1.20255 5.21886 1.23336 5.25111 1.26511C5.92265 1.97313 6.21608 2.99788 6.19923 3.9542C6.14947 4.67876 5.93209 5.33392 5.48438 5.9061C5.44958 5.95444 5.41477 6.00278 5.37891 6.05259C4.85479 6.60054 4.18135 6.88485 3.43434 6.93552C2.49666 6.94674 1.68644 6.54957 1.02467 5.90684C0.27119 5.13722 -0.0319454 4.13644 -0.0220435 3.08414C0.00303831 2.24159 0.298492 1.47273 0.89924 0.872903C1.96145 -0.117122 3.62307 -0.161429 4.74555 0.778786Z" fill="#FFC200"/>
</svg>
