<svg width="8" height="9" viewBox="0 0 8 9" fill="none" xmlns="http://www.w3.org/2000/svg">
<path d="M6.23533 1.05724C6.3535 1.14911 6.46638 1.2444 6.5781 1.34398C6.61031 1.37232 6.64251 1.40066 6.6757 1.42986C7.43846 2.14448 7.86219 3.1766 7.90671 4.21142C7.93416 5.38684 7.66862 6.4256 6.90623 7.34399C6.87478 7.38568 6.87478 7.38568 6.84269 7.42821C6.35879 8.04692 5.58626 8.41504 4.82597 8.54241C3.92394 8.65042 3.0359 8.41479 2.31248 7.85961C1.46033 7.13496 0.912612 6.12241 0.812477 5.00023C0.746365 3.76866 1.0024 2.61054 1.82578 1.65178C2.97702 0.411846 4.80206 0.0531226 6.23533 1.05724Z" fill="#FFC200"/>
</svg>
