<svg width="5" height="11" viewBox="0 0 5 11" fill="none" xmlns="http://www.w3.org/2000/svg">
<path d="M3.62466 7.62528C3.97081 7.81759 3.97081 7.81759 4.06216 8.00028C4.07925 8.12455 4.07925 8.12455 4.08559 8.26982C4.08865 8.31727 4.09172 8.36472 4.09487 8.41361C4.0461 8.63598 3.91685 8.72446 3.74966 8.87528C3.56841 8.98889 3.56841 8.98889 3.36928 9.0933C3.33339 9.11234 3.2975 9.13138 3.26051 9.151C3.1452 9.212 3.02949 9.27218 2.91372 9.33232C2.83417 9.37407 2.75464 9.41587 2.67513 9.45771C2.55744 9.51963 2.43972 9.58149 2.32188 9.64311C2.11077 9.75359 1.90121 9.86621 1.6935 9.98295C1.65156 10.0063 1.60961 10.0297 1.5664 10.0538C1.4622 10.1122 1.35835 10.1712 1.25454 10.2303C1.01392 10.3335 0.823624 10.3594 0.562155 10.3753C0.332897 10.2785 0.178854 10.1589 0.0621544 9.93778C0.0288787 9.68109 0.0394294 9.54242 0.162908 9.31349C0.328408 9.10479 0.492647 9.00055 0.727438 8.88749C0.767866 8.86701 0.808293 8.84653 0.849946 8.82543C0.978831 8.76038 1.10834 8.69671 1.23794 8.6331C1.36435 8.56991 1.49062 8.50645 1.61687 8.44295C1.70102 8.40076 1.78528 8.35881 1.86967 8.31711C2.08498 8.21031 2.29715 8.10013 2.50658 7.98216C2.56901 7.94734 2.56901 7.94734 2.63271 7.91183C2.71119 7.86775 2.78927 7.82293 2.86682 7.77723C3.12921 7.63056 3.32633 7.59476 3.62466 7.62528Z" fill="#9E9E9E"/>
<path d="M0.937134 0.499758C1.09433 0.559497 1.2254 0.618609 1.37073 0.698977C1.41178 0.720639 1.45283 0.742302 1.49512 0.76462C1.58868 0.814002 1.68204 0.863772 1.77524 0.913851C1.95969 1.01173 2.14565 1.10629 2.33191 1.20069C2.47117 1.2717 2.61041 1.34275 2.74963 1.41382C2.81602 1.44743 2.8824 1.48104 2.95079 1.51567C3.91186 2.01172 3.91186 2.01172 4.06213 2.31226C4.09056 2.59656 4.10694 2.79188 3.93323 3.0271C3.71008 3.22176 3.60546 3.23887 3.31213 3.24976C3.14066 3.19162 2.99854 3.13247 2.83948 3.05054C2.79468 3.02848 2.74989 3.00642 2.70374 2.98369C2.1382 2.70122 1.58441 2.39474 1.03221 2.08722C0.926512 2.02855 0.820519 1.97041 0.714249 1.91278C0.664132 1.88549 0.614015 1.8582 0.562378 1.83008C0.517951 1.80608 0.473524 1.78207 0.42775 1.75734C0.255469 1.65291 0.1588 1.55128 0.0621343 1.37476C0.0231493 1.06288 0.0571517 0.874273 0.249634 0.624758C0.482937 0.469223 0.666945 0.465914 0.937134 0.499758Z" fill="#9E9E9E"/>
<path d="M0.852996 4.74031C0.911834 4.73971 0.970672 4.73911 1.03129 4.73849C1.12651 4.7381 1.12651 4.7381 1.22365 4.73769C1.28908 4.73733 1.35451 4.73698 1.42193 4.73661C1.56047 4.73602 1.69901 4.73561 1.83755 4.73537C2.04907 4.73476 2.26055 4.73283 2.47206 4.73085C2.6067 4.73045 2.74135 4.73012 2.87599 4.72988C2.93909 4.72911 3.00219 4.72833 3.0672 4.72754C3.40453 4.7286 3.64662 4.74591 3.93727 4.93789C4.08756 5.12233 4.08801 5.33108 4.08278 5.56484C4.05036 5.75933 3.95068 5.86605 3.81227 6.00039C3.65787 6.07758 3.55242 6.07248 3.3797 6.07494C3.28363 6.07645 3.28363 6.07645 3.18561 6.07798C2.89256 6.08076 2.59952 6.08333 2.30646 6.08477C2.15181 6.0858 1.99716 6.08751 1.84253 6.08989C1.61978 6.09331 1.3971 6.09468 1.17433 6.0956C1.10525 6.09702 1.03616 6.09843 0.964983 6.09989C0.484319 6.09857 0.484319 6.09857 0.23886 5.9124C0.0573593 5.65466 0.0304031 5.50656 0.0622703 5.18789C0.256417 4.85057 0.473498 4.74344 0.852996 4.74031Z" fill="#9E9E9E"/>
</svg>
