<svg width="5" height="11" viewBox="0 0 5 11" fill="none" xmlns="http://www.w3.org/2000/svg">
<path d="M2.03764 7.71416C2.11746 7.75498 2.19678 7.79678 2.27566 7.8394C2.31874 7.8618 2.36183 7.8842 2.40622 7.90727C2.54341 7.97887 2.6799 8.0517 2.81643 8.12456C2.90636 8.17159 2.99632 8.21855 3.08633 8.26543C3.30742 8.38105 3.52736 8.49867 3.74669 8.6176C3.83217 8.66386 3.91781 8.70985 4.00361 8.75554C4.12519 8.82043 4.24614 8.88639 4.36697 8.95268C4.43645 8.99039 4.50593 9.02809 4.57752 9.06694C4.76367 9.19656 4.84291 9.29516 4.93752 9.49956C4.97844 9.78085 4.95836 9.9019 4.81252 10.148C4.5905 10.3423 4.41264 10.3819 4.12502 10.3746C3.91677 10.302 3.91677 10.302 3.69924 10.1832C3.61307 10.1371 3.52689 10.0912 3.4407 10.0452C3.39209 10.0187 3.34347 9.99226 3.29339 9.96498C3.09622 9.85908 2.89728 9.75699 2.69802 9.65507C2.06604 9.33132 2.06604 9.33132 1.80813 9.1978C1.74576 9.16563 1.68339 9.13347 1.61913 9.10033C1.10688 8.8161 1.10688 8.8161 0.937524 8.56206C0.891619 8.27702 0.900485 8.06086 1.0508 7.81206C1.34301 7.5449 1.68622 7.57428 2.03764 7.71416Z" fill="#9E9E9E"/>
<path d="M4.67564 0.578306C4.89511 0.753883 4.92872 0.871007 4.9647 1.14862C4.9314 1.42455 4.81905 1.56319 4.62486 1.75018C4.43788 1.87088 4.43788 1.87088 4.23082 1.9743C4.19353 1.99325 4.15624 2.0122 4.11782 2.03173C3.99816 2.09234 3.87795 2.15174 3.75767 2.21112C3.67518 2.25255 3.59273 2.29406 3.51033 2.33566C3.38854 2.39713 3.26673 2.45854 3.14474 2.51962C2.77665 2.70417 2.41698 2.90195 2.05894 3.10516C1.84813 3.19966 1.66736 3.23406 1.43736 3.25018C1.2094 3.15174 1.05139 3.03474 0.937359 2.81268C0.890857 2.39416 0.890857 2.39416 1.02305 2.16253C1.26336 1.92508 1.54269 1.79748 1.84361 1.64862C1.97291 1.58307 2.10214 1.5174 2.2313 1.4516C2.29668 1.41841 2.36206 1.38523 2.42942 1.35104C2.78627 1.16688 3.13643 0.970687 3.4868 0.774565C3.53526 0.747585 3.58372 0.720605 3.63365 0.692808C3.67588 0.669107 3.71812 0.645405 3.76164 0.620985C4.06486 0.464837 4.36186 0.438848 4.67564 0.578306Z" fill="#9E9E9E"/>
<path d="M2.11979 4.72478C2.18511 4.7246 2.25042 4.72442 2.31772 4.72424C2.4554 4.72411 2.59309 4.72446 2.73077 4.72524C2.94132 4.72625 3.1518 4.72525 3.36234 4.72405C3.49634 4.72417 3.63033 4.72441 3.76432 4.72478C3.82715 4.7244 3.88999 4.72402 3.95472 4.72363C4.34458 4.72755 4.57523 4.76805 4.86369 5.04656C4.97243 5.25261 4.96566 5.39472 4.93791 5.62469C4.7456 5.97084 4.7456 5.97084 4.56291 6.06219C4.46055 6.06909 4.35792 6.07213 4.25533 6.07325C4.19129 6.07405 4.12724 6.07485 4.06125 6.07568C3.95705 6.07637 3.95705 6.07637 3.85075 6.07708C3.77953 6.07758 3.70831 6.07809 3.63493 6.07861C3.48399 6.07947 3.33304 6.08014 3.18209 6.08063C2.95122 6.08171 2.7204 6.08445 2.48954 6.08721C2.34302 6.08784 2.19649 6.08837 2.04997 6.0888C1.94634 6.09044 1.94634 6.09044 1.84062 6.09211C1.3606 6.09075 1.3606 6.09075 1.1145 5.94333C0.931169 5.73259 0.923323 5.58906 0.928874 5.30999C0.940605 5.15051 0.960979 5.06228 1.06291 4.93719C1.40651 4.71128 1.72302 4.72238 2.11979 4.72478Z" fill="#9E9E9E"/>
</svg>
