<svg width="17" height="13" viewBox="0 0 17 13" fill="none" xmlns="http://www.w3.org/2000/svg">
<path d="M12.2344 1.67171C12.2724 1.70621 12.3105 1.74071 12.3497 1.77626C12.9181 2.31147 13.3015 3.01462 13.7153 3.66957C13.853 3.88741 13.9924 4.10409 14.1328 4.32015C14.3585 4.66761 14.581 5.01703 14.8029 5.36687C14.9529 5.60303 15.1041 5.83825 15.2573 6.07232C15.9785 7.17618 16.4612 8.23886 16.1975 9.59085C15.9903 10.519 15.4281 11.3604 14.6309 11.8787C13.7153 12.4492 12.6979 12.6531 11.638 12.4178C11.327 12.3331 11.0277 12.2102 10.7273 12.0942C8.97341 11.4187 7.11347 11.4794 5.37305 12.1541C4.28955 12.5741 3.25379 12.6438 2.15863 12.1918C1.27928 11.7798 0.607799 11.046 0.234375 10.1561C-0.0973531 9.18804 -0.103694 8.20715 0.301208 7.25954C0.502023 6.85043 0.732367 6.46609 0.984375 6.08675C1.04668 5.99211 1.10893 5.89745 1.17114 5.80275C1.20247 5.75508 1.2338 5.70742 1.26608 5.6583C1.41244 5.43421 1.55594 5.20833 1.69922 4.98226C1.90948 4.65074 2.12089 4.32007 2.33509 3.99108C2.45589 3.80514 2.57491 3.61821 2.69257 3.43025C3.45466 2.2148 3.45466 2.2148 3.98437 1.71858C4.02099 1.6816 4.05761 1.64462 4.09534 1.60652C6.35177 -0.629824 9.98888 -0.449035 12.2344 1.67171Z" fill="#FFC200"/>
</svg>
