<svg width="49" height="48" viewBox="0 0 49 48" fill="none" xmlns="http://www.w3.org/2000/svg">
<path d="M43.7509 22.3679H40.1029V35.7119H43.7509C45.6709 35.7119 47.2069 34.1759 47.2069 32.2559V25.9199C47.2069 23.9999 45.6709 22.3679 43.7509 22.3679Z" fill="#1E3A5F"/>
<path d="M4.58271 22.3679H8.23071V35.7119H4.58271C2.66271 35.7119 1.12671 34.1759 1.12671 32.2559V25.9199C1.12671 23.9999 2.66271 22.3679 4.58271 22.3679Z" fill="#1E3A5F"/>
<path d="M41.4468 20.9279V38.208C41.4468 41.664 38.5668 44.544 35.1108 44.544H27.7188C26.9508 44.544 26.3748 43.968 26.3748 43.2C26.3748 42.4319 26.9508 41.8559 27.7188 41.8559H35.1108C37.1268 41.8559 38.7588 40.2239 38.7588 38.208V21.4079C38.7588 13.5359 32.7108 6.81595 24.9348 6.43195C16.5828 6.04795 9.57484 12.6719 9.57484 20.9279V36.4799C9.57484 37.248 8.99884 37.824 8.23084 37.824C7.55884 37.824 6.88684 37.152 6.88684 36.4799V21.4079C6.88684 12.0959 14.1828 4.12795 23.4948 3.74395C33.2868 3.35995 41.4468 11.2319 41.4468 20.9279Z" fill="#A0C4E3"/>
<path d="M33.2866 10.6559C32.7106 10.6559 32.2306 10.4639 31.7506 10.1759C29.5426 8.6399 26.9506 7.7759 24.1666 7.7759C21.3826 7.7759 18.7906 8.6399 16.5826 10.1759C15.3346 11.0399 13.7026 10.7519 12.8386 9.5039C11.9746 8.2559 12.2626 6.6239 13.5106 5.7599C16.6786 3.5519 20.3266 2.3999 24.1666 2.3999C28.0066 2.3999 31.6546 3.5519 34.8226 5.7599C36.0706 6.6239 36.3586 8.2559 35.4946 9.5039C34.9186 10.1759 34.1506 10.6559 33.2866 10.6559Z" fill="#1E3A5F"/>
<path d="M26.7588 45.5998C28.0842 45.5998 29.1588 44.5253 29.1588 43.1998C29.1588 41.8743 28.0842 40.7998 26.7588 40.7998C25.4333 40.7998 24.3588 41.8743 24.3588 43.1998C24.3588 44.5253 25.4333 45.5998 26.7588 45.5998Z" fill="#1E3A5F"/>
</svg>
