<svg width="32" height="32" viewBox="0 0 32 32" fill="none" xmlns="http://www.w3.org/2000/svg">
<g clip-path="url(#clip0_79_30399)">
<path d="M11.8125 1.50003C11.8615 1.51244 11.9105 1.52486 11.961 1.53765C13.4162 1.91604 14.8006 2.56563 15.9375 3.56253C16.1698 3.48119 16.3245 3.38538 16.5078 3.22268C17.5655 2.35831 18.8717 1.82621 20.1875 1.50003C20.2674 1.47997 20.3473 1.4599 20.4297 1.43924C22.6614 0.948612 25.1534 1.38216 27.125 2.50003C27.1665 2.52346 27.2079 2.5469 27.2506 2.57104C27.8934 2.94035 28.4575 3.3709 29 3.87503C29.0468 3.91817 29.0468 3.91817 29.0945 3.96218C30.7495 5.50552 31.9148 7.83917 32.0101 10.1157C32.0124 10.3402 32.0145 10.5645 32.015 10.789C32.0156 10.9313 32.0176 11.0736 32.0195 11.216C32.0256 12.059 31.9054 12.8712 31.6758 13.6836C31.6564 13.7523 31.6564 13.7523 31.6367 13.8224C31.2326 15.1866 30.4861 16.4234 29.5234 17.4639C29.3838 17.6154 29.2465 17.7688 29.1095 17.9227C28.841 18.2213 28.5631 18.5083 28.2787 18.7918C28.2281 18.8425 28.1774 18.8932 28.1253 18.9455C27.9575 19.1136 27.7894 19.2814 27.6214 19.4492C27.5003 19.5704 27.3792 19.6916 27.2581 19.8128C26.9646 20.1066 26.6709 20.4002 26.3772 20.6938C26.1386 20.9323 25.9 21.1708 25.6614 21.4094C25.6274 21.4435 25.5934 21.4776 25.5583 21.5126C25.4891 21.5818 25.42 21.651 25.3508 21.7202C24.7038 22.3673 24.0567 23.0143 23.4094 23.6612C22.854 24.2163 22.2988 24.7716 21.7437 25.327C21.0983 25.9727 20.4529 26.6183 19.8072 27.2637C19.7385 27.3325 19.6697 27.4012 19.6009 27.47C19.5501 27.5208 19.5501 27.5208 19.4983 27.5725C19.2598 27.811 19.0213 28.0496 18.7829 28.2882C18.4926 28.5786 18.2023 28.8689 17.9118 29.159C17.7636 29.307 17.6155 29.4551 17.4675 29.6034C17.3072 29.7638 17.1467 29.9241 16.9862 30.0843C16.9392 30.1314 16.8922 30.1785 16.8438 30.227C16.8009 30.2698 16.758 30.3126 16.7138 30.3566C16.6768 30.3936 16.6397 30.4306 16.6016 30.4688C16.4207 30.6357 16.2774 30.7148 16.0352 30.7383C15.721 30.7242 15.5878 30.6277 15.3633 30.4123C15.3316 30.3822 15.3 30.3521 15.2673 30.3211C15.1565 30.215 15.0469 30.1076 14.9375 30C14.896 29.9595 14.8545 29.9189 14.8118 29.8772C14.4648 29.5376 14.1208 29.1952 13.7771 28.8523C13.7229 28.7983 13.6686 28.7442 13.6127 28.6885C13.3267 28.4033 13.0407 28.118 12.755 27.8325C12.5192 27.597 12.2831 27.3617 12.0467 27.1268C11.7597 26.8415 11.4732 26.5558 11.187 26.2697C11.0783 26.1612 10.9694 26.0528 10.8604 25.9446C10.7084 25.7938 10.5571 25.6423 10.4059 25.4907C10.361 25.4463 10.3161 25.402 10.2698 25.3564C9.7725 24.8548 9.7725 24.8548 9.73658 24.4878C9.76453 24.2933 9.80306 24.1404 9.90625 23.9727C10.1317 23.8318 10.36 23.7782 10.625 23.8125C10.9634 24.0085 11.2219 24.2675 11.4958 24.5442C11.544 24.5924 11.5922 24.6405 11.6419 24.6902C11.8005 24.8488 11.9586 25.0079 12.1167 25.167C12.2268 25.2774 12.337 25.3877 12.4472 25.498C12.7071 25.7583 12.9666 26.0189 13.2261 26.2796C13.5507 26.6057 13.8757 26.9314 14.2007 27.2571C14.78 27.8377 15.3589 28.4187 15.9375 29C16.1302 28.9141 16.2625 28.8158 16.4116 28.667C16.477 28.6022 16.477 28.6022 16.5437 28.5361C16.5912 28.4885 16.6386 28.4408 16.6875 28.3918C16.7636 28.316 16.7636 28.316 16.8413 28.2388C16.9822 28.0986 17.1228 27.9581 17.2632 27.8175C17.4148 27.6659 17.5668 27.5146 17.7187 27.3633C18.0163 27.0667 18.3137 26.7697 18.6108 26.4726C18.8527 26.2308 19.0947 25.989 19.3367 25.7474C20.0238 25.0615 20.7106 24.3752 21.397 23.6887C21.434 23.6517 21.471 23.6147 21.5092 23.5765C21.5648 23.5209 21.5648 23.5209 21.6215 23.4642C22.2207 22.865 22.8205 22.2663 23.4206 21.668C24.0375 21.0528 24.654 20.4372 25.2701 19.8211C25.6156 19.4755 25.9613 19.1301 26.3075 18.7853C26.6026 18.4913 26.8973 18.1969 27.1915 17.9019C27.3412 17.7517 27.4913 17.6018 27.6417 17.4523C28.4588 16.6401 29.211 15.8319 29.7383 14.7969C29.7808 14.7143 29.7808 14.7143 29.8242 14.63C30.0968 14.0837 30.2854 13.5275 30.4375 12.9375C30.4586 12.8622 30.4797 12.7869 30.5015 12.7093C30.9883 10.6524 30.5377 8.34567 29.4375 6.56253C28.1956 4.60433 26.3106 3.33066 24.0625 2.81253C21.9309 2.35874 19.7192 2.80805 17.875 3.93753C17.4048 4.24266 16.9909 4.61081 16.5859 4.99588C16.3938 5.16306 16.2599 5.24058 16.0078 5.27346C15.6377 5.22905 15.3878 4.9621 15.1289 4.71096C14.1446 3.80881 12.9161 3.20008 11.625 2.87503C11.5483 2.85513 11.4716 2.83523 11.3926 2.81472C9.25304 2.35044 6.97794 2.77911 5.13803 3.94604C3.45521 5.04788 2.25099 6.65634 1.66407 8.57815C1.64915 8.62682 1.63423 8.6755 1.61885 8.72564C1.4085 9.45584 1.35053 10.184 1.35157 10.9414C1.3516 10.9836 1.35163 11.0258 1.35167 11.0693C1.35435 11.798 1.4217 12.4855 1.625 13.1875C1.63773 13.2324 1.65046 13.2772 1.66358 13.3234C2.15685 14.9999 3.18507 16.2635 4.40754 17.4729C4.51413 17.5783 4.62048 17.6841 4.72677 17.7898C5.02849 18.09 5.33058 18.3899 5.63292 18.6894C5.81903 18.8739 6.00484 19.0586 6.19046 19.2436C6.26088 19.3136 6.33143 19.3835 6.40209 19.4533C6.50048 19.5505 6.59848 19.6481 6.6964 19.7457C6.75216 19.801 6.80792 19.8563 6.86537 19.9133C7.03871 20.1054 7.11508 20.2365 7.14844 20.4922C7.11825 20.7438 7.03732 20.8695 6.875 21.0625C6.69545 21.1741 6.57417 21.1868 6.36329 21.1992C5.76893 21.0141 5.28515 20.357 4.85279 19.9236C4.79308 19.8639 4.73337 19.8043 4.67364 19.7446C4.54965 19.6207 4.42576 19.4967 4.30196 19.3726C4.1446 19.2149 3.98695 19.0575 3.82922 18.9001C3.70626 18.7774 3.58344 18.6545 3.46068 18.5316C3.37481 18.4456 3.28882 18.3598 3.20282 18.274C1.14625 16.2098 -0.0144083 13.8059 -0.015686 10.8623C-0.014349 10.1425 0.00380607 9.44999 0.187504 8.75003C0.199921 8.70111 0.212338 8.6522 0.225132 8.6018C0.684592 6.83452 1.55612 5.3825 2.8125 4.06253C2.84956 4.02216 2.88662 3.9818 2.92481 3.94021C5.06607 1.67705 8.82007 0.720762 11.8125 1.50003Z" fill="white"/>
<path d="M17.8919 13.1798C18.2874 13.5401 18.672 13.91 19.0518 14.2868C19.0825 14.3173 19.1131 14.3477 19.1447 14.379C19.3066 14.5396 19.4683 14.7004 19.6299 14.8614C19.7951 15.0259 19.961 15.1896 20.127 15.3532C20.2564 15.4809 20.3851 15.6092 20.5138 15.7376C20.5746 15.7981 20.6357 15.8585 20.697 15.9186C21.1919 16.4046 21.5577 16.893 21.8008 17.5468C21.8257 17.6123 21.8506 17.6777 21.8762 17.7451C22.1665 18.6562 22.0516 19.7175 21.658 20.5757C21.1373 21.5334 20.3699 22.1691 19.3399 22.5193C18.4469 22.7726 17.3462 22.723 16.5203 22.2866C16.4278 22.2324 16.3366 22.1759 16.2478 22.1159C16.0763 22.0412 15.9901 22.0699 15.8125 22.125C15.6126 22.2138 15.4177 22.3107 15.2217 22.4079C14.3074 22.7875 13.1585 22.7453 12.25 22.375C11.3113 21.9718 10.6144 21.225 10.2244 20.2883C10.1631 20.1096 10.1084 19.9332 10.0625 19.75C10.0506 19.7024 10.0387 19.6549 10.0264 19.6059C9.86864 18.5981 10.0398 17.5361 10.625 16.6875C11.0101 16.2305 11.4323 15.8066 11.8538 15.3835C11.8844 15.3528 11.9149 15.322 11.9464 15.2903C12.1077 15.1281 12.2692 14.966 12.4308 14.8042C12.5963 14.6383 12.7612 14.4719 12.926 14.3053C13.0544 14.1758 13.1831 14.0468 13.312 13.9178C13.3729 13.8566 13.4338 13.7953 13.4944 13.7338C14.6378 12.5759 16.5021 12.0308 17.8919 13.1798ZM14.0208 15.0854C13.9578 15.1482 13.8948 15.2109 13.8318 15.2736C13.7005 15.4044 13.5695 15.5354 13.4386 15.6666C13.2719 15.8337 13.1045 16.0001 12.9368 16.1663C12.8068 16.2954 12.6772 16.4249 12.5477 16.5546C12.4862 16.6161 12.4245 16.6774 12.3627 16.7386C11.7211 17.3745 11.3155 17.9463 11.2852 18.8711C11.2982 19.4424 11.4655 19.9195 11.8125 20.375C11.8647 20.4523 11.8647 20.4523 11.918 20.5312C12.3669 21.0166 12.9771 21.313 13.6348 21.3452C14.3465 21.3576 14.8555 21.1672 15.4219 20.7304C15.8361 20.4198 15.8361 20.4198 16.1201 20.4504C16.3617 20.5426 16.5532 20.7112 16.7564 20.8679C17.3642 21.3111 18.0169 21.4173 18.75 21.3125C19.4217 21.1392 19.9965 20.7479 20.3572 20.1521C20.7191 19.4668 20.8112 18.7962 20.5899 18.0429C20.3802 17.4047 19.8118 16.9158 19.3504 16.4521C19.288 16.3892 19.2257 16.3263 19.1634 16.2634C19.0335 16.1325 18.9033 16.0019 18.773 15.8714C18.6073 15.7053 18.4427 15.5383 18.2782 15.3711C18.1501 15.2411 18.0213 15.1118 17.8923 14.9827C17.8313 14.9215 17.7706 14.86 17.7102 14.7983C17.207 14.285 16.7238 13.9014 15.9832 13.8669C15.1242 13.9075 14.595 14.5102 14.0208 15.0854Z" fill="white"/>
<path d="M20.2617 6.73436C20.3422 6.80077 20.4217 6.86849 20.5 6.93748C20.538 6.9689 20.5759 7.00032 20.615 7.0327C21.0742 7.44468 21.3934 8.09329 21.4512 8.70808C21.497 9.69663 21.3882 10.5166 20.75 11.3125C20.2643 11.8057 19.7246 12.0675 19.0313 12.0937C18.4242 12.0721 17.873 11.8676 17.4375 11.4375C16.7047 10.5836 16.5439 9.71827 16.625 8.62498C16.7644 7.81121 17.2101 7.16892 17.875 6.68748C18.6231 6.26716 19.5437 6.2169 20.2617 6.73436ZM18.4002 7.96751C17.9931 8.40463 17.8992 8.83067 17.9163 9.42186C17.9639 9.87719 18.1029 10.1969 18.4453 10.5039C18.7239 10.7273 18.8845 10.7799 19.25 10.75C19.6874 10.5812 19.8581 10.2859 20.0625 9.87498C20.2138 9.4212 20.1981 8.83671 19.9961 8.40232C19.8126 8.09306 19.5981 7.82607 19.249 7.70701C18.8947 7.6421 18.6598 7.7269 18.4002 7.96751Z" fill="#FFC200"/>
<path d="M14.1641 6.72657C14.8147 7.19331 15.2314 7.8364 15.375 8.62501C15.4684 9.55921 15.3543 10.438 14.75 11.1875C14.3198 11.6743 13.8372 12.0149 13.1829 12.0823C12.4747 12.1083 11.9313 11.92 11.3931 11.4578C10.7755 10.8307 10.5404 10.0798 10.5312 9.21876C10.5396 8.36537 10.7689 7.70949 11.3477 7.07422C11.3979 7.02911 11.4482 6.98399 11.5 6.93751C11.5464 6.89497 11.5928 6.85243 11.6406 6.8086C12.4241 6.25659 13.3453 6.22096 14.1641 6.72657ZM12.1453 8.19629C11.8162 8.6584 11.8128 9.13118 11.875 9.68751C12.0102 10.1177 12.2461 10.4473 12.6172 10.707C12.8189 10.7723 12.9767 10.7718 13.1875 10.75C13.5936 10.5388 13.8849 10.2126 14.0308 9.77491C14.145 9.23526 14.11 8.71958 13.8125 8.25001C13.6257 7.98343 13.4546 7.76358 13.125 7.68751C12.6889 7.63159 12.4009 7.87157 12.1453 8.19629Z" fill="#FFC200"/>
<path d="M24.0891 11.5276C24.6514 11.9349 24.9896 12.508 25.125 13.1875C25.1759 14.0204 25.0696 14.6923 24.5625 15.375C24.2115 15.7623 23.8144 16.0271 23.2895 16.0862C22.6169 16.1086 22.169 15.9573 21.6782 15.4988C21.0927 14.8724 20.9516 14.2371 20.9785 13.4033C21.0199 12.7058 21.3028 12.1772 21.8049 11.7012C22.4671 11.1553 23.352 11.0896 24.0891 11.5276ZM22.5625 12.8125C22.3095 13.1354 22.2702 13.4789 22.2839 13.8806C22.3378 14.2234 22.5101 14.4439 22.7461 14.6875C22.9326 14.7779 23.0448 14.7828 23.25 14.75C23.5382 14.5691 23.6816 14.398 23.7827 14.0727C23.8831 13.6168 23.8144 13.2912 23.5893 12.8818C23.4761 12.7147 23.378 12.6309 23.1875 12.5625C22.8821 12.5625 22.7951 12.6187 22.5625 12.8125Z" fill="#FFC200"/>
<path d="M10.0742 11.6015C10.5999 12.0348 10.9416 12.5709 11.014 13.2574C11.067 14.0287 10.9855 14.7046 10.481 15.322C10.0192 15.8252 9.6415 16.0628 8.95314 16.0976C8.35163 16.0822 7.8887 15.8581 7.47267 15.4258C6.92252 14.7484 6.82798 14.0324 6.87502 13.1875C6.97149 12.5906 7.2796 12.0146 7.7588 11.6404C8.48306 11.155 9.33693 11.0881 10.0742 11.6015ZM8.50002 12.75C8.24449 13.127 8.11375 13.4834 8.18752 13.9375C8.24882 14.2159 8.34045 14.4284 8.5508 14.625C8.77609 14.7663 8.86547 14.804 9.12502 14.75C9.40746 14.5617 9.57975 14.3918 9.68752 14.0625C9.73972 13.6055 9.72999 13.1857 9.43752 12.8125C9.10845 12.5383 8.84507 12.4638 8.50002 12.75Z" fill="#FFC200"/>
<path d="M27.7696 7.53906C27.817 7.536 27.8645 7.53294 27.9134 7.52979C28.1389 7.57926 28.2279 7.70107 28.375 7.875C29.2836 9.3302 29.4435 11.1682 29.0699 12.8147C28.8387 13.7681 28.8387 13.7681 28.5117 14.0273C28.3058 14.0803 28.1498 14.0881 27.9375 14.0625C27.7518 13.951 27.5984 13.8217 27.5 13.625C27.4961 13.2541 27.5846 12.9085 27.6875 12.5547C28.0446 11.2916 27.8849 9.87653 27.2617 8.71875C27.1117 8.43621 27.0765 8.25597 27.125 7.9375C27.3069 7.65252 27.4368 7.5536 27.7696 7.53906Z" fill="white"/>
<path d="M8.74998 21.875C8.93884 22.0036 9.04311 22.0937 9.09031 22.3223C9.10314 22.5789 9.08353 22.7163 8.94529 22.9375C8.73638 23.1341 8.59631 23.14 8.31028 23.1338C8.14788 23.1222 8.063 23.107 7.93748 23C7.78576 22.7472 7.7244 22.5882 7.78513 22.2969C7.83689 22.1317 7.87098 22.0665 7.99607 21.9414C8.27172 21.7994 8.45007 21.8026 8.74998 21.875Z" fill="white"/>
</g>
<defs>
<clipPath id="clip0_79_30399">
<rect width="32" height="32" fill="white"/>
</clipPath>
</defs>
</svg>
