<svg width="56" height="38" viewBox="0 0 56 38" fill="none" xmlns="http://www.w3.org/2000/svg">
<path d="M36.9685 0.545044C37.1362 0.54017 37.3039 0.535295 37.4767 0.530273C38.9865 0.745695 39.9282 1.71888 40.9564 2.75743C41.1046 2.90452 41.2529 3.05161 41.4057 3.20316C41.8093 3.60427 42.2114 4.00686 42.6126 4.41031C43.0345 4.83392 43.458 5.25584 43.8813 5.67804C44.5916 6.38708 45.3004 7.09755 46.0085 7.80886C46.8249 8.62909 47.6439 9.44681 48.4641 10.2633C49.1706 10.9666 49.8757 11.6713 50.5797 12.3771C50.9992 12.7976 51.4191 13.2177 51.8403 13.6366C52.31 14.1039 52.7768 14.5741 53.2434 15.0445C53.451 15.25 53.451 15.25 53.6628 15.4597C54.5554 16.3658 55.2631 17.2148 55.4826 18.506C55.4809 18.669 55.4791 18.8321 55.4773 19.0001C55.4799 19.2447 55.4799 19.2447 55.4826 19.4943C55.2278 20.9936 54.2833 21.9263 53.2434 22.9558C53.0963 23.1041 52.9492 23.2524 52.7977 23.4051C52.3966 23.8088 51.994 24.2108 51.5905 24.612C51.1669 25.0339 50.745 25.4574 50.3228 25.8807C49.6138 26.591 48.9033 27.2998 48.192 28.0079C47.3717 28.8244 46.554 29.6433 45.7376 30.4635C45.0342 31.17 44.3295 31.8751 43.6237 32.5791C43.2032 32.9986 42.7831 33.4185 42.3642 33.8397C41.8969 34.3094 41.4268 34.7762 40.9564 35.2428C40.8193 35.3812 40.6823 35.5196 40.5412 35.6622C39.6351 36.5548 38.7861 37.2625 37.4949 37.4821C36.0559 37.4664 35.1494 37.2459 34.1111 36.2306C33.4223 35.2072 33.0164 34.1776 33.2195 32.922C33.6257 31.4135 34.7351 30.436 35.8164 29.3818C36.0044 29.1954 36.1922 29.0087 36.3799 28.8219C36.8708 28.3343 37.3642 27.8493 37.8582 27.3648C38.3633 26.8686 38.8659 26.3699 39.3687 25.8714C40.353 24.8963 41.34 23.9239 42.3288 22.9532C42.129 22.9528 41.9292 22.9524 41.7234 22.952C36.9782 22.9421 32.2331 22.9296 27.488 22.9139C26.9037 22.912 26.3194 22.91 25.7351 22.9081C25.6188 22.9078 25.5025 22.9074 25.3826 22.907C23.5002 22.9009 21.6178 22.8966 19.7354 22.893C17.8033 22.8893 15.8712 22.8836 13.9391 22.8761C12.8541 22.872 11.7691 22.8688 10.6841 22.8677C9.66275 22.8667 8.64141 22.8632 7.62005 22.858C7.24536 22.8565 6.87066 22.8558 6.49597 22.8561C5.98385 22.8564 5.47184 22.8535 4.95974 22.8499C4.73804 22.8512 4.73804 22.8512 4.51186 22.8524C3.19964 22.837 2.03597 22.5354 1.07883 21.5782C0.350889 20.5257 0.0897119 19.5892 0.219458 18.3126C0.462778 17.3411 0.863641 16.4648 1.70994 15.8795C2.48123 15.4181 3.1177 15.1985 4.00713 15.195C4.1444 15.1941 4.28168 15.1932 4.42311 15.1922C4.57292 15.192 4.72272 15.1919 4.87707 15.1917C5.03698 15.1908 5.19689 15.19 5.36164 15.1891C5.89869 15.1865 6.43572 15.185 6.97277 15.1836C7.35726 15.1819 7.74174 15.1802 8.12623 15.1784C9.17125 15.1738 10.2163 15.1702 11.2613 15.1667C12.353 15.163 13.4446 15.1583 14.5363 15.1537C16.369 15.1461 18.2017 15.139 20.0343 15.1325C21.922 15.1257 23.8097 15.1186 25.6973 15.111C25.8137 15.1105 25.93 15.1101 26.0499 15.1096C26.6337 15.1072 27.2174 15.1049 27.8011 15.1025C32.6437 15.0829 37.4863 15.0646 42.3288 15.047C42.2223 14.9424 42.1158 14.8378 42.0061 14.73C40.9999 13.7411 39.9959 12.7501 38.9941 11.7568C38.4791 11.2462 37.9633 10.7365 37.4456 10.2286C36.9456 9.73795 36.4477 9.24517 35.9512 8.75089C35.7619 8.56321 35.5719 8.37628 35.3811 8.19015C34.1775 7.01479 33.3394 6.14064 33.1443 4.41223C33.1917 3.40775 33.5278 2.42112 34.1903 1.6582C35.0362 0.900912 35.8217 0.560073 36.9685 0.545044Z" fill="#FFC200"/>
</svg>
