<svg width="88" height="88" viewBox="0 0 88 88" fill="none" xmlns="http://www.w3.org/2000/svg">
<path d="M66.1395 5.27447C66.3207 5.27531 66.5019 5.27616 66.6885 5.27703C70.8029 5.33861 73.9436 6.95394 76.828 9.79693C76.9432 9.90992 77.0584 10.0229 77.1771 10.1393C78.9425 12.009 79.9447 14.4531 80.3837 16.9512C80.4042 17.0669 80.4248 17.1826 80.446 17.3019C80.8939 20.128 80.8068 23.0302 80.8061 25.8817C80.8066 26.3188 80.8072 26.7559 80.8078 27.193C80.8092 28.2507 80.8097 29.3083 80.8098 30.366C80.8099 31.2274 80.8103 32.0889 80.8108 32.9504C80.8123 35.4033 80.8131 37.8562 80.813 40.3091C80.813 40.5067 80.813 40.5067 80.813 40.7082C80.813 40.8401 80.813 40.972 80.813 41.1079C80.8129 43.2421 80.8145 45.3763 80.817 47.5105C80.8194 49.7121 80.8206 51.9137 80.8205 54.1153C80.8204 55.3473 80.8209 56.5792 80.8227 57.8111C80.8245 58.9713 80.8244 60.1315 80.8232 61.2917C80.823 61.714 80.8234 62.1362 80.8244 62.5585C80.8506 73.8338 80.8506 73.8338 76.9999 78.0313C76.8878 78.1591 76.7757 78.287 76.6602 78.4187C74.2151 81.0515 70.9003 82.5498 67.3259 82.727C65.2606 82.782 63.231 82.6205 61.1827 82.3751C60.9194 82.3443 60.6561 82.3134 60.3927 82.2826C57.4281 81.9335 54.4682 81.5477 51.5087 81.158C51.2157 81.1195 50.9228 81.0809 50.6298 81.0424C49.2566 80.8619 47.8835 80.6809 46.5104 80.4993C44.9449 80.2922 43.3792 80.0868 41.8133 79.883C40.5867 79.7231 39.3603 79.5617 38.134 79.399C37.4082 79.3028 36.6823 79.2072 35.9561 79.1133C30.3542 78.3884 25.2631 77.6133 21.4198 73.0684C18.9505 69.7531 17.8212 65.8419 18.2186 61.7032C18.4488 60.5896 18.9001 59.8592 19.7863 59.1519C20.8277 58.511 21.8369 58.4854 23.0311 58.6094C24.0424 58.9012 24.6771 59.454 25.2655 60.3282C25.7209 61.3539 25.8458 62.1798 25.8563 63.293C25.9175 65.1432 26.2256 66.6822 27.4536 68.1277C27.6718 68.4063 27.6718 68.4063 27.8436 68.9219C28.1565 69.1049 28.1565 69.1049 28.5311 69.2657C28.9269 69.519 29.3211 69.7744 29.7134 70.0331C31.3306 70.8285 33.1617 70.985 34.9278 71.2127C35.2045 71.2494 35.4811 71.2862 35.7577 71.3231C36.5041 71.4222 37.2507 71.5198 37.9973 71.6171C38.7828 71.7197 39.5682 71.8237 40.3535 71.9276C41.6731 72.102 42.9927 72.2754 44.3125 72.4481C46.1648 72.6905 48.0168 72.9347 49.8688 73.1791C51.3164 73.3702 52.764 73.5607 54.2117 73.7512C54.4417 73.7815 54.4417 73.7815 54.6765 73.8124C55.5643 73.9292 56.4522 74.0458 57.3401 74.162C57.6072 74.197 57.8742 74.2321 58.1413 74.2672C59.5072 74.4468 60.8736 74.6212 62.2416 74.7846C62.3598 74.7989 62.4781 74.8132 62.5999 74.8279C65.6371 75.1858 68.346 75.3733 70.8486 73.441C72.6017 71.8618 72.8942 69.7791 73.0468 67.5469C73.0689 66.8812 73.0707 66.2163 73.0697 65.5502C73.0701 65.3582 73.0705 65.1663 73.0709 64.9684C73.072 64.3299 73.0719 63.6914 73.0717 63.0529C73.0722 62.5931 73.0728 62.1333 73.0735 61.6735C73.0749 60.557 73.0754 59.4404 73.0755 58.3238C73.0755 57.4154 73.0759 56.5069 73.0764 55.5984C73.078 53.0175 73.0788 50.4365 73.0786 47.8556C73.0786 47.7167 73.0786 47.5778 73.0786 47.4347C73.0786 47.2957 73.0786 47.1567 73.0786 47.0134C73.0785 44.7614 73.0802 42.5094 73.0826 40.2574C73.0851 37.9398 73.0862 35.6223 73.0861 33.3048C73.086 32.0058 73.0865 30.7068 73.0884 29.4077C73.0899 28.3015 73.0903 27.1953 73.0891 26.0891C73.0886 25.5259 73.0887 24.9627 73.09 24.3995C73.2813 19.1436 73.2813 19.1436 70.9312 14.6678C68.9058 12.907 66.9439 12.846 64.3535 13.0045C62.9145 13.1059 61.485 13.3043 60.0547 13.4889C59.6982 13.5343 59.3415 13.5796 58.9849 13.6249C57.771 13.7795 56.5573 13.9366 55.3436 14.0938C55.0024 14.1379 54.6612 14.182 54.3199 14.2261C51.4483 14.5973 48.5772 14.9729 45.7067 15.3529C44.2614 15.5442 42.816 15.7342 41.3703 15.9225C40.3326 16.0578 39.295 16.1946 38.2576 16.3325C37.6458 16.4138 37.0338 16.4944 36.4217 16.5734C35.7453 16.6608 35.0692 16.7512 34.3932 16.8419C34.0993 16.8791 34.0993 16.8791 33.7994 16.9171C31.9456 17.1706 30.1901 17.5548 28.6694 18.6881C28.3593 18.9063 28.3593 18.9063 27.8436 19.0782C27.662 19.3948 27.662 19.3948 27.4999 19.7657C27.3337 20.0035 27.1653 20.2398 26.995 20.4747C26.0964 21.8335 25.9326 23.0667 25.8778 24.6641C25.8276 26.0306 25.759 27.265 24.811 28.3346C23.7931 29.2682 22.8478 29.4712 21.4856 29.4444C20.4586 29.3377 19.8384 28.9425 19.1102 28.2305C18.3711 27.1323 18.1332 26.1272 18.1649 24.8145C18.167 24.6797 18.169 24.545 18.1712 24.4061C18.2724 20.1709 19.7396 16.5586 22.7189 13.5419C25.8351 10.6424 29.6654 9.71727 33.7527 9.18958C34.0405 9.15122 34.3282 9.11273 34.616 9.07411C35.3889 8.97077 36.1621 8.86939 36.9354 8.76842C37.7507 8.66162 38.5659 8.55309 39.3811 8.44478C40.7499 8.26316 42.1189 8.08273 43.488 7.90312C45.2354 7.67387 46.9824 7.44266 48.7294 7.21081C50.2433 7.00991 51.7574 6.80995 53.2715 6.61012C53.7523 6.54663 54.2331 6.483 54.7138 6.41936C63.4851 5.25919 63.4851 5.25919 66.1395 5.27447Z" fill="#1C48C1"/>
<path d="M43.9685 25.545C44.1362 25.5402 44.3039 25.5353 44.4767 25.5303C45.9865 25.7457 46.9282 26.7189 47.9564 27.7574C48.1046 27.9045 48.2529 28.0516 48.4057 28.2032C48.8093 28.6043 49.2114 29.0069 49.6126 29.4103C50.0345 29.8339 50.458 30.2558 50.8813 30.678C51.5916 31.3871 52.3004 32.0976 53.0085 32.8089C53.8249 33.6291 54.6439 34.4468 55.4641 35.2633C56.1706 35.9666 56.8757 36.6713 57.5797 37.3771C57.9992 37.7976 58.4191 38.2177 58.8403 38.6366C59.31 39.1039 59.7768 39.5741 60.2434 40.0445C60.451 40.25 60.451 40.25 60.6628 40.4597C61.5554 41.3658 62.2631 42.2148 62.4826 43.506C62.4809 43.669 62.4791 43.8321 62.4773 44.0001C62.4799 44.2447 62.4799 44.2447 62.4826 44.4943C62.2278 45.9936 61.2833 46.9263 60.2434 47.9558C60.0963 48.1041 59.9492 48.2524 59.7977 48.4051C59.3966 48.8088 58.994 49.2108 58.5905 49.612C58.1669 50.0339 57.745 50.4574 57.3228 50.8807C56.6138 51.591 55.9033 52.2998 55.192 53.0079C54.3717 53.8244 53.554 54.6433 52.7376 55.4635C52.0342 56.17 51.3295 56.8751 50.6237 57.5791C50.2032 57.9986 49.7831 58.4185 49.3642 58.8397C48.8969 59.3094 48.4268 59.7762 47.9564 60.2428C47.8193 60.3812 47.6823 60.5196 47.5412 60.6622C46.6351 61.5548 45.7861 62.2625 44.4949 62.4821C43.0559 62.4664 42.1494 62.2459 41.1111 61.2306C40.4223 60.2072 40.0164 59.1776 40.2195 57.922C40.6257 56.4135 41.7351 55.436 42.8164 54.3818C43.0044 54.1954 43.1922 54.0087 43.3799 53.8219C43.8708 53.3343 44.3642 52.8493 44.8582 52.3648C45.3633 51.8686 45.8659 51.3699 46.3687 50.8714C47.353 49.8963 48.34 48.9239 49.3288 47.9532C49.129 47.9528 48.9292 47.9524 48.7234 47.952C43.9782 47.9421 39.2331 47.9296 34.488 47.9139C33.9037 47.912 33.3194 47.91 32.7351 47.9081C32.6188 47.9078 32.5025 47.9074 32.3826 47.907C30.5002 47.9009 28.6178 47.8966 26.7354 47.893C24.8033 47.8893 22.8712 47.8836 20.9391 47.8761C19.8541 47.872 18.7691 47.8688 17.6841 47.8677C16.6627 47.8667 15.6414 47.8632 14.62 47.858C14.2454 47.8565 13.8707 47.8558 13.496 47.8561C12.9839 47.8564 12.4718 47.8535 11.9597 47.8499C11.738 47.8512 11.738 47.8512 11.5119 47.8524C10.1996 47.837 9.03597 47.5354 8.07883 46.5782C7.35089 45.5257 7.08971 44.5892 7.21946 43.3126C7.46278 42.3411 7.86364 41.4648 8.70994 40.8795C9.48123 40.4181 10.1177 40.1985 11.0071 40.195C11.1444 40.1941 11.2817 40.1932 11.4231 40.1922C11.5729 40.192 11.7227 40.1919 11.8771 40.1917C12.037 40.1908 12.1969 40.19 12.3616 40.1891C12.8987 40.1865 13.4357 40.185 13.9728 40.1836C14.3573 40.1819 14.7417 40.1802 15.1262 40.1784C16.1713 40.1738 17.2163 40.1702 18.2613 40.1667C19.353 40.163 20.4446 40.1583 21.5363 40.1537C23.369 40.1461 25.2017 40.139 27.0343 40.1325C28.922 40.1257 30.8097 40.1186 32.6973 40.111C32.8137 40.1105 32.93 40.1101 33.0499 40.1096C33.6337 40.1072 34.2174 40.1049 34.8011 40.1025C39.6437 40.0829 44.4863 40.0646 49.3288 40.047C49.2223 39.9424 49.1158 39.8378 49.0061 39.73C47.9999 38.7411 46.9959 37.7501 45.9941 36.7568C45.4791 36.2462 44.9633 35.7365 44.4456 35.2286C43.9456 34.7379 43.4477 34.2452 42.9512 33.7509C42.7619 33.5632 42.5719 33.3763 42.3811 33.1902C41.1775 32.0148 40.3394 31.1406 40.1443 29.4122C40.1917 28.4078 40.5278 27.4211 41.1903 26.6582C42.0362 25.9009 42.8217 25.5601 43.9685 25.545Z" fill="#FFC200"/>
</svg>
