<svg width="63" height="78" viewBox="0 0 63 78" fill="none" xmlns="http://www.w3.org/2000/svg">
<path d="M48.1395 0.274468C48.3207 0.275313 48.5019 0.276158 48.6885 0.277028C52.8029 0.338607 55.9436 1.95394 58.828 4.79693C58.9432 4.90992 59.0584 5.02292 59.1771 5.13934C60.9425 7.00901 61.9447 9.45306 62.3837 11.9512C62.4042 12.0669 62.4248 12.1826 62.446 12.3019C62.8939 15.128 62.8068 18.0302 62.8061 20.8817C62.8066 21.3188 62.8072 21.7559 62.8078 22.193C62.8092 23.2507 62.8097 24.3083 62.8098 25.366C62.8099 26.2274 62.8103 27.0889 62.8108 27.9504C62.8123 30.4033 62.8131 32.8562 62.813 35.3091C62.813 35.5067 62.813 35.5067 62.813 35.7082C62.813 35.8401 62.813 35.972 62.813 36.1079C62.8129 38.2421 62.8145 40.3763 62.817 42.5105C62.8194 44.7121 62.8206 46.9137 62.8205 49.1153C62.8204 50.3473 62.8209 51.5792 62.8227 52.8111C62.8245 53.9713 62.8244 55.1315 62.8232 56.2917C62.823 56.714 62.8234 57.1362 62.8244 57.5585C62.8506 68.8338 62.8506 68.8338 58.9999 73.0313C58.8878 73.1591 58.7757 73.287 58.6602 73.4187C56.2151 76.0515 52.9003 77.5498 49.3259 77.727C47.2606 77.782 45.231 77.6205 43.1827 77.3751C42.9194 77.3443 42.6561 77.3134 42.3927 77.2826C39.4281 76.9335 36.4682 76.5477 33.5087 76.158C33.2157 76.1195 32.9228 76.0809 32.6298 76.0424C31.2566 75.8619 29.8835 75.6809 28.5104 75.4993C26.9449 75.2922 25.3792 75.0868 23.8133 74.883C22.5867 74.7231 21.3603 74.5617 20.134 74.399C19.4082 74.3028 18.6823 74.2072 17.9561 74.1133C12.3542 73.3884 7.26314 72.6133 3.4198 68.0684C0.950521 64.7531 -0.178781 60.8419 0.218627 56.7032C0.448796 55.5896 0.900097 54.8592 1.78631 54.1519C2.82774 53.511 3.83689 53.4854 5.03113 53.6094C6.04236 53.9012 6.67711 54.454 7.2655 55.3282C7.72086 56.3539 7.84579 57.1798 7.85632 58.293C7.91748 60.1432 8.22563 61.6822 9.45355 63.1277C9.67175 63.4063 9.67175 63.4063 9.84363 63.9219C10.1565 64.1049 10.1565 64.1049 10.5311 64.2657C10.9269 64.519 11.3211 64.7744 11.7134 65.0331C13.3306 65.8285 15.1617 65.985 16.9278 66.2127C17.2045 66.2494 17.4811 66.2862 17.7577 66.3231C18.5041 66.4222 19.2507 66.5198 19.9973 66.6171C20.7828 66.7197 21.5682 66.8237 22.3535 66.9276C23.6731 67.102 24.9927 67.2754 26.3125 67.4481C28.1648 67.6905 30.0168 67.9347 31.8688 68.1791C33.3164 68.3702 34.764 68.5607 36.2117 68.7512C36.4417 68.7815 36.4417 68.7815 36.6765 68.8124C37.5643 68.9292 38.4522 69.0458 39.3401 69.162C39.6072 69.197 39.8742 69.2321 40.1413 69.2672C41.5072 69.4468 42.8736 69.6212 44.2416 69.7846C44.3598 69.7989 44.4781 69.8132 44.5999 69.8279C47.6371 70.1858 50.346 70.3733 52.8486 68.441C54.6017 66.8618 54.8942 64.7791 55.0468 62.5469C55.0689 61.8812 55.0707 61.2163 55.0697 60.5502C55.0701 60.3582 55.0705 60.1663 55.0709 59.9684C55.072 59.3299 55.0719 58.6914 55.0717 58.0529C55.0722 57.5931 55.0728 57.1333 55.0735 56.6735C55.0749 55.557 55.0754 54.4404 55.0755 53.3238C55.0755 52.4154 55.0759 51.5069 55.0764 50.5984C55.078 48.0175 55.0788 45.4365 55.0786 42.8556C55.0786 42.7167 55.0786 42.5778 55.0786 42.4347C55.0786 42.2957 55.0786 42.1567 55.0786 42.0134C55.0785 39.7614 55.0802 37.5094 55.0826 35.2574C55.0851 32.9398 55.0862 30.6223 55.0861 28.3048C55.086 27.0058 55.0865 25.7068 55.0884 24.4077C55.0899 23.3015 55.0903 22.1953 55.0891 21.0891C55.0886 20.5259 55.0887 19.9627 55.09 19.3995C55.2813 14.1436 55.2813 14.1436 52.9312 9.66784C50.9058 7.90697 48.9439 7.84597 46.3535 8.00445C44.9145 8.10591 43.485 8.30429 42.0547 8.48889C41.6982 8.53426 41.3415 8.57958 40.9849 8.62486C39.771 8.7795 38.5573 8.93659 37.3436 9.09381C37.0024 9.13791 36.6612 9.18201 36.3199 9.2261C33.4483 9.5973 30.5772 9.9729 27.7067 10.3529C26.2614 10.5442 24.816 10.7342 23.3703 10.9225C22.3326 11.0578 21.295 11.1946 20.2576 11.3325C19.6458 11.4138 19.0338 11.4944 18.4217 11.5734C17.7453 11.6608 17.0692 11.7512 16.3932 11.8419C16.0993 11.8791 16.0993 11.8791 15.7994 11.9171C13.9456 12.1706 12.1901 12.5548 10.6694 13.6881C10.3593 13.9063 10.3593 13.9063 9.84363 14.0782C9.66195 14.3948 9.66195 14.3948 9.49988 14.7657C9.33375 15.0035 9.1653 15.2398 8.99499 15.4747C8.09644 16.8335 7.93262 18.0667 7.87781 19.6641C7.82763 21.0306 7.75895 22.265 6.81097 23.3346C5.79309 24.2682 4.84784 24.4712 3.48559 24.4444C2.45858 24.3377 1.83839 23.9425 1.11023 23.2305C0.371058 22.1323 0.133207 21.1272 0.164916 19.8145C0.166979 19.6797 0.169042 19.545 0.171168 19.4061C0.272366 15.1709 1.73957 11.5586 4.71893 8.54193C7.83513 5.64236 11.6654 4.71727 15.7527 4.18958C16.0405 4.15122 16.3282 4.11273 16.616 4.07411C17.3889 3.97077 18.1621 3.86939 18.9354 3.76842C19.7507 3.66162 20.5659 3.55309 21.3811 3.44478C22.7499 3.26316 24.1189 3.08273 25.488 2.90312C27.2354 2.67387 28.9824 2.44266 30.7294 2.21081C32.2433 2.00991 33.7574 1.80995 35.2715 1.61012C35.7523 1.54663 36.2331 1.483 36.7138 1.41936C45.4851 0.259189 45.4851 0.259189 48.1395 0.274468Z" fill="#1C48C1"/>
</svg>
