<svg width="60" height="60" viewBox="0 0 60 60" fill="none" xmlns="http://www.w3.org/2000/svg">
<g opacity="0.4" clip-path="url(#clip0_294_7614)">
<path d="M40.752 40.5709C39.7679 40.5117 37.4018 40.6519 35.0321 41.1021C33.6614 39.7147 32.4744 37.967 31.5938 36.5256C34.4155 28.4125 32.6285 26.1064 30.2231 26.1064C28.3341 26.1064 27.391 28.0999 27.6009 30.3023C27.7071 31.4111 28.646 33.7406 29.8017 35.9535C29.0927 37.8182 27.8274 40.9698 26.5715 43.2506C25.1014 43.6973 23.8405 44.1938 22.9356 44.6126C18.4279 46.7088 18.0657 49.5079 19.0037 50.6939C20.7846 52.947 24.579 51.003 28.3864 44.1938C30.993 43.4525 34.4225 42.465 34.7316 42.465C34.7673 42.465 34.8161 42.4764 34.8727 42.4946C36.7729 44.1702 39.0172 46.0888 40.8643 46.3413C43.5371 46.7088 45.0586 44.7703 44.9531 43.5649C44.8486 42.3588 44.144 40.7746 40.752 40.5709ZM23.8788 47.9157C22.7771 49.2257 20.9953 50.4821 20.3665 50.0643C19.7368 49.6454 19.6323 48.44 21.0484 47.0763C22.4635 45.7143 24.8323 45.0071 25.1885 44.8747C25.6092 44.718 25.7137 44.8747 25.7137 45.0846C25.7137 45.2945 24.9795 46.6043 23.8788 47.9157ZM28.7025 30.3014C28.5971 28.9898 28.8583 27.7324 29.96 27.5756C31.0599 27.4172 31.5852 28.6755 31.1661 30.7195C30.7463 32.7661 30.5356 34.1273 30.3266 34.2867C30.1168 34.4435 29.9086 33.9183 29.9086 33.9183C29.4881 33.0786 28.807 31.6112 28.7025 30.3014ZM29.1222 42.6209C29.6979 41.6759 31.1662 37.8511 31.1662 37.8511C31.4806 38.4284 33.9434 41.3616 33.9434 41.3616C33.9434 41.3616 30.1691 42.202 29.1222 42.6209ZM40.5473 44.2964C38.9754 44.0892 36.3027 42.1993 36.3027 42.1993C35.9361 42.0427 39.2314 41.595 40.4968 41.676C42.1228 41.7814 42.6992 42.4632 42.6992 43.1443C42.6992 43.8261 42.1228 44.5064 40.5473 44.2964Z" fill="#666666"/>
<path d="M54.0625 12.6164L42.5382 1.09125L41.4469 0H39.902H16.3996C10.8504 0 6.33586 4.51547 6.33586 10.0665V10.8364H4.8457V22.8755H6.33586V49.9345C6.33586 55.4846 10.8505 60.0001 16.3997 60.0001H45.0881C50.6391 60.0001 55.1537 55.4846 55.1537 49.9345V15.2525V13.7085L54.0625 12.6164ZM45.088 56.2726H16.3996C12.8986 56.2726 10.0614 53.4353 10.0614 49.9344V22.8754H28.4961V10.8363H10.0614V10.0664C10.0614 6.56461 12.8986 3.72633 16.3996 3.72633H39.0102V10.8623C39.0102 13.7789 41.3763 16.1434 44.2929 16.1434H51.428V49.9343C51.428 53.4354 48.5898 56.2726 45.088 56.2726ZM10.3227 19.4632V13.8905C10.3227 13.7921 10.4027 13.7119 10.5013 13.7119H12.2718C12.5636 13.7119 12.8326 13.7598 13.073 13.8539C13.3107 13.9471 13.5197 14.0777 13.6939 14.2432C13.8698 14.4095 14.0048 14.6116 14.0963 14.8433C14.1877 15.0705 14.2348 15.3189 14.2348 15.5809C14.2348 15.8483 14.1877 16.0982 14.0953 16.3229C14.0039 16.5477 13.8689 16.747 13.6948 16.9152C13.5214 17.0824 13.3116 17.2139 13.0712 17.3053C12.8326 17.3967 12.5636 17.4429 12.2718 17.4429H11.5246V19.4633C11.5246 19.5618 11.4445 19.6418 11.3461 19.6418H10.5014C10.4027 19.6418 10.3227 19.5616 10.3227 19.4632ZM15.783 19.4632V13.8905C15.783 13.7921 15.8632 13.7119 15.9616 13.7119H17.9184C18.2903 13.7119 18.6178 13.7737 18.8939 13.8956C19.1735 14.0201 19.4234 14.2179 19.6377 14.4826C19.7483 14.622 19.8362 14.7761 19.8997 14.9415C19.9616 15.1027 20.0086 15.2769 20.0391 15.458C20.0687 15.6374 20.0861 15.8307 20.0921 16.0389C20.0974 16.2374 20.1 16.4508 20.1 16.6772C20.1 16.9027 20.0974 17.1162 20.0921 17.3147C20.0861 17.522 20.0687 17.7162 20.0391 17.8964C20.0086 18.0776 19.9616 18.2509 19.8997 18.4119C19.8353 18.5791 19.7474 18.7334 19.6384 18.87C19.4225 19.1374 19.1725 19.3351 18.8938 19.4578C18.6203 19.5797 18.292 19.6416 17.9183 19.6416H15.9615C15.8631 19.6418 15.783 19.5616 15.783 19.4632ZM25.1093 16.1696C25.2077 16.1696 25.2878 16.2498 25.2878 16.3482V17.1076C25.2878 17.2061 25.2077 17.2862 25.1093 17.2862H22.9713V19.4634C22.9713 19.5619 22.8912 19.6419 22.7927 19.6419H21.9479C21.8495 19.6419 21.7695 19.5619 21.7695 19.4634V13.8907C21.7695 13.7924 21.8495 13.7121 21.9479 13.7121H25.1885C25.2868 13.7121 25.3671 13.7923 25.3671 13.8907V14.6501C25.3671 14.7485 25.287 14.8287 25.1885 14.8287H22.9713V16.1698L25.1093 16.1696Z" fill="#666666"/>
<path d="M12.823 16.1376C12.965 16.0096 13.0337 15.8276 13.0337 15.5811C13.0337 15.3354 12.9649 15.1535 12.823 15.0255C12.675 14.8931 12.4799 14.8286 12.2256 14.8286H11.5254V16.3342H12.2256C12.4798 16.3344 12.675 16.27 12.823 16.1376Z" fill="#666666"/>
<path d="M18.2966 18.455C18.4291 18.4053 18.5431 18.3253 18.645 18.2103C18.7557 18.0867 18.8253 17.909 18.8523 17.6817C18.8828 17.4229 18.8976 17.0851 18.8976 16.6775C18.8976 16.2691 18.8828 15.9312 18.8523 15.6733C18.8253 15.4453 18.7557 15.2676 18.6459 15.1448C18.544 15.0297 18.4264 14.9481 18.2976 14.9C18.1591 14.8469 18.0006 14.8208 17.8239 14.8208H16.9844V18.5333H17.8239C17.9997 18.5334 18.1591 18.5073 18.2966 18.455Z" fill="#666666"/>
</g>
<defs>
<clipPath id="clip0_294_7614">
<rect width="60" height="60" fill="white"/>
</clipPath>
</defs>
</svg>
