<svg width="28" height="28" viewBox="0 0 28 28" fill="none" xmlns="http://www.w3.org/2000/svg">
<path d="M14.187 12.6813C14.0703 12.6697 13.9303 12.6697 13.802 12.6813C11.0253 12.588 8.82031 10.313 8.82031 7.51301C8.82031 4.65467 11.1303 2.33301 14.0003 2.33301C16.8586 2.33301 19.1803 4.65467 19.1803 7.51301C19.1686 10.313 16.9636 12.588 14.187 12.6813Z" stroke="#FFC200" stroke-width="1.5" stroke-linecap="round" stroke-linejoin="round"/>
<path d="M8.35285 16.987C5.52952 18.877 5.52952 21.957 8.35285 23.8353C11.5612 25.982 16.8229 25.982 20.0312 23.8353C22.8545 21.9453 22.8545 18.8653 20.0312 16.987C16.8345 14.852 11.5729 14.852 8.35285 16.987Z" stroke="#1C48C1" stroke-width="1.5" stroke-linecap="round" stroke-linejoin="round"/>
</svg>
