<svg width="8" height="6" viewBox="0 0 8 6" fill="none" xmlns="http://www.w3.org/2000/svg">
<path d="M6.68703 0.9379C6.87771 1.03739 6.97381 1.1088 7.04128 1.31632C7.085 1.57347 7.09307 1.69634 6.959 1.92984C6.79933 2.14231 6.63168 2.34362 6.45656 2.54337C6.38928 2.62095 6.32206 2.69859 6.2549 2.77628C6.22201 2.81433 6.18912 2.85237 6.15523 2.89157C5.9802 3.09596 5.81148 3.30544 5.64186 3.51432C5.45312 3.7445 5.2604 3.97118 5.06752 4.1979C4.88436 4.41363 4.70471 4.63179 4.52687 4.85196C3.66364 5.91153 3.66364 5.91153 3.28078 5.97306C2.88828 5.96532 2.65229 5.68704 2.37453 5.4379C2.2647 5.34371 2.15432 5.25019 2.04392 5.15667C1.93035 5.05996 1.8178 4.96216 1.70534 4.86417C1.58403 4.75894 1.46269 4.65984 1.33474 4.56241C1.10276 4.38333 0.972961 4.26082 0.921406 3.96524C0.913297 3.6862 1.00233 3.52399 1.18703 3.3129C1.41311 3.19986 1.62905 3.19906 1.87453 3.2504C2.10572 3.39146 2.29907 3.5692 2.49953 3.7504C2.612 3.84641 2.72526 3.94151 2.83937 4.03556C2.88957 4.07818 2.93976 4.1208 2.99147 4.16471C3.03538 4.19299 3.07929 4.22127 3.12453 4.2504C3.35676 4.17299 3.41169 4.08227 3.56203 3.89103C3.61182 3.82867 3.66161 3.76631 3.71291 3.70206C3.73928 3.66897 3.76564 3.63588 3.7928 3.60178C3.92911 3.4327 4.06977 3.26739 4.21047 3.10196C4.23918 3.06812 4.26789 3.03427 4.29747 2.99939C4.41507 2.86078 4.53281 2.72228 4.65053 2.58377C4.73827 2.4805 4.82595 2.37719 4.91359 2.27384C4.94195 2.24042 4.9703 2.207 4.99952 2.17257C5.23328 1.89629 5.46188 1.61612 5.68874 1.33414C6.0077 0.955805 6.18024 0.82431 6.68703 0.9379Z" fill="#9E9E9E"/>
</svg>
