<svg width="33" height="32" viewBox="0 0 33 32" fill="none" xmlns="http://www.w3.org/2000/svg">
<path d="M16.11 9.52222C14.348 9.52222 12.6929 10.2073 11.4509 11.4511C10.2062 12.6949 9.52026 14.3491 9.52026 16.1103C9.52026 17.8698 10.2053 19.5249 11.4509 20.7703C12.6955 22.0141 14.3497 22.6992 16.11 22.6992C17.8696 22.6992 19.5246 22.0141 20.7692 20.7703C22.0139 19.5248 22.699 17.8698 22.699 16.1103C22.699 14.3499 22.014 12.695 20.7702 11.452C19.5263 10.2073 17.8712 9.52222 16.11 9.52222ZM19.9729 19.9731C18.9406 21.0046 17.5695 21.5726 16.11 21.5726C14.6514 21.5726 13.2786 21.0046 12.2472 19.9731C11.2149 18.9417 10.6469 17.5698 10.6469 16.1103C10.6469 14.6508 11.2148 13.2789 12.2472 12.2483C13.2786 11.216 14.6514 10.6481 16.11 10.6481C17.5695 10.6481 18.9406 11.216 19.9729 12.2483C21.0044 13.2789 21.5723 14.6508 21.5723 16.1103C21.5724 17.5698 21.0044 18.9417 19.9729 19.9731Z" fill="#1E3A5F"/>
<path d="M31.3113 13.9514L27.7999 13.4425C27.5799 13.4257 27.3904 13.2875 27.3052 13.0827L26.1676 10.3364C26.0825 10.1325 26.1178 9.89991 26.2619 9.73303L28.3619 6.91088C28.6965 6.519 28.6746 5.93663 28.3098 5.57269L26.648 3.91088C26.4567 3.71869 26.204 3.62184 25.9511 3.62184C25.7236 3.62184 25.4952 3.70022 25.3106 3.85866L22.4876 5.9595C22.3807 6.05138 22.245 6.09938 22.1085 6.09938C22.0327 6.09938 21.9568 6.08419 21.8852 6.05475L19.1372 4.91541C18.9341 4.83197 18.795 4.63978 18.7774 4.42153L18.2676 0.910126C18.228 0.396001 17.7998 0 17.2858 0H14.9347C14.4199 0 13.9917 0.396001 13.9522 0.910126L13.4415 4.42153C13.4247 4.63978 13.2864 4.83197 13.0825 4.91616L10.3345 6.05466C10.2621 6.08409 10.1862 6.09928 10.1105 6.09928C9.97397 6.09928 9.83906 6.05128 9.73125 5.95941L6.90994 3.85941C6.72534 3.70097 6.49706 3.62175 6.27038 3.62175C6.01669 3.62175 5.76394 3.71953 5.57175 3.91162L3.90994 5.57259C3.54591 5.93747 3.52406 6.51891 3.85772 6.91078L5.95772 9.73294C6.10012 9.89972 6.13716 10.1323 6.05297 10.3363L4.91447 13.0835C4.83188 13.2874 4.63969 13.4257 4.42153 13.4424L0.908343 13.9523C0.396093 13.9928 0 14.4208 0 14.9357V17.2851C0 17.8009 0.396093 18.2289 0.908343 18.2692L4.42153 18.7783C4.63978 18.796 4.83197 18.9351 4.91447 19.1381L6.05297 21.886C6.138 22.0883 6.10012 22.3225 5.95772 22.4894L3.85772 25.3116C3.52406 25.7017 3.54591 26.2849 3.90994 26.6489L5.57175 28.3107C5.76394 28.5028 6.01669 28.5997 6.26953 28.5997C6.49706 28.5997 6.72544 28.5213 6.91003 28.3628L9.73134 26.262C9.83916 26.1701 9.97406 26.123 10.1106 26.123C10.1864 26.123 10.2622 26.1372 10.3346 26.1676L13.0824 27.3063C13.2863 27.3906 13.4255 27.581 13.4422 27.8009L13.9521 31.3124C13.9916 31.8247 14.4198 32.2216 14.9347 32.2216H17.2857C17.8006 32.2216 18.2278 31.8247 18.2683 31.3124L18.7773 27.8009C18.795 27.5811 18.934 27.3907 19.1371 27.3063L21.8851 26.1678C21.9576 26.1374 22.0333 26.1232 22.1092 26.1232C22.2457 26.1232 22.3814 26.1703 22.4884 26.2622L25.3105 28.363C25.4951 28.5215 25.7234 28.5998 25.951 28.5998C26.2039 28.5998 26.4566 28.5029 26.6479 28.3109L28.3097 26.6491C28.6753 26.2851 28.6964 25.7018 28.3618 25.3118L26.2618 22.4896C26.1203 22.3227 26.0824 22.0884 26.1675 21.8862L27.3051 19.1383C27.3903 18.9352 27.5798 18.7961 27.7998 18.7785L31.3112 18.2694C31.8244 18.229 32.2205 17.801 32.2205 17.2869V14.9359C32.2206 14.4208 31.8245 13.9928 31.3113 13.9514ZM31.0939 17.162L27.6651 17.6592C27.0423 17.7258 26.5097 18.1227 26.2645 18.7075L25.1277 21.4512C24.8842 22.0343 24.9794 22.6934 25.3746 23.1838L27.4257 25.9402L25.9392 27.4267L23.1837 25.3756C22.8803 25.1303 22.5003 24.9955 22.1092 24.9955C21.8809 24.9955 21.6585 25.041 21.4545 25.127L18.704 26.2662C18.1217 26.5089 17.7248 27.0423 17.6582 27.6659L17.1611 31.0947H15.0594L14.5614 27.6667C14.4957 27.0431 14.0996 26.5089 13.514 26.2645L10.7693 25.1286C10.5595 25.0401 10.3379 24.9954 10.1105 24.9954C9.72112 24.9954 9.34191 25.1302 9.03769 25.3746L6.28041 27.4265L4.79475 25.9401L6.84506 23.1836C7.24106 22.6931 7.33631 22.0333 7.09369 21.4543L5.95772 18.7123C5.71837 18.1258 5.18409 17.7263 4.55709 17.6589L1.12659 17.1617V15.0583L4.5555 14.5612C5.18494 14.4954 5.72006 14.0943 5.95509 13.5145L7.09191 10.7708C7.33622 10.1876 7.24106 9.52781 6.84506 9.03825L4.79391 6.28097L6.28125 4.79447L9.03591 6.84553C9.34013 7.09153 9.71935 7.22559 10.1104 7.22559C10.3362 7.22559 10.5569 7.18172 10.7659 7.095L13.513 5.9565C14.0971 5.71547 14.4956 5.18044 14.5605 4.55513L15.0593 1.12706H17.161L17.6581 4.55681C17.7256 5.18203 18.1242 5.71641 18.7056 5.95566L21.4536 7.095C21.6617 7.18088 21.8825 7.22559 22.1083 7.22559C22.5002 7.22559 22.8803 7.09078 23.1836 6.84553L25.9391 4.79447L27.4256 6.28097L25.3762 9.03487C24.9785 9.52369 24.8824 10.1842 25.1268 10.7665L26.2644 13.5145C26.5071 14.0977 27.0414 14.4953 27.6658 14.5612L31.0938 15.0583L31.0939 17.162Z" fill="#1E3A5F"/>
</svg>
