<svg width="25" height="24" viewBox="0 0 25 24" fill="none" xmlns="http://www.w3.org/2000/svg">
<path d="M2.63489 2H4.37489C5.45489 2 6.30489 2.93 6.21489 4L5.38489 13.96C5.24489 15.59 6.53488 16.99 8.17488 16.99H18.8249C20.2649 16.99 21.5249 15.81 21.6349 14.38L22.1749 6.88C22.2949 5.22 21.0349 3.87 19.3649 3.87H6.4549" stroke="#333333" stroke-width="1.35" stroke-miterlimit="10" stroke-linecap="round" stroke-linejoin="round"/>
<path d="M16.885 22C17.5754 22 18.135 21.4404 18.135 20.75C18.135 20.0596 17.5754 19.5 16.885 19.5C16.1947 19.5 15.635 20.0596 15.635 20.75C15.635 21.4404 16.1947 22 16.885 22Z" stroke="#333333" stroke-width="1.35" stroke-miterlimit="10" stroke-linecap="round" stroke-linejoin="round"/>
<path d="M8.88513 22C9.57549 22 10.1351 21.4404 10.1351 20.75C10.1351 20.0596 9.57549 19.5 8.88513 19.5C8.19478 19.5 7.63513 20.0596 7.63513 20.75C7.63513 21.4404 8.19478 22 8.88513 22Z" stroke="#333333" stroke-width="1.35" stroke-miterlimit="10" stroke-linecap="round" stroke-linejoin="round"/>
<path d="M9.63501 8H21.635" stroke="#333333" stroke-width="1.35" stroke-miterlimit="10" stroke-linecap="round" stroke-linejoin="round"/>
</svg>
