<svg width="32" height="32" viewBox="0 0 32 32" fill="none" xmlns="http://www.w3.org/2000/svg">
<path d="M2.66797 2.66663H4.98798C6.42798 2.66663 7.5613 3.90663 7.4413 5.33329L6.33464 18.6133C6.14797 20.7866 7.86796 22.6533 10.0546 22.6533H24.2546C26.1746 22.6533 27.8546 21.08 28.0013 19.1733L28.7213 9.1733C28.8813 6.95997 27.2013 5.15995 24.9746 5.15995H7.76131" stroke="white" stroke-width="1.8" stroke-miterlimit="10" stroke-linecap="round" stroke-linejoin="round"/>
<path d="M21.6667 29.3333C22.5871 29.3333 23.3333 28.5871 23.3333 27.6667C23.3333 26.7462 22.5871 26 21.6667 26C20.7462 26 20 26.7462 20 27.6667C20 28.5871 20.7462 29.3333 21.6667 29.3333Z" stroke="white" stroke-width="1.8" stroke-miterlimit="10" stroke-linecap="round" stroke-linejoin="round"/>
<path d="M10.9987 29.3333C11.9192 29.3333 12.6654 28.5871 12.6654 27.6667C12.6654 26.7462 11.9192 26 10.9987 26C10.0782 26 9.33203 26.7462 9.33203 27.6667C9.33203 28.5871 10.0782 29.3333 10.9987 29.3333Z" stroke="white" stroke-width="1.8" stroke-miterlimit="10" stroke-linecap="round" stroke-linejoin="round"/>
<path d="M12 10.6666H28" stroke="white" stroke-width="1.8" stroke-miterlimit="10" stroke-linecap="round" stroke-linejoin="round"/>
</svg>
