<svg width="32" height="32" viewBox="0 0 32 32" fill="none" xmlns="http://www.w3.org/2000/svg">
<path d="M7.64498 3.99105C7.7128 3.99073 7.78062 3.99042 7.8505 3.99009C7.92497 3.99006 7.99945 3.99003 8.07618 3.98999C8.15533 3.98972 8.23448 3.98945 8.31602 3.98916C8.53587 3.98842 8.75571 3.98806 8.97556 3.98778C9.21262 3.98741 9.44968 3.98668 9.68673 3.98601C10.2593 3.98448 10.8319 3.98356 11.4045 3.98276C11.5662 3.98252 11.728 3.98228 11.8897 3.98202C12.8943 3.98044 13.8989 3.97907 14.9036 3.97829C15.1362 3.97811 15.3689 3.97792 15.6015 3.97773C15.6594 3.97769 15.7172 3.97764 15.7768 3.97759C16.7134 3.9768 17.65 3.97472 18.5866 3.97212C19.5483 3.96947 20.5101 3.968 21.4719 3.96767C22.0119 3.96746 22.5518 3.96672 23.0917 3.96466C23.5516 3.96291 24.0114 3.96223 24.4713 3.96292C24.7058 3.96325 24.9403 3.96307 25.1748 3.96152C25.4294 3.95985 25.6839 3.96062 25.9385 3.96161C26.0121 3.96075 26.0858 3.95988 26.1616 3.95898C26.6885 3.96404 27.1138 4.07117 27.5088 4.43567C27.9014 4.85074 28.0698 5.30857 28.0706 5.87896C28.0709 5.94168 28.0711 6.0044 28.0713 6.06902C28.0713 6.13748 28.0712 6.20593 28.0712 6.27646C28.0715 6.38608 28.0715 6.38608 28.0717 6.4979C28.0722 6.70051 28.0724 6.90311 28.0724 7.10571C28.0725 7.32432 28.073 7.54293 28.0734 7.76154C28.0743 8.23947 28.0746 8.71739 28.0749 9.19532C28.0751 9.49386 28.0753 9.7924 28.0756 10.0909C28.0764 10.9179 28.077 11.7448 28.0772 12.5717C28.0773 12.6246 28.0773 12.6775 28.0773 12.732C28.0773 12.785 28.0773 12.8381 28.0773 12.8927C28.0774 13.0002 28.0774 13.1076 28.0774 13.2151C28.0774 13.2684 28.0774 13.3217 28.0775 13.3766C28.0777 14.2401 28.0788 15.1035 28.0802 15.9669C28.0817 16.8539 28.0825 17.7408 28.0826 18.6277C28.0826 19.1255 28.083 19.6233 28.0841 20.1211C28.0851 20.5451 28.0854 20.969 28.0849 21.3929C28.0847 21.6091 28.0847 21.8252 28.0856 22.0414C28.0864 22.2761 28.086 22.5108 28.0854 22.7456C28.0861 22.8472 28.0861 22.8472 28.0869 22.9509C28.0829 23.5695 27.9758 24.1434 27.527 24.599C26.8947 25.1775 26.1363 25.1348 25.3253 25.1307C25.2583 25.1306 25.1913 25.1305 25.1223 25.1304C24.9109 25.1301 24.6996 25.1293 24.4882 25.1285C24.3438 25.1282 24.1994 25.1279 24.055 25.1277C23.7033 25.127 23.3516 25.1259 22.9999 25.1246C22.9858 25.1974 22.9858 25.1974 22.9715 25.2717C22.9148 25.5469 22.8137 25.8036 22.7147 26.066C22.6954 26.1221 22.676 26.1782 22.656 26.2361C22.6354 26.2902 22.6147 26.3444 22.5934 26.4002C22.5755 26.4493 22.5575 26.4984 22.5391 26.5489C22.2192 26.9837 21.4893 27.0955 20.9945 27.2557C20.9028 27.2857 20.8112 27.3157 20.7195 27.3458C20.4792 27.4245 20.2388 27.5026 19.9983 27.5807C19.8032 27.6442 19.6083 27.708 19.4133 27.7718C19.1787 27.8486 18.944 27.9252 18.7094 28.0018C18.6654 28.0162 18.6215 28.0305 18.5762 28.0453C18.3719 28.1119 18.1674 28.1782 17.9627 28.2437C17.8319 28.2858 17.7013 28.3287 17.5713 28.373C16.6814 28.666 15.8572 28.3535 14.9921 28.0895C14.9175 28.0667 14.8429 28.044 14.7661 28.0206C13.0077 27.4625 11.8987 26.335 10.7499 24.9371C10.6799 24.9971 10.6098 25.0571 10.5398 25.117C10.4813 25.1671 10.4813 25.1671 10.4217 25.2182C10.2999 25.3229 10.179 25.4286 10.0585 25.5348C10.0167 25.5711 9.97487 25.6074 9.93179 25.6449C9.85711 25.7104 9.78323 25.7768 9.7106 25.8446C9.50152 26.034 9.34753 26.1246 9.0624 26.1246C8.77285 25.9798 8.54164 25.7669 8.30068 25.5543C8.25917 25.518 8.21766 25.4818 8.17489 25.4444C7.94269 25.241 7.71275 25.0353 7.48428 24.8277C7.27847 24.6409 7.06783 24.4631 6.85146 24.2887C6.56686 24.0586 6.29766 23.8166 6.02996 23.5675C5.82792 23.3806 5.62072 23.2035 5.40615 23.0309C5.12379 22.8037 4.85751 22.5642 4.59243 22.3175C4.39039 22.1306 4.18321 21.9535 3.96865 21.7809C3.68624 21.5536 3.41991 21.3141 3.15479 21.0673C2.95409 20.8817 2.74826 20.7059 2.53506 20.5348C2.23154 20.2906 1.94542 20.0318 1.66178 19.7651C1.50077 19.6141 1.33842 19.4681 1.16714 19.3287C0.999901 19.1871 0.999901 19.1871 0.937401 19.0621C0.930812 18.9195 0.928403 18.7767 0.927783 18.634C0.927509 18.5894 0.927235 18.5449 0.926952 18.499C0.926114 18.3489 0.925729 18.1989 0.925347 18.0489C0.924853 17.9416 0.924336 17.8343 0.923798 17.727C0.922158 17.3741 0.921203 17.0212 0.920312 16.6683C0.919977 16.5469 0.91964 16.4256 0.919303 16.3042C0.917951 15.7994 0.91678 15.2946 0.916077 14.7898C0.915061 14.0658 0.912987 13.3418 0.909427 12.6178C0.90701 12.109 0.905787 11.6002 0.905457 11.0915C0.905228 10.7874 0.904474 10.4834 0.90245 10.1794C0.900574 9.89341 0.900175 9.60745 0.900912 9.32144C0.900926 9.21645 0.900404 9.11146 0.899308 9.00648C0.897894 8.86314 0.898407 8.71992 0.899401 8.57658C0.899194 8.49638 0.898987 8.41617 0.898774 8.33353C0.947816 8.06828 1.03951 7.97591 1.2499 7.81211C1.46865 7.77305 1.46865 7.77305 1.6874 7.81211C1.96801 8.04994 2.14605 8.33421 2.33584 8.64415C2.36792 8.69573 2.4 8.74732 2.43305 8.80047C2.50255 8.91226 2.57187 9.02416 2.64105 9.13615C2.78968 9.37642 2.9397 9.61581 3.08965 9.85525C3.20873 10.0455 3.32761 10.2358 3.44643 10.4261C3.72136 10.8666 3.99655 11.3068 4.27178 11.7471C4.47584 12.0735 4.67975 12.4 4.88345 12.7267C4.92582 12.7946 4.9682 12.8625 5.01186 12.9325C5.09288 13.0623 5.17386 13.1922 5.25478 13.3221C5.47904 13.6817 5.47904 13.6817 5.71401 14.0343C5.8124 14.1871 5.8124 14.1871 5.8124 14.3121C5.85365 14.3121 5.8949 14.3121 5.9374 14.3121C5.93749 14.2662 5.93758 14.2204 5.93768 14.1731C5.94 13.0557 5.94369 11.9383 5.94889 10.8209C5.95138 10.2805 5.95341 9.74015 5.95434 9.19976C5.95515 8.72861 5.95684 8.25748 5.95956 7.78633C5.96098 7.537 5.96196 7.28769 5.96189 7.03835C5.96185 6.80334 5.96297 6.56836 5.96497 6.33335C5.96575 6.20665 5.96531 6.07995 5.96483 5.95325C5.97192 5.32923 6.09577 4.87131 6.52212 4.40611C6.85397 4.10264 7.203 3.99215 7.64498 3.99105ZM7.17726 5.32502C7.03881 5.53547 7.02964 5.65472 7.02645 5.90509C7.02484 5.98709 7.02323 6.06909 7.02158 6.15357C7.02107 6.24403 7.02059 6.33448 7.02013 6.42494C7.01877 6.52054 7.01731 6.61615 7.01576 6.71175C7.01196 6.97119 7.00983 7.23062 7.00824 7.49009C7.00723 7.6524 7.00595 7.81472 7.00461 7.97703C7.00052 8.4855 6.99753 8.99396 6.99601 9.50245C6.99423 10.0883 6.98875 10.6739 6.98007 11.2597C6.97359 11.7132 6.97049 12.1667 6.96991 12.6203C6.96948 12.8908 6.96764 13.1612 6.96225 13.4317C6.878 14.5757 6.878 14.5757 7.25396 15.593C7.46196 15.7799 7.68276 15.8876 7.9374 15.9996C8.09501 16.1179 8.09501 16.1179 8.21084 16.2203C8.26752 16.2667 8.26752 16.2667 8.32534 16.3139C8.36232 16.3443 8.3993 16.3746 8.4374 16.4059C8.74749 16.659 9.05937 16.9095 9.3749 17.1559C9.73366 17.436 10.0872 17.7221 10.4398 18.0099C10.7077 18.2281 10.9776 18.4433 11.2499 18.6559C11.5654 18.9022 11.8772 19.1528 12.1874 19.4059C12.5083 19.6676 12.8306 19.9273 13.1562 20.1832C13.1898 20.2097 13.2235 20.2362 13.2582 20.2635C13.3248 20.3157 13.3919 20.3673 13.4594 20.4184C13.5624 20.4996 13.5624 20.4996 13.6611 20.5926C14.0415 20.9275 14.5012 21.0121 14.9814 21.1236C15.2516 21.1866 15.5207 21.2541 15.7899 21.3211C15.8467 21.3352 15.9035 21.3493 15.9621 21.3637C16.5915 21.5205 17.2167 21.6914 17.8406 21.8687C17.9642 21.9037 18.0879 21.9382 18.2117 21.9723C18.3861 22.0204 18.5601 22.0699 18.734 22.1197C18.7852 22.1336 18.8364 22.1474 18.8892 22.1617C19.3363 22.293 19.7284 22.5109 19.9647 22.9254C20.1242 23.2921 20.1257 23.6685 20.1249 24.0621C20.9149 24.0665 21.7048 24.0698 22.4948 24.0718C22.8616 24.0728 23.2285 24.0741 23.5953 24.0763C23.9495 24.0783 24.3037 24.0794 24.6578 24.0799C24.7928 24.0802 24.9278 24.0809 25.0627 24.0819C25.2521 24.0833 25.4415 24.0835 25.6309 24.0834C25.6864 24.0841 25.7418 24.0847 25.799 24.0854C26.19 24.0835 26.5808 24.0437 26.871 23.7535C26.9877 23.5269 27.0077 23.3217 27.0081 23.0688C27.0084 23.007 27.0086 22.9452 27.0088 22.8814C27.0088 22.8137 27.0087 22.7459 27.0087 22.676C27.0089 22.6039 27.0091 22.5317 27.0092 22.4574C27.0097 22.2572 27.0099 22.0569 27.0099 21.8567C27.01 21.6407 27.0105 21.4247 27.0109 21.2088C27.0118 20.7365 27.0121 20.2643 27.0124 19.7921C27.0126 19.4972 27.0128 19.2023 27.0131 18.9075C27.0139 18.0911 27.0145 17.2747 27.0147 16.4583C27.0148 16.406 27.0148 16.3538 27.0148 16.2999C27.0148 16.2476 27.0148 16.1952 27.0148 16.1412C27.0149 16.0351 27.0149 15.929 27.0149 15.8229C27.0149 15.7702 27.0149 15.7176 27.015 15.6634C27.0152 14.8103 27.0163 13.9572 27.0177 13.1042C27.0192 12.2283 27.02 11.3525 27.0201 10.4766C27.0201 9.98488 27.0205 9.49313 27.0216 9.00138C27.0226 8.58267 27.0229 8.16397 27.0224 7.74526C27.0222 7.53166 27.0222 7.31808 27.0231 7.10448C27.0239 6.87282 27.0235 6.64119 27.0229 6.40953C27.0234 6.34215 27.0239 6.27478 27.0244 6.20536C27.0217 5.79381 27.0015 5.43873 26.6952 5.13243C26.3814 4.96631 26.038 4.99103 25.6923 4.99252C25.6368 4.99251 25.5813 4.9925 25.5241 4.99249C25.3411 4.99253 25.1582 4.99302 24.9752 4.99351C24.8482 4.99363 24.7211 4.99372 24.594 4.99378C24.26 4.99402 23.926 4.99463 23.5919 4.99532C23.2509 4.99596 22.9099 4.99625 22.5689 4.99656C21.9 4.99723 21.2312 4.9983 20.5624 4.99961C20.5616 5.12328 20.5616 5.12328 20.5609 5.24944C20.556 6.02565 20.5505 6.80184 20.5444 7.57804C20.5413 7.97711 20.5384 8.37617 20.536 8.77525C20.5337 9.16023 20.5308 9.54521 20.5275 9.93019C20.5264 10.0772 20.5254 10.2242 20.5247 10.3713C20.5236 10.5769 20.5218 10.7825 20.5198 10.9881C20.5196 11.0797 20.5196 11.0797 20.5194 11.1731C20.5187 11.2292 20.518 11.2853 20.5173 11.343C20.517 11.3917 20.5166 11.4403 20.5163 11.4904C20.4976 11.6435 20.4561 11.744 20.3749 11.8746C20.171 11.9765 19.9704 11.9675 19.7499 11.9371C19.5359 11.8602 19.34 11.7555 19.14 11.6478C19.0834 11.6185 19.0267 11.5892 18.9683 11.5591C18.7882 11.466 18.6088 11.3716 18.4296 11.277C18.193 11.152 17.9558 11.0284 17.7182 10.9056C17.6642 10.8766 17.6103 10.8476 17.5548 10.8176C17.3391 10.7063 17.1805 10.6257 16.9357 10.6208C16.6727 10.7146 16.4306 10.8364 16.184 10.9667C16.0736 11.0234 15.9631 11.0802 15.8527 11.1369C15.68 11.2264 15.5074 11.3162 15.3351 11.4065C15.168 11.4938 15.0003 11.5799 14.8324 11.6659C14.7815 11.693 14.7306 11.7202 14.6781 11.7481C14.3515 11.9143 14.1172 11.9839 13.7499 11.9371C13.617 11.8394 13.5689 11.7844 13.5384 11.6211C13.5381 11.5715 13.5378 11.5219 13.5375 11.4708C13.5367 11.4138 13.5359 11.3567 13.5351 11.2979C13.5352 11.2355 13.5353 11.173 13.5354 11.1087C13.5344 11.0099 13.5344 11.0099 13.5334 10.9091C13.5316 10.691 13.531 10.4729 13.5304 10.2547C13.5294 10.1037 13.5282 9.9526 13.527 9.80153C13.524 9.40359 13.5222 9.00565 13.5206 8.6077C13.5187 8.20175 13.5158 7.79581 13.513 7.38987C13.5076 6.59312 13.5033 5.79637 13.4999 4.99961C12.7578 4.99527 12.0156 4.99194 11.2734 4.9899C10.9288 4.98892 10.5842 4.9876 10.2396 4.98547C9.90687 4.98343 9.57417 4.98231 9.24146 4.98182C9.11465 4.98148 8.98784 4.9808 8.86103 4.97979C8.68315 4.97842 8.50529 4.97824 8.3274 4.97833C8.27521 4.97765 8.22301 4.97698 8.16924 4.97628C7.77342 4.97837 7.46635 5.03002 7.17726 5.32502ZM14.5624 4.99961C14.5624 6.85586 14.5624 8.71211 14.5624 10.6246C15.5536 10.1552 15.5536 10.1552 16.5241 9.65171C16.814 9.53667 17.0779 9.50507 17.3753 9.60371C17.5063 9.66259 17.6325 9.72689 17.7592 9.79454C17.8053 9.81812 17.8515 9.8417 17.8991 9.866C18.0452 9.94085 18.1905 10.017 18.3358 10.0934C18.4826 10.1694 18.6296 10.2452 18.7766 10.3207C18.8678 10.3677 18.9588 10.415 19.0496 10.4626C19.2634 10.5833 19.2634 10.5833 19.4999 10.6246C19.4999 8.76836 19.4999 6.91211 19.4999 4.99961C17.8705 4.99961 16.2412 4.99961 14.5624 4.99961ZM1.9999 10.2496C1.98234 11.3297 1.96914 12.4097 1.96104 13.4899C1.95718 13.9915 1.95193 14.493 1.94332 14.9946C1.93582 15.432 1.931 15.8693 1.92933 16.3068C1.92836 16.5382 1.92609 16.7695 1.9206 17.0009C1.84493 17.991 1.84493 17.991 2.15978 18.8848C2.33411 19.0656 2.53186 19.1879 2.7499 19.3121C2.86592 19.4041 2.98074 19.4976 3.09365 19.5934C3.14973 19.6385 3.2058 19.6836 3.26357 19.7301C3.48559 19.9147 3.69607 20.1101 3.90737 20.3067C4.10941 20.4936 4.31659 20.6707 4.53115 20.8434C4.81351 21.0706 5.07979 21.3101 5.34487 21.5567C5.54691 21.7436 5.75409 21.9207 5.96865 22.0934C6.25106 22.3206 6.51739 22.5601 6.78251 22.8069C6.98321 22.9926 7.18904 23.1683 7.40225 23.3395C7.66677 23.5521 7.91657 23.7755 8.16396 24.0074C8.47071 24.295 8.78553 24.5631 9.1249 24.8121C9.34281 24.7194 9.47752 24.5957 9.64053 24.4254C9.852 24.205 10.0739 24.0039 10.3044 23.8041C10.5259 23.6093 10.7391 23.4058 10.953 23.2027C11.3817 22.7976 11.8135 22.3965 12.2499 21.9996C12.3161 21.9393 12.3824 21.879 12.4486 21.8187C12.6114 21.6706 12.7744 21.5225 12.9374 21.3746C12.6938 21.1212 12.434 20.8992 12.1601 20.6793C12.116 20.6437 12.072 20.6082 12.0266 20.5715C11.7134 20.3191 11.3976 20.0701 11.0806 19.8225C10.7578 19.5698 10.4401 19.3111 10.1225 19.0519C9.85462 18.8337 9.58469 18.6185 9.3124 18.4059C8.95364 18.1257 8.60009 17.8396 8.24746 17.5519C7.97962 17.3337 7.7097 17.1185 7.4374 16.9059C7.07904 16.6261 6.72549 16.3407 6.37383 16.0525C6.17003 15.886 5.96509 15.7218 5.75527 15.5628C5.7162 15.533 5.67712 15.5032 5.63686 15.4725C5.56438 15.4175 5.4915 15.363 5.41811 15.3092C4.90369 14.9174 4.60319 14.3368 4.27334 13.7926C4.18419 13.6464 4.09485 13.5004 4.00552 13.3544C3.98349 13.3183 3.96147 13.2822 3.93878 13.2451C3.72384 12.8936 3.50421 12.5452 3.28324 12.1975C3.10306 11.9136 2.92461 11.6288 2.74746 11.3431C2.70444 11.2738 2.66143 11.2046 2.6171 11.1332C2.53224 10.9964 2.44755 10.8595 2.36305 10.7225C2.30571 10.6302 2.30571 10.6302 2.24722 10.536C2.19595 10.4531 2.19595 10.4531 2.14365 10.3685C2.11684 10.3292 2.09003 10.29 2.0624 10.2496C2.04178 10.2496 2.02115 10.2496 1.9999 10.2496ZM13.6093 22.1559C13.5555 22.2068 13.5016 22.2577 13.4462 22.3102C13.4157 22.3396 13.3852 22.3691 13.3538 22.3995C13.19 22.5574 13.0239 22.7127 12.8581 22.8685C12.7652 22.9558 12.6725 23.0432 12.5798 23.1307C12.2453 23.4465 11.907 23.7573 11.5624 24.0621C12.1018 25.2238 13.5052 26.3939 14.6777 26.8328C15.19 27.0107 15.7131 27.1642 16.2429 27.2806C16.3749 27.3121 16.3749 27.3121 16.505 27.3561C16.9589 27.496 17.3144 27.3531 17.7501 27.2005C17.8274 27.1747 17.9047 27.149 17.9844 27.1224C18.1894 27.054 18.3938 26.9839 18.5981 26.9134C18.8029 26.8431 19.0082 26.7742 19.2134 26.7053C19.4508 26.6256 19.688 26.5455 19.9249 26.4643C20.2458 26.3544 20.5657 26.2459 20.8926 26.1547C20.9395 26.1415 20.9865 26.1282 21.0348 26.1145C21.1518 26.0822 21.2694 26.0519 21.387 26.0218C21.6208 25.9089 21.6776 25.7801 21.7812 25.5465C21.849 25.3394 21.849 25.3394 21.8749 25.1246C21.8066 25.124 21.7382 25.1233 21.6678 25.1227C21.024 25.1166 20.3803 25.1101 19.7365 25.1034C19.4056 25.1 19.0746 25.0966 18.7436 25.0935C18.4243 25.0906 18.1049 25.0873 17.7856 25.0838C17.6637 25.0825 17.5418 25.0814 17.4199 25.0803C17.2493 25.0788 17.0787 25.0769 16.9082 25.0749C16.8324 25.0744 16.8324 25.0744 16.755 25.0739C16.5348 25.071 16.3369 25.0586 16.1249 24.9996C16.1126 24.9111 16.101 24.8226 16.0897 24.734C16.08 24.66 16.08 24.66 16.07 24.5846C16.0624 24.4368 16.0814 24.3277 16.1249 24.1871C16.3903 24.1129 16.65 24.1139 16.9237 24.1114C17.0329 24.1097 17.142 24.1079 17.2511 24.1061C17.4227 24.1035 17.5943 24.1012 17.7659 24.0995C17.9318 24.0978 18.0977 24.0949 18.2636 24.0919C18.3404 24.0916 18.3404 24.0916 18.4189 24.0913C18.6289 24.0868 18.7833 24.0786 18.968 23.9738C19.0836 23.8524 19.1199 23.793 19.1249 23.6246C19.0403 23.4077 18.9694 23.3282 18.7606 23.2232C18.418 23.0846 18.0599 22.9927 17.7042 22.8941C17.5892 22.8619 17.5892 22.8619 17.4719 22.829C17.31 22.7837 17.148 22.7385 16.986 22.6935C16.7805 22.6364 16.5752 22.579 16.3698 22.5215C16.1714 22.4659 15.973 22.4105 15.7746 22.3551C15.6655 22.3246 15.6655 22.3246 15.5543 22.2935C15.2134 22.1988 14.872 22.1058 14.5296 22.0165C14.442 21.9935 14.442 21.9935 14.3526 21.97C14.0143 21.9026 13.8601 21.914 13.6093 22.1559Z" fill="#9E9E9E"/>
<path d="M21.7501 18.0302C21.7936 18.0298 21.8371 18.0294 21.882 18.0289C22.0256 18.0278 22.169 18.0285 22.3126 18.0294C22.4125 18.0292 22.5125 18.029 22.6124 18.0287C22.8217 18.0283 23.031 18.0288 23.2403 18.03C23.5085 18.0314 23.7766 18.0306 24.0448 18.0291C24.2512 18.0282 24.4575 18.0285 24.6638 18.0291C24.7627 18.0293 24.8615 18.0291 24.9604 18.0285C25.0987 18.0279 25.2368 18.0289 25.3751 18.0302C25.493 18.0305 25.493 18.0305 25.6134 18.0308C25.8478 18.0682 25.9191 18.1278 26.0626 18.3126C26.1511 18.4896 26.134 18.6391 26.1352 18.837C26.1356 18.8984 26.1356 18.8984 26.1361 18.9611C26.137 19.0969 26.1374 19.2327 26.1378 19.3685C26.1381 19.4629 26.1385 19.5572 26.1389 19.6516C26.1395 19.8496 26.1399 20.0476 26.1401 20.2457C26.1405 20.4991 26.142 20.7526 26.1437 21.006C26.1449 21.201 26.1452 21.396 26.1453 21.591C26.1455 21.6845 26.146 21.7779 26.1468 21.8713C26.1479 22.0022 26.1478 22.1331 26.1474 22.264C26.1477 22.3756 26.1477 22.3756 26.1481 22.4895C26.1227 22.7078 26.0686 22.8253 25.9376 23.0001C25.755 23.0914 25.5932 23.0721 25.3893 23.0737C25.3458 23.0741 25.3023 23.0745 25.2574 23.0749C25.1132 23.0761 24.969 23.0769 24.8248 23.0775C24.7756 23.0777 24.7264 23.078 24.6756 23.0783C24.4152 23.0796 24.1547 23.0805 23.8943 23.081C23.6251 23.0817 23.356 23.0839 23.0868 23.0864C22.88 23.088 22.6731 23.0885 22.4663 23.0887C22.367 23.0891 22.2678 23.0898 22.1686 23.0909C22.0297 23.0925 21.8909 23.0924 21.7521 23.092C21.6731 23.0923 21.5941 23.0927 21.5127 23.0931C21.3126 23.0626 21.3126 23.0626 21.1621 22.9631C21.0272 22.759 21.0309 22.6191 21.0302 22.3751C21.0298 22.3316 21.0294 22.288 21.0289 22.2432C21.0278 22.0996 21.0285 21.9562 21.0294 21.8126C21.0292 21.7127 21.029 21.6127 21.0287 21.5128C21.0283 21.3035 21.0288 21.0942 21.03 20.8849C21.0314 20.6167 21.0306 20.3485 21.0291 20.0804C21.0282 19.874 21.0285 19.6677 21.0291 19.4614C21.0293 19.3625 21.0291 19.2636 21.0285 19.1648C21.0279 19.0265 21.0289 18.8883 21.0302 18.7501C21.0304 18.6715 21.0306 18.5928 21.0308 18.5118C21.0626 18.3126 21.0626 18.3126 21.1623 18.1623C21.3662 18.027 21.5061 18.0309 21.7501 18.0302ZM22.1251 19.0626C22.1251 20.0526 22.1251 21.0426 22.1251 22.0626C23.0945 22.0626 24.0638 22.0626 25.0626 22.0626C25.0626 21.0726 25.0626 20.0826 25.0626 19.0626C24.0932 19.0626 23.1238 19.0626 22.1251 19.0626Z" fill="#9E9E9E"/>
<path d="M15.0998 13.5443C15.17 13.5437 15.17 13.5437 15.2416 13.5431C15.3958 13.5419 15.5499 13.5416 15.7041 13.5415C15.8118 13.5411 15.9194 13.5407 16.0271 13.5402C16.2526 13.5395 16.4782 13.5392 16.7037 13.5393C16.9918 13.5393 17.2799 13.5376 17.568 13.5355C17.7904 13.5341 18.0128 13.5338 18.2351 13.5339C18.3413 13.5338 18.4475 13.5332 18.5536 13.5322C19.1907 13.527 19.6611 13.5277 20.1717 13.957C20.5167 14.3692 20.6445 14.7097 20.6248 15.25C20.5504 15.6396 20.392 16.0346 20.0667 16.2776C19.7192 16.5009 19.4518 16.572 19.0389 16.5735C18.9688 16.5742 18.9688 16.5742 18.8972 16.5748C18.7423 16.576 18.5875 16.5768 18.4326 16.5774C18.3796 16.5776 18.3267 16.5779 18.2721 16.5781C17.9915 16.5795 17.7109 16.5803 17.4303 16.5809C17.1412 16.5816 16.8521 16.5838 16.563 16.5863C16.3401 16.5879 16.1172 16.5884 15.8943 16.5886C15.7878 16.5889 15.6813 16.5897 15.5747 16.5908C14.4555 16.6023 14.4555 16.6023 13.9846 16.1897C13.951 16.149 13.9173 16.1083 13.8826 16.0664C13.8479 16.0259 13.8133 15.9853 13.7776 15.9436C13.4976 15.5373 13.5201 15.1018 13.5623 14.625C13.6673 14.2088 13.9663 13.9259 14.3123 13.6875C14.5738 13.5574 14.8131 13.544 15.0998 13.5443ZM14.6873 14.75C14.5985 14.9275 14.6051 15.0534 14.6248 15.25C14.7643 15.428 14.8466 15.4906 15.0623 15.5625C15.19 15.5687 15.3179 15.5711 15.4458 15.5716C15.5644 15.5722 15.5644 15.5722 15.6854 15.5728C15.7718 15.5729 15.8582 15.5729 15.9446 15.573C16.0333 15.5732 16.1219 15.5734 16.2106 15.5736C16.3965 15.574 16.5824 15.5741 16.7682 15.5741C17.0061 15.5741 17.2439 15.5749 17.4817 15.576C17.6649 15.5767 17.848 15.5768 18.0312 15.5768C18.1189 15.5769 18.2065 15.5771 18.2942 15.5776C18.417 15.5782 18.5398 15.578 18.6626 15.5777C18.7324 15.5778 18.8022 15.5778 18.8741 15.5779C19.1456 15.5556 19.3166 15.505 19.4959 15.2969C19.581 15.1233 19.581 15.1233 19.5193 14.9258C19.4477 14.7461 19.4477 14.7461 19.3123 14.625C19.1014 14.5502 18.8948 14.5538 18.6727 14.5524C18.5938 14.5518 18.5149 14.5512 18.4337 14.5506C18.3478 14.5503 18.2619 14.55 18.176 14.5498C18.0876 14.5494 17.9992 14.5491 17.9108 14.5487C17.7255 14.5481 17.5403 14.5477 17.355 14.5475C17.1183 14.5471 16.8815 14.5456 16.6447 14.5438C16.4621 14.5427 16.2795 14.5424 16.0968 14.5423C16.0096 14.5421 15.9223 14.5416 15.8351 14.5407C15.7127 14.5397 15.5904 14.5399 15.4681 14.5402C15.3639 14.5399 15.3639 14.5399 15.2575 14.5395C15.0319 14.5661 14.8811 14.6331 14.6873 14.75Z" fill="#9E9E9E"/>
<path d="M8.49958 8.90625C8.54083 8.90561 8.58208 8.90496 8.62458 8.9043C8.81544 8.95499 8.88028 9.02936 8.99958 9.1875C9.03715 9.37484 9.03462 9.55944 9.03278 9.75C9.03302 9.80454 9.03326 9.85909 9.03351 9.91528C9.03368 10.0304 9.03322 10.1456 9.03217 10.2607C9.03083 10.4369 9.03216 10.6129 9.03376 10.7891C9.03359 10.901 9.03327 11.013 9.03278 11.125C9.03329 11.1776 9.0338 11.2302 9.03432 11.2844C9.02848 11.6492 9.02848 11.6492 8.88032 11.8456C8.73878 11.9451 8.67077 11.9714 8.49958 11.9688C8.43771 11.9697 8.43771 11.9697 8.37458 11.9707C8.18372 11.92 8.11889 11.8456 7.99958 11.6875C7.96201 11.5002 7.96454 11.3156 7.96638 11.125C7.96614 11.0705 7.9659 11.0159 7.96565 10.9597C7.96548 10.8446 7.96594 10.7294 7.96699 10.6143C7.96833 10.4381 7.967 10.2621 7.9654 10.0859C7.96557 9.97396 7.96589 9.86198 7.96638 9.75C7.96587 9.69739 7.96537 9.64478 7.96484 9.59058C7.97068 9.2258 7.97068 9.2258 8.11884 9.02942C8.26038 8.92991 8.32839 8.90358 8.49958 8.90625Z" fill="#9E9E9E"/>
<path d="M8.5 6.90625C8.54125 6.90561 8.5825 6.90496 8.625 6.9043C8.81549 6.9549 8.8848 7.02784 9 7.1875C9.02506 7.36442 9.03508 7.51147 9.03125 7.6875C9.03222 7.73197 9.03318 7.77645 9.03418 7.82227C9.03257 8.0377 9.0159 8.16547 8.88867 8.3418C8.74251 8.44267 8.67518 8.47149 8.5 8.46875C8.45875 8.46939 8.4175 8.47004 8.375 8.4707C8.18451 8.4201 8.1152 8.34716 8 8.1875C7.97494 8.01058 7.96492 7.86353 7.96875 7.6875C7.96778 7.64303 7.96682 7.59855 7.96582 7.55273C7.96743 7.3373 7.98411 7.20953 8.11133 7.0332C8.25749 6.93233 8.32482 6.90351 8.5 6.90625Z" fill="#9E9E9E"/>
</svg>
