<svg width="32" height="32" viewBox="0 0 32 32" fill="none" xmlns="http://www.w3.org/2000/svg">
<g clip-path="url(#clip0_210_16388)">
<path d="M14.3754 -0.00010597C14.6753 0.137038 14.9516 0.306523 15.2309 0.480363C15.3117 0.529375 15.3925 0.578262 15.4735 0.62703C15.636 0.725174 15.7982 0.823913 15.96 0.923203C16.2719 1.11424 16.5873 1.29914 16.9028 1.48427C17.0134 1.54965 17.124 1.61508 17.2345 1.68056C17.5731 1.88093 17.9117 2.08105 18.2504 2.28114C18.365 2.34885 18.4796 2.41656 18.5942 2.48427C18.6509 2.51778 18.7076 2.5513 18.766 2.58583C20.3129 3.49989 21.8598 4.41396 23.4067 5.32802C23.4634 5.36156 23.5202 5.39511 23.5787 5.42967C23.6927 5.49706 23.8068 5.56446 23.9208 5.63188C24.2156 5.80618 24.5106 5.98018 24.8058 6.1537C25.0937 6.32297 25.3811 6.49304 25.6681 6.6639C25.7577 6.71712 25.8475 6.7701 25.9375 6.82271C26.037 6.88096 26.136 6.94036 26.2348 6.99989C26.2847 7.02954 26.3347 7.05919 26.3862 7.08974C26.5356 7.21748 26.5667 7.31155 26.6254 7.49989C26.6375 7.66726 26.6433 7.82812 26.6428 7.99541C26.6432 8.04494 26.6435 8.09446 26.6439 8.14549C26.645 8.31122 26.6452 8.47694 26.6453 8.64267C26.6459 8.76156 26.6466 8.88044 26.6472 8.99933C26.649 9.322 26.6499 9.64467 26.6507 9.96735C26.6517 10.3046 26.6534 10.6418 26.655 10.9791C26.6579 11.6177 26.6602 12.2562 26.6623 12.8948C26.6646 13.6218 26.6677 14.3489 26.6709 15.0759C26.6773 16.5714 26.6829 18.0669 26.6879 19.5624C26.735 19.5877 26.7821 19.6131 26.8306 19.6392C26.9233 19.6894 26.9233 19.6894 27.0179 19.7406C27.0792 19.7737 27.1404 19.8068 27.2035 19.8408C27.4077 19.9556 27.5879 20.0802 27.7739 20.2225C27.8336 20.2677 27.8934 20.3129 27.955 20.3595C28.1274 20.5015 28.282 20.6526 28.4379 20.8124C28.4776 20.8491 28.5172 20.8859 28.558 20.9237C29.6854 21.9836 30.3258 23.5523 30.3979 25.0807C30.4531 26.9809 29.8983 28.6766 28.5834 30.0709C27.379 31.3017 25.788 31.9843 24.0725 32.0253C23.311 32.032 22.6021 31.9842 21.8754 31.7499C21.8349 31.7368 21.7944 31.7238 21.7526 31.7103C20.8484 31.4062 20.0523 30.9215 19.3754 30.2499C19.3213 30.1983 19.2671 30.1468 19.2114 30.0936C19.1624 30.0421 19.1134 29.9905 19.0629 29.9374C19.0259 29.8994 18.989 29.8613 18.9509 29.8222C18.3032 29.1306 17.8426 28.2954 17.6254 27.3749C16.816 27.8459 16.0073 28.3182 15.2018 28.7958C15.0979 28.8574 14.9938 28.9187 14.8895 28.9797C14.802 29.0317 14.7154 29.0852 14.6301 29.1407C14.3636 29.3096 14.1879 29.3654 13.8754 29.3124C13.6335 29.2018 13.4102 29.0652 13.184 28.9257C13.0851 28.8663 13.0851 28.8663 12.9842 28.8057C12.8475 28.7236 12.711 28.641 12.5747 28.5582C12.3339 28.4123 12.0916 28.2692 11.8489 28.1265C11.679 28.0266 11.5094 27.9263 11.3398 27.8258C10.9976 27.6232 10.6553 27.4209 10.3129 27.2186C10.1983 27.1509 10.0837 27.0832 9.96916 27.0155C9.91245 26.982 9.85573 26.9485 9.79729 26.914C9.62541 26.8124 9.45354 26.7108 9.28166 26.6093C9.22497 26.5758 9.16828 26.5423 9.10987 26.5078C8.99503 26.4399 8.88019 26.372 8.76535 26.3042C8.4828 26.1372 8.20024 25.9703 7.91765 25.8034C7.25257 25.4105 6.58785 25.0171 5.92339 24.6232C5.44274 24.3383 4.96194 24.0536 4.48088 23.7694C4.42587 23.7369 4.37086 23.7044 4.31418 23.6709C4.02506 23.5 3.73575 23.3295 3.44622 23.1593C1.79108 22.1859 1.79108 22.1859 1.62541 21.9374C1.60939 21.8208 1.60939 21.8208 1.60881 21.687C1.60803 21.6103 1.60803 21.6103 1.60724 21.5322C1.60731 21.4761 1.60737 21.4199 1.60744 21.3621C1.60702 21.3025 1.60661 21.2429 1.60618 21.1815C1.60495 20.9808 1.60461 20.7802 1.60428 20.5795C1.6036 20.436 1.60287 20.2925 1.6021 20.149C1.60019 19.7585 1.59913 19.368 1.59833 18.9775C1.59783 18.7337 1.59719 18.4899 1.59652 18.246C1.59471 17.571 1.59314 16.8959 1.59248 16.2208C1.59244 16.1776 1.59239 16.1344 1.59235 16.0899C1.59231 16.0466 1.59226 16.0033 1.59222 15.9587C1.59213 15.8709 1.59204 15.7831 1.59195 15.6954C1.59189 15.6301 1.59189 15.6301 1.59182 15.5635C1.59105 14.8581 1.58838 14.1527 1.58489 13.4473C1.58134 12.7231 1.57948 11.9989 1.57917 11.2747C1.57895 10.868 1.57802 10.4614 1.57534 10.0548C1.57286 9.67235 1.57245 9.28996 1.57364 8.9075C1.57372 8.76706 1.57305 8.62662 1.57158 8.48619C1.56969 8.29454 1.57048 8.10309 1.57196 7.91145C1.57077 7.85576 1.56958 7.80008 1.56836 7.74271C1.57245 7.52041 1.5766 7.37221 1.72027 7.19618C1.83038 7.10002 1.94046 7.01704 2.06291 6.93739C2.12035 6.89986 2.17778 6.86232 2.23696 6.82364C2.2928 6.79229 2.34864 6.76095 2.40618 6.72865C2.47001 6.69241 2.53384 6.65616 2.59961 6.61882C2.66742 6.58086 2.73524 6.54291 2.8051 6.5038C2.95174 6.4205 3.09831 6.33711 3.2448 6.25356C3.28195 6.23242 3.3191 6.21128 3.35738 6.1895C3.72754 5.97841 4.09276 5.75937 4.45745 5.53896C5.02541 5.1963 5.59582 4.85822 6.16838 4.52333C6.20675 4.50089 6.24512 4.47844 6.28465 4.45532C6.43668 4.36639 6.58871 4.27747 6.74075 4.18855C7.25257 3.88911 7.7628 3.58697 8.27309 3.28493C8.55711 3.11686 8.84127 2.94902 9.12541 2.78114C9.24 2.71344 9.35458 2.64573 9.46916 2.57802C10.1567 2.17177 10.1567 2.17177 10.3286 2.07019C10.4431 2.00254 10.5575 1.93488 10.672 1.86722C10.96 1.69704 11.2479 1.52696 11.5361 1.35707C11.6222 1.30622 11.6222 1.30622 11.7101 1.25433C11.8247 1.18673 11.9395 1.11927 12.0543 1.05197C12.3416 0.883062 12.6261 0.711002 12.9074 0.532121C12.9631 0.4972 13.0188 0.46228 13.0762 0.426301C13.1811 0.360317 13.2854 0.293353 13.389 0.225221C13.7179 0.0198786 13.9886 -0.100488 14.3754 -0.00010597ZM13.634 1.45375C13.5796 1.48581 13.5796 1.48581 13.5242 1.51852C13.4054 1.58875 13.2869 1.65955 13.1684 1.73036C13.0858 1.77929 13.0033 1.82818 12.9207 1.87703C12.7543 1.97554 12.588 2.07427 12.4219 2.1732C12.1613 2.32833 11.9001 2.48243 11.6389 2.63645C11.4184 2.76652 11.1981 2.89695 10.9777 3.02736C10.6937 3.19543 10.4096 3.36327 10.1254 3.53114C10.0108 3.59885 9.89625 3.66656 9.78166 3.73427C6.34416 5.76552 6.34416 5.76552 6.17211 5.86719C6.05813 5.93454 5.94416 6.00189 5.83019 6.06925C5.53443 6.24403 5.23864 6.41876 4.9428 6.5934C4.88181 6.62941 4.82082 6.66543 4.75798 6.70253C4.6426 6.77066 4.5272 6.83878 4.41179 6.90688C4.04452 7.12377 3.67839 7.34249 3.31291 7.56239C3.5416 7.75428 3.77669 7.90863 4.03484 8.05824C4.07344 8.08073 4.11204 8.10322 4.15182 8.12639C4.27439 8.19775 4.39716 8.26876 4.51995 8.33974C4.64176 8.4104 4.76353 8.48113 4.88524 8.55195C4.96354 8.59747 5.04193 8.64285 5.1204 8.68809C5.32754 8.80803 5.52783 8.93402 5.72576 9.0685C5.91945 9.20324 5.91945 9.20324 6.08803 9.17413C6.26418 9.12072 6.4025 9.04994 6.56072 8.95595C6.62031 8.92086 6.6799 8.88577 6.74129 8.84961C6.80489 8.81155 6.86848 8.77349 6.93401 8.73427C7.00051 8.69496 7.067 8.65565 7.13552 8.61514C7.27351 8.53351 7.41139 8.45169 7.54915 8.36968C7.73472 8.25924 7.92058 8.14933 8.10662 8.03969C8.3887 7.87342 8.67052 7.70672 8.95226 7.53987C9.13311 7.43284 9.31407 7.32596 9.49504 7.21913C9.5561 7.18308 9.61716 7.14704 9.68007 7.10989C9.79556 7.04172 9.91106 6.97355 10.0266 6.9054C10.0795 6.87414 10.1324 6.84289 10.1869 6.81069C10.2385 6.78035 10.29 6.75002 10.3432 6.71877C10.4527 6.6534 10.5614 6.58681 10.6696 6.5193C10.7245 6.48526 10.7793 6.45122 10.8359 6.41615C10.8849 6.38522 10.934 6.35429 10.9845 6.32242C11.2181 6.20219 11.3672 6.20537 11.6254 6.24989C11.7817 6.33583 11.7817 6.33583 11.8754 6.49989C11.8952 6.70995 11.8899 6.91462 11.8754 7.12489C11.8404 7.14191 11.8055 7.15892 11.7694 7.17645C11.6167 7.25434 11.4693 7.33846 11.3212 7.42494C11.2614 7.45983 11.2016 7.49472 11.14 7.53067C11.0759 7.56821 11.0118 7.60575 10.9457 7.64443C10.8789 7.68345 10.8122 7.72248 10.7434 7.7627C10.0778 8.15207 9.41392 8.54444 8.75041 8.93739C8.49524 9.08849 8.24002 9.23952 7.98479 9.39052C7.89595 9.44316 7.89595 9.44316 7.80532 9.49686C7.75078 9.52912 7.69625 9.56138 7.64006 9.59462C7.59186 9.62316 7.54367 9.6517 7.49401 9.68111C7.41422 9.72739 7.33292 9.77114 7.25041 9.81239C7.33179 10.0565 7.41991 10.079 7.64153 10.2035C7.70991 10.2424 7.77829 10.2813 7.84874 10.3213C7.92272 10.3626 7.99672 10.4039 8.07073 10.4452C8.21977 10.5291 8.36865 10.6132 8.5175 10.6974C8.57242 10.7284 8.57242 10.7284 8.62844 10.7599C8.83628 10.8776 9.04024 10.9994 9.24114 11.1286C9.30445 11.169 9.30445 11.169 9.36904 11.2102C9.47687 11.2799 9.58389 11.3509 9.69084 11.422C9.87169 11.5182 9.87169 11.5182 10.0619 11.4657C10.2677 11.3666 10.4632 11.2574 10.6567 11.1366C10.7399 11.0857 10.8231 11.0348 10.9064 10.984C10.9514 10.9565 10.9965 10.9289 11.0429 10.9005C11.3098 10.7384 11.579 10.5803 11.8481 10.4218C11.9672 10.3515 12.0864 10.2811 12.2055 10.2108C12.265 10.1757 12.3246 10.1406 12.3859 10.1044C12.555 10.0046 12.724 9.9046 12.893 9.80458C13.3856 9.51307 13.8784 9.22195 14.3725 8.933C15.0943 8.51081 15.8153 8.08766 16.5317 7.65614C17.0958 7.31629 17.6625 6.98097 18.2309 6.64833C18.3073 6.60356 18.3838 6.55879 18.4602 6.51402C18.7521 6.34312 19.0441 6.1723 19.3363 6.00197C19.5292 5.88954 19.7218 5.77678 19.9145 5.66396C19.9715 5.63087 20.0285 5.59779 20.0873 5.56371C20.1393 5.53314 20.1914 5.50258 20.245 5.47109C20.2901 5.44479 20.3352 5.4185 20.3817 5.3914C20.4997 5.31286 20.5917 5.22858 20.6879 5.12489C20.2483 4.82004 19.791 4.54729 19.3292 4.27796C19.2069 4.20661 19.0848 4.13495 18.9627 4.06325C18.4615 3.75973 18.4615 3.75973 17.9379 3.49989C17.7769 3.56332 17.6708 3.62172 17.5317 3.71864C17.4485 3.77248 17.3652 3.82619 17.2819 3.87978C17.2369 3.9093 17.1919 3.93883 17.1455 3.96925C16.8819 4.13852 16.6106 4.2948 16.3403 4.45302C16.2222 4.52264 16.1042 4.5923 15.9863 4.662C15.8057 4.76854 15.6251 4.87506 15.4446 4.98158C15.3251 5.05204 15.2057 5.12252 15.0863 5.19301C14.9702 5.26157 14.854 5.33009 14.7379 5.39858C14.4791 5.55128 14.221 5.70473 13.9645 5.86122C13.9213 5.88751 13.8781 5.91379 13.8337 5.94087C13.755 5.98888 13.6765 6.03716 13.5982 6.08577C13.315 6.25857 13.1646 6.33167 12.8364 6.26943C12.6254 6.18739 12.6254 6.18739 12.5317 6.08583C12.4825 5.85252 12.4696 5.65727 12.5629 5.43739C12.6686 5.34461 12.6686 5.34461 12.8051 5.25942C12.856 5.22735 12.907 5.19528 12.9595 5.16225C13.2464 4.98959 13.5345 4.81945 13.8246 4.65224C13.9575 4.5752 14.0903 4.49813 14.2231 4.42104C14.3234 4.36286 14.3234 4.36286 14.4257 4.30351C15.2274 3.83734 16.0263 3.36618 16.8129 2.87489C16.5778 2.59696 16.271 2.44709 15.9574 2.27333C15.8395 2.20716 15.7216 2.14092 15.6037 2.0746C15.5446 2.04143 15.4856 2.00825 15.4247 1.97408C15.2599 1.88032 15.0968 1.78437 14.9343 1.68691C14.8859 1.65795 14.8376 1.629 14.7878 1.59917C14.6969 1.54444 14.6062 1.48942 14.5156 1.43407C14.1347 1.20569 14.0082 1.23132 13.634 1.45375ZM21.4592 6.01186C21.4234 6.03288 21.3876 6.0539 21.3507 6.07555C21.2325 6.14512 21.1145 6.21508 20.9965 6.28505C20.9138 6.33381 20.8312 6.38256 20.7485 6.43129C20.1737 6.77045 19.6012 7.11353 19.0295 7.45789C18.339 7.87324 17.6432 8.27945 16.9476 8.68623C16.4358 8.98568 15.9255 9.28782 15.4152 9.58986C15.1312 9.75793 14.8471 9.92577 14.5629 10.0936C14.4483 10.1614 14.3337 10.2291 14.2192 10.2968C13.5317 10.703 13.5317 10.703 13.3595 10.8047C13.246 10.8718 13.1325 10.939 13.0191 11.0062C12.7163 11.1855 12.4128 11.3634 12.1083 11.5397C12.0445 11.5768 11.9807 11.614 11.915 11.6522C11.7916 11.724 11.6681 11.7954 11.5444 11.8663C11.4894 11.8984 11.4345 11.9305 11.3779 11.9635C11.329 11.9917 11.2801 12.0199 11.2298 12.049C11.1954 12.0741 11.1609 12.0991 11.1254 12.1249C11.1254 12.1661 11.1254 12.2074 11.1254 12.2499C11.1697 12.2753 11.214 12.3008 11.2597 12.327C13.466 13.595 13.466 13.595 13.8488 13.8622C14.0422 13.9581 14.1074 13.9338 14.3129 13.8749C14.4378 13.8116 14.5602 13.7431 14.6806 13.6715C14.7158 13.6508 14.751 13.63 14.7872 13.6086C14.9028 13.5402 15.018 13.4712 15.1332 13.4022C15.2144 13.3541 15.2956 13.306 15.3768 13.2579C15.5442 13.1587 15.7115 13.0592 15.8787 12.9595C16.1095 12.8218 16.3406 12.6848 16.5719 12.548C16.8531 12.3817 17.1341 12.2152 17.415 12.0485C17.783 11.83 18.1514 11.6121 18.5199 11.3944C18.5755 11.3616 18.631 11.3288 18.6883 11.295C18.7992 11.2295 18.9101 11.164 19.0211 11.0984C19.3059 10.9302 19.5906 10.7619 19.8754 10.5936C19.99 10.5259 20.1046 10.4582 20.2192 10.3905C20.2759 10.357 20.3326 10.3235 20.391 10.289C20.9067 9.98427 20.9067 9.98427 21.0787 9.8826C21.1927 9.81525 21.3067 9.7479 21.4206 9.68054C21.7164 9.50576 22.0122 9.33103 22.308 9.15639C22.369 9.12038 22.43 9.08436 22.4928 9.04726C22.6082 8.97912 22.7236 8.91101 22.839 8.84291C22.892 8.81165 22.9449 8.78039 22.9994 8.74819C23.0768 8.70269 23.0768 8.70269 23.1557 8.65627C23.2652 8.5909 23.3739 8.52431 23.4821 8.4568C23.537 8.42276 23.5918 8.38872 23.6484 8.35365C23.6974 8.32272 23.7465 8.29179 23.797 8.25992C24.0306 8.13969 24.1797 8.14287 24.4379 8.18739C24.5942 8.27333 24.5942 8.27333 24.6879 8.43739C24.7077 8.64745 24.7024 8.85212 24.6879 9.06239C24.6538 9.07895 24.6197 9.0955 24.5846 9.11255C24.4168 9.19817 24.2542 9.29083 24.091 9.3849C23.9894 9.44341 23.9894 9.44341 23.8859 9.5031C23.8134 9.54499 23.7409 9.58689 23.6684 9.6288C23.6316 9.65005 23.5948 9.6713 23.5569 9.69319C23.073 9.97269 22.5911 10.2551 22.113 10.5443C21.815 10.7244 21.5151 10.9011 21.2153 11.078C21.1568 11.1125 21.0984 11.147 21.0382 11.1825C20.9186 11.2531 20.799 11.3237 20.6793 11.3943C20.3905 11.5648 20.1017 11.7355 19.8129 11.9061C19.6983 11.9739 19.5837 12.0416 19.4692 12.1093C19.4124 12.1428 19.3557 12.1763 19.2973 12.2108C17.4067 13.328 17.4067 13.328 17.2345 13.4297C17.1208 13.4969 17.0071 13.5641 16.8934 13.6313C16.5937 13.8084 16.294 13.9855 15.9943 14.1625C15.9007 14.2178 15.9007 14.2178 15.8052 14.2742C15.6858 14.3448 15.5663 14.4153 15.4468 14.4859C15.3929 14.5177 15.3389 14.5496 15.2834 14.5824C15.2362 14.6103 15.1889 14.6382 15.1403 14.6669C15.0941 14.6943 15.048 14.7217 15.0004 14.7499C14.9468 14.775 14.8931 14.8002 14.8378 14.826C14.6726 14.9238 14.6726 14.9238 14.649 15.1011C14.6491 15.1674 14.6492 15.2336 14.6492 15.3019C14.6485 15.3779 14.6479 15.454 14.6471 15.5324C14.648 15.6168 14.6488 15.7012 14.6497 15.7856C14.6495 15.8744 14.6491 15.9632 14.6486 16.052C14.6478 16.2434 14.6481 16.4347 14.649 16.626C14.6505 16.9286 14.6498 17.2311 14.6488 17.5336C14.6473 18.0668 14.6476 18.5999 14.6484 19.1331C14.6496 19.9354 14.6493 20.7377 14.6472 21.54C14.6464 21.8407 14.6467 22.1414 14.6478 22.4422C14.6483 22.6293 14.648 22.8165 14.6476 23.0037C14.6475 23.0905 14.6478 23.1772 14.6484 23.264C14.6492 23.3825 14.6487 23.501 14.6482 23.6195C14.6483 23.6858 14.6485 23.7521 14.6486 23.8204C14.6219 24.0272 14.5608 24.1454 14.4379 24.3124C14.2276 24.3983 14.0083 24.3916 13.7895 24.3397C13.6008 24.1728 13.567 23.9348 13.5504 23.6914C13.5526 23.5947 13.5526 23.5947 13.5548 23.496C13.5561 23.4214 13.5573 23.3469 13.5587 23.2701C13.5607 23.1891 13.5627 23.1082 13.5648 23.0248C13.5665 22.938 13.5681 22.8512 13.5696 22.7644C13.572 22.6259 13.5746 22.4874 13.5773 22.3489C13.5841 22.0053 13.5885 21.6617 13.5916 21.3181C13.592 21.2681 13.5925 21.218 13.5929 21.1665C13.5947 20.9603 13.5964 20.7542 13.5981 20.548C13.603 19.9641 13.6101 19.3804 13.624 18.7966C13.635 18.3321 13.6411 17.8677 13.6415 17.4031C13.6419 17.1575 13.6447 16.9125 13.6535 16.667C13.7244 15.6634 13.7244 15.6634 13.3654 14.7769C13.0384 14.5086 12.6796 14.339 12.2865 14.189C12.0737 14.1043 11.8922 13.9948 11.6991 13.8722C11.6427 13.8387 11.5862 13.8053 11.528 13.7708C11.4166 13.7047 11.3053 13.6387 11.194 13.5725C11.1115 13.5236 11.1115 13.5236 11.0273 13.4738C10.9797 13.4456 10.9322 13.4173 10.8832 13.3883C10.7576 13.3165 10.6301 13.2516 10.5004 13.1874C10.4998 13.2387 10.4991 13.2899 10.4985 13.3427C10.4923 13.8256 10.4859 14.3084 10.4792 14.7912C10.4758 15.0394 10.4724 15.2876 10.4693 15.5359C10.4664 15.7754 10.4631 16.0149 10.4596 16.2544C10.4583 16.3458 10.4572 16.4372 10.4561 16.5286C10.4546 16.6566 10.4527 16.7845 10.4507 16.9124C10.4498 16.9853 10.4488 17.0582 10.4478 17.1332C10.4379 17.3124 10.4379 17.3124 10.3754 17.4999C10.0476 17.6092 9.82043 17.6225 9.50566 17.4797C9.28671 17.3576 9.07304 17.2292 8.85979 17.0975C8.78032 17.0496 8.7008 17.0017 8.62122 16.9539C8.41373 16.829 8.20706 16.7028 8.00053 16.5763C7.79584 16.4513 7.59036 16.3276 7.38494 16.2038C7.02304 15.9853 6.66161 15.7662 6.30129 15.5452C6.19024 15.4771 6.07896 15.4094 5.96736 15.3423C5.63232 15.1387 5.63232 15.1387 5.56291 14.9999C5.56048 14.8502 5.5618 14.7024 5.56595 14.5529C5.568 14.4574 5.57 14.3619 5.57195 14.2664C5.57306 14.2157 5.57416 14.1649 5.5753 14.1126C5.58148 13.7872 5.58301 13.4618 5.58515 13.1364C5.58729 12.8505 5.59122 12.5649 5.59912 12.2791C5.60668 12.0025 5.60929 11.7262 5.60862 11.4495C5.60923 11.3444 5.6116 11.2393 5.61581 11.1343C5.63805 10.6472 5.63805 10.6472 5.50041 10.1874C5.25717 9.94153 4.94267 9.8106 4.62734 9.68065C4.42907 9.59355 4.25135 9.48142 4.06755 9.36708C4.00113 9.32688 3.9347 9.28668 3.86626 9.24526C3.73116 9.16308 3.59607 9.08088 3.46099 8.99867C3.39561 8.95912 3.33023 8.91956 3.26287 8.8788C3.20475 8.84343 3.14664 8.80806 3.08676 8.77162C2.93629 8.68019 2.93629 8.68019 2.75041 8.62489C2.72118 10.2743 2.69916 11.9236 2.68565 13.5732C2.67921 14.3392 2.67044 15.105 2.65612 15.8709C2.64364 16.5387 2.63559 17.2063 2.6328 17.8742C2.63118 18.2277 2.62737 18.5809 2.61825 18.9343C2.51026 20.2971 2.51026 20.2971 2.87304 21.5648C3.16015 21.8416 3.47331 21.9804 3.85489 22.0827C4.04972 22.1392 4.20657 22.2359 4.37493 22.3473C4.47663 22.4073 4.57835 22.4673 4.6801 22.5272C4.79583 22.5955 4.91155 22.6638 5.02727 22.7321C5.08477 22.766 5.14228 22.7999 5.20153 22.8348C5.48876 23.0043 5.77583 23.174 6.06291 23.3436C6.1775 23.4114 6.29208 23.4791 6.40666 23.5468C6.63583 23.6822 6.865 23.8176 7.09416 23.953C7.15086 23.9865 7.20755 24.02 7.26596 24.0545C7.3808 24.1224 7.49564 24.1903 7.61048 24.2581C7.89302 24.4251 8.17559 24.592 8.45818 24.7589C9.15889 25.1728 9.85922 25.5873 10.5592 26.0024C10.8966 26.2025 11.2342 26.4023 11.5722 26.6015C11.6624 26.6546 11.6624 26.6546 11.7544 26.7088C11.8696 26.7767 11.9848 26.8446 12.1 26.9124C12.4818 27.1378 12.8595 27.3689 13.2338 27.6066C13.3663 27.6977 13.3663 27.6977 13.5004 27.6874C13.5017 27.6379 13.5029 27.5884 13.5042 27.5374C13.5101 27.3127 13.517 27.0879 13.5239 26.8632C13.5258 26.7853 13.5277 26.7074 13.5297 26.6272C13.5333 26.5145 13.5333 26.5145 13.537 26.3996C13.539 26.3305 13.541 26.2614 13.543 26.1903C13.5705 25.9276 13.6251 25.7502 13.8129 25.5624C14.0156 25.5083 14.1545 25.4923 14.3598 25.539C14.5437 25.6514 14.5615 25.7332 14.6254 25.9374C14.6453 26.1335 14.6453 26.1335 14.6513 26.3507C14.6537 26.4287 14.6561 26.5066 14.6586 26.5869C14.6615 26.7082 14.6615 26.7082 14.6645 26.8319C14.6669 26.914 14.6693 26.996 14.6718 27.0806C14.6777 27.2828 14.683 27.4851 14.6879 27.6874C14.9157 27.6019 15.1206 27.4993 15.3305 27.3764C15.3931 27.3398 15.4557 27.3033 15.5202 27.2656C15.6187 27.2076 15.6187 27.2076 15.7192 27.1483C15.7862 27.1089 15.8532 27.0694 15.9222 27.0287C16.0549 26.9504 16.1875 26.872 16.32 26.7936C16.4718 26.7042 16.6243 26.6164 16.7775 26.5294C16.8505 26.4871 16.9235 26.4447 16.9965 26.4022C17.0882 26.3499 17.0882 26.3499 17.1818 26.2965C17.3242 26.1973 17.3242 26.1973 17.3642 26.0363C17.3749 25.8817 17.3772 25.7328 17.3715 25.578C17.3619 23.7795 18.028 22.1238 19.2699 20.8241C20.5064 19.643 22.128 19.0208 23.8285 18.9843C24.3667 19.0042 24.9024 19.0685 25.4379 19.1249C25.4379 15.4124 25.4379 11.6999 25.4379 7.87489C24.9017 7.56552 24.3654 7.25614 23.8129 6.93739C23.5244 6.76647 23.2364 6.59537 22.9496 6.42177C22.8851 6.38286 22.8205 6.34394 22.754 6.30385C22.6371 6.23342 22.5203 6.16294 22.4035 6.09236C22.353 6.06185 22.3025 6.03133 22.2504 5.99989C22.1949 5.96503 22.1394 5.93016 22.0823 5.89424C21.8191 5.74503 21.7056 5.86647 21.4592 6.01186ZM6.62541 10.9374C6.60476 11.4266 6.59057 11.9157 6.58078 12.4053C6.57716 12.5718 6.57117 12.7378 6.56412 12.9043C6.48572 13.7561 6.48572 13.7561 6.69646 14.5565C6.90433 14.7652 7.16475 14.8457 7.43791 14.9374C7.55979 15.0062 7.68006 15.078 7.79827 15.153C7.91248 15.2205 8.02674 15.288 8.14104 15.3554C8.19824 15.3892 8.25544 15.4231 8.31438 15.458C8.37094 15.4914 8.42749 15.5248 8.48577 15.5592C8.53525 15.5884 8.58474 15.6177 8.63573 15.6478C8.88065 15.7889 9.128 15.9256 9.37541 16.0624C9.40751 15.6122 9.43181 15.1622 9.44666 14.711C9.4538 14.5012 9.46415 14.2927 9.47914 14.0833C9.5752 13.1654 9.5752 13.1654 9.24735 12.3478C8.91972 12.0832 8.55303 11.9143 8.16488 11.7564C7.95943 11.6702 7.78395 11.5648 7.59709 11.444C7.54569 11.4128 7.49429 11.3815 7.44133 11.3494C7.34033 11.2878 7.23943 11.2261 7.1386 11.1643C7.08881 11.1342 7.03902 11.104 6.98772 11.0729C6.94476 11.0466 6.9018 11.0204 6.85753 10.9933C6.75209 10.9277 6.75209 10.9277 6.62541 10.9374ZM19.7692 21.9354C18.7304 23.1864 18.4014 24.6515 18.5004 26.2499C18.6511 27.4343 19.2358 28.4716 20.0629 29.3124C20.1342 29.3849 20.1342 29.3849 20.207 29.4589C21.2296 30.4379 22.5955 30.9093 23.9966 30.897C25.5207 30.8538 26.8766 30.1786 27.9184 29.078C28.9485 27.8875 29.3547 26.4236 29.2504 24.8749C29.0918 23.4773 28.3756 22.2249 27.3129 21.3124C26.7368 20.8605 26.1316 20.5416 25.4379 20.3124C25.3763 20.2912 25.3146 20.27 25.2511 20.2482C23.3116 19.6907 21.0845 20.4406 19.7692 21.9354Z" fill="#9E9E9E"/>
<path d="M24.262 21.2426C24.4468 21.4593 24.4548 21.5929 24.4378 21.8754C24.3624 22.0843 24.3178 22.1221 24.1253 22.2504C23.9962 22.2694 23.867 22.2878 23.7374 22.3026C22.8524 22.4063 22.0616 22.705 21.4495 23.3781C20.8584 24.1772 20.6039 25.0133 20.7406 26.0075C20.8774 26.8316 21.2815 27.4903 21.9188 28.0234C22.7004 28.5771 23.5051 28.7071 24.4378 28.6254C24.7053 28.5716 24.9408 28.4901 25.1878 28.3754C25.2624 28.3415 25.2624 28.3415 25.3385 28.3068C26.1259 27.9084 26.6311 27.2774 26.9072 26.4474C27.1352 25.6644 27.0831 24.766 26.7044 24.0436C26.4167 23.5523 26.0996 23.1842 25.6644 22.8246C25.4617 22.6558 25.4439 22.6169 25.4144 22.3559C25.4378 22.1254 25.4378 22.1254 25.5628 21.9418C25.7565 21.8087 25.883 21.7622 26.1192 21.7795C26.3803 21.8461 26.5547 22.0095 26.7503 22.1879C26.8008 22.2319 26.8512 22.2759 26.9031 22.3212C27.8119 23.1632 28.2162 24.3009 28.2698 25.5238C28.2324 26.7796 27.7181 27.9092 26.8145 28.7768C25.9741 29.4925 24.8505 29.9412 23.7335 29.8925C22.6921 29.7882 21.8104 29.5003 21.0003 28.8129C20.9502 28.7752 20.9001 28.7375 20.8485 28.6987C20.0526 28.0262 19.5912 26.947 19.4861 25.9245C19.4012 24.6958 19.7492 23.5222 20.5579 22.5776C21.3161 21.7624 23.1193 20.5704 24.262 21.2426Z" fill="#9E9E9E"/>
<path d="M25.875 23.9373C26.0381 24.1157 26.0612 24.2156 26.0703 24.4568C25.9185 24.9545 25.4265 25.3337 25.0659 25.6966C25.0201 25.7427 24.9743 25.7889 24.9271 25.8364C24.8311 25.9331 24.735 26.0296 24.6388 26.126C24.4917 26.2737 24.3453 26.422 24.199 26.5703C24.1052 26.6645 24.0114 26.7587 23.9175 26.8528C23.874 26.8971 23.8305 26.9413 23.7857 26.9869C23.5265 27.2449 23.3308 27.4283 22.9504 27.4448C22.6392 27.336 22.4543 27.1143 22.2305 26.8787C22.185 26.8323 22.1395 26.7859 22.0927 26.7382C21.6967 26.3312 21.6967 26.3312 21.6641 26.0427C21.6875 25.8123 21.6875 25.8123 21.8281 25.6326C22.0809 25.4373 22.0809 25.4373 22.25 25.4373C22.5791 25.545 22.7659 25.6748 23 25.9373C23.1839 25.8545 23.3117 25.7654 23.4523 25.6212C23.4902 25.5826 23.5282 25.5441 23.5673 25.5043C23.6076 25.4628 23.6479 25.4212 23.6895 25.3784C23.7758 25.2908 23.8621 25.2032 23.9485 25.1156C24.084 24.9774 24.2194 24.839 24.3546 24.7004C24.4853 24.5666 24.6167 24.4335 24.748 24.3003C24.7884 24.2586 24.8287 24.217 24.8702 24.1741C24.9082 24.1357 24.9461 24.0973 24.9852 24.0577C25.0183 24.0238 25.0515 23.9899 25.0856 23.955C25.3468 23.7494 25.5815 23.8199 25.875 23.9373Z" fill="#9E9E9E"/>
<path d="M4.56289 17.8748C4.76036 18.0336 4.8576 18.1339 4.93789 18.3748C4.94544 18.5456 4.94964 18.7148 4.95058 18.8857C4.95094 18.9359 4.95129 18.9861 4.95166 19.0378C4.95225 19.144 4.95266 19.2501 4.9529 19.3563C4.95351 19.518 4.95544 19.6797 4.95742 19.8414C4.95782 19.9447 4.95815 20.0481 4.95839 20.1514C4.95916 20.1994 4.95994 20.2475 4.96073 20.297C4.9595 20.5979 4.91352 20.8 4.75039 21.0623C4.58511 21.198 4.49852 21.1872 4.28164 21.1794C4.04353 21.1199 3.95999 21.0671 3.81289 20.8748C3.73323 20.6358 3.73901 20.4095 3.73769 20.1604C3.73733 20.1087 3.73698 20.057 3.73661 20.0037C3.73602 19.8943 3.73561 19.7849 3.73537 19.6756C3.73476 19.5086 3.73282 19.3417 3.73085 19.1748C3.73045 19.0684 3.73012 18.9621 3.72988 18.8557C3.72911 18.806 3.72833 18.7562 3.72754 18.705C3.72868 18.4183 3.75179 18.2321 3.93789 17.9998C4.17229 17.8435 4.2853 17.8413 4.56289 17.8748Z" fill="#9E9E9E"/>
<path d="M6.81215 19.0002C6.94886 19.0908 6.94886 19.0908 7.06215 19.2502C7.1002 19.4505 7.09867 19.6482 7.09755 19.8515C7.09814 19.9394 7.09814 19.9394 7.09873 20.029C7.09917 20.1527 7.09897 20.2764 7.09818 20.4001C7.09731 20.5892 7.09944 20.7781 7.10183 20.9671C7.10189 21.0875 7.10177 21.2078 7.10146 21.3281C7.10229 21.3845 7.10312 21.4409 7.10397 21.499C7.09979 21.7819 7.09154 21.9002 6.91164 22.1296C6.66284 22.3148 6.55346 22.2936 6.24965 22.2502C6.0977 22.1333 6.02211 22.0451 5.93715 21.8752C5.92866 21.6875 5.92385 21.5013 5.92226 21.3134C5.92176 21.2575 5.92125 21.2015 5.92073 21.1439C5.91987 21.0253 5.9192 20.9067 5.91871 20.7881C5.91763 20.607 5.91489 20.426 5.91213 20.245C5.9115 20.1298 5.91096 20.0146 5.91054 19.8994C5.90945 19.8453 5.90835 19.7913 5.90723 19.7356C5.90814 19.4807 5.9169 19.346 6.0521 19.1237C6.30017 18.8969 6.49795 18.9285 6.81215 19.0002Z" fill="#9E9E9E"/>
</g>
<defs>
<clipPath id="clip0_210_16388">
<rect width="32" height="32" fill="white"/>
</clipPath>
</defs>
</svg>
