<svg width="32" height="32" viewBox="0 0 32 32" fill="none" xmlns="http://www.w3.org/2000/svg">
<path d="M17 10.5003C15.8292 10.4916 14.6584 10.4849 13.4876 10.4809C12.9439 10.4789 12.4002 10.4763 11.8566 10.472C11.3825 10.4683 10.9085 10.4658 10.4344 10.465C10.1836 10.4645 9.93276 10.4634 9.68192 10.4606C9.44542 10.4581 9.20897 10.4573 8.97245 10.4579C8.88604 10.4578 8.79962 10.457 8.71322 10.4556C7.95151 10.4435 7.55005 10.6441 7.00049 11.1568C6.88929 11.2671 6.77877 11.3781 6.66881 11.4896C6.60729 11.5511 6.54573 11.6125 6.48411 11.6739C6.31855 11.8391 6.15376 12.0051 5.98913 12.1713C5.81626 12.3455 5.6427 12.519 5.46922 12.6926C5.17856 12.9836 4.88837 13.2752 4.5985 13.567C4.22621 13.9418 3.8532 14.3159 3.47995 14.6898C3.1587 15.0115 2.83774 15.3336 2.51685 15.6557C2.44801 15.7248 2.37916 15.7938 2.31031 15.8629C2.1144 16.0594 1.91865 16.2561 1.72314 16.453C1.63552 16.5412 1.54775 16.6292 1.45997 16.7173C1.4082 16.7695 1.35643 16.8217 1.30309 16.8755C1.25787 16.921 1.21264 16.9665 1.16605 17.0134C0.944227 17.2532 0.989856 17.5151 0.988937 17.8245C0.988527 17.8841 0.988117 17.9437 0.987694 18.005C0.986459 18.2028 0.98573 18.4006 0.985107 18.5984C0.984853 18.666 0.984597 18.7335 0.984335 18.8031C0.98303 19.1607 0.982137 19.5182 0.981552 19.8758C0.980861 20.2449 0.978713 20.6139 0.976229 20.983C0.974593 21.2669 0.974071 21.5509 0.973846 21.8348C0.973542 21.9709 0.972817 22.1069 0.971657 22.2429C0.970131 22.4336 0.970193 22.6243 0.970627 22.815C0.969826 22.8709 0.969026 22.9268 0.968201 22.9843C0.971799 23.4202 1.08357 23.7479 1.3728 24.0779C1.41349 24.1116 1.45417 24.1453 1.49609 24.18C1.53662 24.2146 1.57714 24.2493 1.6189 24.285C1.87533 24.4617 2.09818 24.516 2.40747 24.5125C2.50324 24.5119 2.50324 24.5119 2.60095 24.5113C2.69987 24.5097 2.69987 24.5097 2.80078 24.5081C2.86793 24.5075 2.93509 24.507 3.00427 24.5064C3.16953 24.5049 3.33476 24.5029 3.5 24.5003C3.50626 24.5394 3.51252 24.5786 3.51897 24.6189C3.58524 24.993 3.68713 25.3052 3.86328 25.6409C3.88395 25.6827 3.90461 25.7244 3.9259 25.7674C4.37232 26.6414 5.16228 27.1432 6.07869 27.4416C6.31358 27.5006 6.51029 27.5158 6.75189 27.5157C6.81517 27.5159 6.81517 27.5159 6.87973 27.5161C7.02061 27.5164 7.16147 27.5159 7.30235 27.5153C7.40455 27.5154 7.50676 27.5155 7.60897 27.5157C7.88946 27.5159 8.16994 27.5154 8.45043 27.5148C8.75304 27.5143 9.05566 27.5144 9.35827 27.5145C9.88244 27.5146 10.4066 27.5142 10.9308 27.5135C11.6886 27.5125 12.4465 27.5122 13.2044 27.512C14.434 27.5117 15.6636 27.5109 16.8931 27.5097C18.0876 27.5086 19.282 27.5077 20.4764 27.5072C20.55 27.5071 20.6236 27.5071 20.6995 27.5071C21.0689 27.5069 21.4382 27.5067 21.8076 27.5066C24.8717 27.5053 27.9359 27.5031 31 27.5003C31 27.1703 31 26.8403 31 26.5003C27.3184 26.4694 27.3184 26.4694 23.5625 26.4378C23.7069 26.2728 23.8512 26.1078 24 25.9378C24.1204 25.7332 24.1204 25.7332 24.207 25.5394C24.2364 25.4757 24.2658 25.4121 24.2961 25.3465C24.3951 25.0688 24.4491 24.7901 24.5 24.5003C24.5409 24.5016 24.5819 24.5029 24.624 24.5043C24.8118 24.5095 24.9996 24.5127 25.1875 24.5159C25.2519 24.518 25.3162 24.5201 25.3826 24.5223C25.8726 24.5285 26.2057 24.4534 26.5776 24.1275C26.6113 24.0868 26.645 24.0461 26.6797 24.0042C26.7143 23.9637 26.749 23.9232 26.7847 23.8814C26.9918 23.5807 27.0178 23.3065 27.0142 22.9491C27.0142 22.9009 27.0142 22.8527 27.0142 22.803C27.0142 22.6444 27.0132 22.4858 27.0122 22.3272C27.012 22.2169 27.0118 22.1067 27.0117 21.9964C27.0112 21.7068 27.01 21.4171 27.0086 21.1275C27.0073 20.8317 27.0067 20.5359 27.0061 20.2402C27.0048 19.6602 27.0026 19.0803 27 18.5003C26.67 18.5003 26.34 18.5003 26 18.5003C25.9981 18.7023 25.9981 18.7023 25.9962 18.9084C25.9921 19.3537 25.9872 19.799 25.982 20.2443C25.9789 20.5142 25.976 20.7842 25.9736 21.0541C25.9713 21.3147 25.9684 21.5753 25.9651 21.8358C25.964 21.9352 25.963 22.0345 25.9623 22.1339C25.9612 22.2732 25.9594 22.4124 25.9574 22.5517C25.9566 22.631 25.9558 22.7102 25.9549 22.7919C25.938 22.9941 25.906 23.1336 25.8125 23.3128C25.5565 23.4676 25.2721 23.4644 24.9805 23.4769C24.911 23.4805 24.911 23.4805 24.8402 23.4842C24.7268 23.49 24.6134 23.4952 24.5 23.5003C24.4952 23.45 24.4952 23.45 24.4902 23.3987C24.3617 22.511 23.8711 21.71 23.1641 21.1761C22.4969 20.7097 21.8405 20.4633 21.0195 20.469C20.9597 20.4694 20.8999 20.4698 20.8383 20.4701C20.0281 20.4903 19.3835 20.7354 18.75 21.2503C18.698 21.2895 18.6459 21.3286 18.5923 21.3689C17.9409 21.9217 17.662 22.6901 17.5 23.5003C15.19 23.5003 12.88 23.5003 10.5 23.5003C10.4587 23.294 10.4175 23.0878 10.375 22.8753C10.3019 22.6969 10.2295 22.533 10.1406 22.3636C10.1182 22.3202 10.0957 22.2768 10.0726 22.2321C9.63895 21.4145 8.90499 20.8737 8.02637 20.5894C7.68789 20.4902 7.37095 20.4666 7.01953 20.469C6.95973 20.4694 6.89993 20.4698 6.83832 20.4701C6.02814 20.4903 5.38349 20.7354 4.75 21.2503C4.69795 21.2895 4.64591 21.3286 4.59229 21.3689C3.96438 21.9018 3.61624 22.7005 3.5 23.5003C3.33979 23.4931 3.17968 23.4852 3.01953 23.4769C2.95192 23.474 2.95192 23.474 2.88293 23.471C2.51966 23.4515 2.51966 23.4515 2.1875 23.3128C2.06426 23.0715 2.04575 22.8664 2.04257 22.5976C2.04133 22.5176 2.04009 22.4375 2.03881 22.355C2.03807 22.2683 2.03734 22.1815 2.03662 22.0948C2.03545 22.0055 2.03423 21.9163 2.03295 21.8271C2.02975 21.5929 2.02727 21.3588 2.02494 21.1246C2.02244 20.8854 2.01925 20.6461 2.01611 20.4069C2.01007 19.938 2.0048 19.4692 2 19.0003C2.04024 19.0005 2.08048 19.0008 2.12194 19.001C3.10159 19.0065 4.08123 19.0107 5.06089 19.0132C5.53465 19.0145 6.0084 19.0163 6.48215 19.0192C6.89513 19.0217 7.3081 19.0233 7.72108 19.0238C7.93971 19.0241 8.15831 19.0249 8.37693 19.0267C8.62114 19.0287 8.86532 19.0288 9.10953 19.0287C9.18182 19.0296 9.25411 19.0305 9.32858 19.0314C9.70657 19.0295 9.962 19.0223 10.25 18.7503C10.4962 18.4632 10.5363 18.2236 10.5323 17.8567C10.5328 17.8061 10.5332 17.7554 10.5337 17.7032C10.5348 17.5366 10.534 17.37 10.5332 17.2034C10.5334 17.0871 10.5336 16.9709 10.5339 16.8546C10.5343 16.6112 10.5338 16.3679 10.5326 16.1246C10.5312 15.8131 10.532 15.5017 10.5335 15.1902C10.5344 14.9502 10.5341 14.7102 10.5335 14.4702C10.5333 14.3554 10.5335 14.2406 10.5341 14.1258C10.5347 13.9651 10.5337 13.8045 10.5323 13.6439C10.5329 13.5967 10.5334 13.5495 10.5339 13.501C10.5287 13.1794 10.4516 12.9985 10.25 12.7503C9.94015 12.4787 9.6849 12.4628 9.2915 12.4622C9.23654 12.4612 9.18158 12.4601 9.12496 12.4591C8.95049 12.4561 8.77605 12.4547 8.60156 12.4534C8.48283 12.4517 8.36409 12.4498 8.24536 12.4478C7.95524 12.4432 7.66514 12.4401 7.375 12.4378C7.50464 12.3031 7.63491 12.1691 7.76562 12.0355C7.80228 11.9972 7.83894 11.959 7.87671 11.9196C7.91256 11.8832 7.94841 11.8467 7.98535 11.8091C8.01808 11.7754 8.05081 11.7417 8.08453 11.707C8.32814 11.5137 8.63327 11.5523 8.9306 11.55C9.00592 11.549 9.00592 11.549 9.08276 11.5481C9.24495 11.5461 9.40714 11.5446 9.56934 11.543C9.66961 11.5419 9.76988 11.5407 9.87015 11.5395C10.2416 11.5352 10.613 11.5315 10.9844 11.5276C12.2296 11.5141 12.2296 11.5141 13.5 11.5003C13.5 13.9753 13.5 16.4503 13.5 19.0003C13.83 19.0003 14.16 19.0003 14.5 19.0003C14.5 16.5253 14.5 14.0503 14.5 11.5003C15.325 11.5003 16.15 11.5003 17 11.5003C17 11.1703 17 10.8403 17 10.5003ZM9.5 13.5003C9.5 14.9853 9.5 16.4703 9.5 18.0003C7.025 18.0003 4.55 18.0003 2 18.0003C2.06724 17.6641 2.18366 17.5138 2.40242 17.2679C2.43811 17.227 2.47381 17.1862 2.51058 17.1441C2.98067 16.6098 3.46584 16.0894 3.95703 15.5745C4.0039 15.5252 4.05077 15.4759 4.09905 15.4251C5.61096 13.7925 5.61096 13.7925 7.67148 13.1973C8.28688 13.2519 8.89326 13.3838 9.5 13.5003ZM22.6453 22.1097C23.0681 22.4962 23.4144 23.0863 23.4524 23.6644C23.4719 24.426 23.3804 25.0193 22.8733 25.6211C22.3751 26.143 21.8364 26.4343 21.1109 26.4704C20.4174 26.4831 19.8903 26.315 19.3516 25.8636C18.8884 25.416 18.5989 24.9116 18.5415 24.263C18.5332 23.4233 18.7061 22.8095 19.303 22.1937C20.2645 21.2914 21.6173 21.3357 22.6453 22.1097ZM8.79688 22.2581C9.33195 22.8249 9.4685 23.4956 9.45483 24.2427C9.42308 24.9316 9.06865 25.4526 8.58594 25.9183C7.99538 26.4032 7.36375 26.5144 6.62228 26.4528C5.95217 26.3708 5.43746 25.99 5.01172 25.4847C4.56248 24.862 4.46517 24.1874 4.5625 23.4378C4.72702 22.7481 5.16538 22.2159 5.76172 21.844C6.79772 21.2791 7.92441 21.4788 8.79688 22.2581ZM17.5 24.5003C17.6031 24.8097 17.7062 25.119 17.8125 25.4378C18.0224 25.8621 18.1942 26.1334 18.5 26.5003C15.53 26.5003 12.56 26.5003 9.5 26.5003C9.62375 26.3353 9.7475 26.1703 9.875 26.0003C9.95613 25.8595 10.0333 25.7162 10.1055 25.5706C10.1405 25.5012 10.1756 25.4317 10.2117 25.3602C10.3309 25.0824 10.4131 24.7899 10.5 24.5003C12.81 24.5003 15.12 24.5003 17.5 24.5003Z" fill="#9E9E9E"/>
<path d="M20.6477 5.67659C19.2619 6.7366 18.3521 8.15914 18.0261 9.87899C17.9155 10.9191 17.9248 11.9993 18.25 12.9996C18.2696 13.0602 18.2696 13.0602 18.2896 13.1221C18.619 14.1016 19.154 14.895 19.875 15.6246C19.9152 15.6693 19.9554 15.714 19.9968 15.7601C20.9232 16.7668 22.4527 17.4296 23.8103 17.5107C24.7346 17.5289 25.6144 17.5375 26.5 17.2496C26.5606 17.23 26.5606 17.23 26.6225 17.21C27.602 16.8806 28.3954 16.3456 29.125 15.6246C29.1921 15.5643 29.1921 15.5643 29.2605 15.5028C30.2432 14.5985 30.9342 13.0734 31.011 11.746C31.0509 9.63754 30.6459 7.96325 29.1603 6.38584C26.9293 4.08389 23.2456 3.87152 20.6477 5.67659ZM28.25 6.99959C28.2895 7.03399 28.3289 7.0684 28.3696 7.10384C29.3079 7.97146 29.8941 9.30715 29.9634 10.5699C30.0158 12.1762 29.6001 13.5555 28.5 14.7496C28.4485 14.8086 28.4485 14.8086 28.396 14.8687C27.5297 15.8075 26.1864 16.4001 24.9231 16.4608C23.3429 16.5042 22.014 16.1056 20.8125 15.0621C20.7658 15.0217 20.7192 14.9814 20.6711 14.9398C19.7175 14.0498 19.101 12.7193 19.0388 11.4227C18.9954 9.84252 19.394 8.51357 20.4375 7.31209C20.4778 7.26544 20.5182 7.2188 20.5598 7.17073C21.5197 6.14214 22.9447 5.56081 24.3362 5.49764C25.8164 5.51041 27.1508 6.00083 28.25 6.99959Z" fill="#9E9E9E"/>
<path d="M22.6899 6.92185C22.5373 7.0257 22.3932 7.13358 22.25 7.24997C22.1986 7.28864 22.1472 7.32732 22.0942 7.36716C21.5028 7.86825 21.058 8.66778 20.9879 9.44646C20.9612 10.2122 20.9845 10.8569 21.3125 11.5625C21.3319 11.6043 21.3514 11.6462 21.3714 11.6893C21.9347 12.8691 22.7238 13.8844 23.6062 14.8423C23.7303 14.9784 23.8503 15.1167 23.9687 15.2578C24.161 15.4789 24.1907 15.4929 24.4804 15.5273C24.7564 15.5228 24.887 15.4266 25.0813 15.2385C25.2684 15.0384 25.4483 14.8344 25.625 14.625C25.6765 14.5664 25.7281 14.5078 25.7812 14.4475C27.0051 13.0489 28.1094 11.3924 28.0148 9.47589C27.9548 8.8172 27.6633 8.25857 27.25 7.74997C27.2113 7.69857 27.1726 7.64717 27.1328 7.59421C26.0805 6.35242 24.0657 6.10869 22.6899 6.92185ZM26.4882 8.5156C26.9164 9.10699 27.0206 9.71629 26.9375 10.4375C26.5982 11.8695 25.5125 13.1075 24.5625 14.1875C24.1912 14.0367 23.9883 13.682 23.75 13.375C23.7059 13.319 23.7059 13.319 23.6609 13.2619C22.804 12.172 21.892 10.9585 22.0625 9.49997C22.2081 8.82563 22.607 8.30697 23.1608 7.90671C24.3001 7.19856 25.6489 7.51949 26.4882 8.5156Z" fill="#9E9E9E"/>
<path d="M23.7856 8.59423C23.4215 8.81423 23.1265 9.15608 23.0004 9.56298C22.9501 10.0527 22.9301 10.5392 23.2504 10.938C23.5507 11.2533 23.823 11.4758 24.2673 11.5215C24.7995 11.5273 25.1677 11.5078 25.5607 11.1335C25.9596 10.702 26.0305 10.3629 26.0195 9.77831C25.976 9.28693 25.7475 9.02863 25.3815 8.71581C24.94 8.4116 24.2758 8.37698 23.7856 8.59423ZM24.8364 9.66454C24.9684 9.85747 24.9762 9.9585 24.9379 10.188C24.8442 10.3442 24.8442 10.3442 24.6879 10.438C24.4584 10.4762 24.3574 10.4684 24.1645 10.3364C24.0325 10.1435 24.0247 10.0425 24.0629 9.81298C24.1567 9.65673 24.1567 9.65673 24.3129 9.56298C24.5424 9.52473 24.6434 9.53254 24.8364 9.66454Z" fill="#9E9E9E"/>
<path d="M31 22C30.175 22 29.35 22 28.5 22C28.5 22.33 28.5 22.66 28.5 23C29.325 23 30.15 23 31 23C31 22.67 31 22.34 31 22Z" fill="#9E9E9E"/>
<path d="M12 20C11.34 20 10.68 20 10 20C10 20.33 10 20.66 10 21C10.66 21 11.32 21 12 21C12 20.67 12 20.34 12 20Z" fill="#9E9E9E"/>
<path d="M30 20C29.505 20 29.01 20 28.5 20C28.5 20.33 28.5 20.66 28.5 21C28.995 21 29.49 21 30 21C30 20.67 30 20.34 30 20Z" fill="#9E9E9E"/>
<path d="M7.5 23.5C7.17 23.5 6.84 23.5 6.5 23.5C6.5 23.83 6.5 24.16 6.5 24.5C6.83 24.5 7.16 24.5 7.5 24.5C7.5 24.17 7.5 23.84 7.5 23.5Z" fill="#9E9E9E"/>
<path d="M21.5 23.5C21.17 23.5 20.84 23.5 20.5 23.5C20.5 23.83 20.5 24.16 20.5 24.5C20.83 24.5 21.16 24.5 21.5 24.5C21.5 24.17 21.5 23.84 21.5 23.5Z" fill="#9E9E9E"/>
<path d="M29.5 18C29.17 18 28.84 18 28.5 18C28.5 18.33 28.5 18.66 28.5 19C28.83 19 29.16 19 29.5 19C29.5 18.67 29.5 18.34 29.5 18Z" fill="#9E9E9E"/>
</svg>
