<svg width="25" height="25" viewBox="0 0 25 25" fill="none" xmlns="http://www.w3.org/2000/svg">
<path d="M15.6938 24.4142L17.4247 23.7821C17.8048 23.6439 18.0129 23.2369 17.905 22.8484L17.3363 20.1249C17.2908 19.9564 17.3421 19.7794 17.4686 19.6631L19.1869 18.0857C19.2719 18.0073 19.3832 17.9661 19.4953 17.9661C19.5501 17.9661 19.6049 17.9754 19.6562 17.9938L22.2997 18.7835C22.3899 18.8171 22.4826 18.8332 22.5736 18.8323C22.8651 18.8315 23.1425 18.6638 23.2722 18.3857L24.0483 16.7147C24.2211 16.3481 24.0794 15.9125 23.728 15.7144L21.4233 14.2009C21.2733 14.1159 21.1831 13.9549 21.1915 13.7813L21.291 11.4513C21.2986 11.2785 21.4023 11.1268 21.5573 11.0544L24.0078 9.73482C24.376 9.56795 24.5522 9.14495 24.4139 8.76657L23.7828 7.03492C23.669 6.72217 23.3723 6.52586 23.0538 6.52679C22.9855 6.52764 22.9164 6.53598 22.8482 6.55548L20.1246 7.12257C20.0841 7.13439 20.0428 7.14029 20.0024 7.14029C19.876 7.14114 19.7529 7.08723 19.6636 6.99123L18.0878 5.27373C17.9698 5.1466 17.9335 4.96529 17.995 4.80442L18.7838 2.16001C18.9246 1.78173 18.7527 1.36032 18.3852 1.18923L16.7142 0.41148C16.608 0.362542 16.4959 0.339011 16.3855 0.339011C16.1151 0.340605 15.8555 0.483949 15.7148 0.733324L14.2005 3.03892C14.1187 3.18217 13.9671 3.27057 13.8027 3.27142H13.7826L11.4516 3.17035C11.2797 3.16192 11.1246 3.05832 11.054 2.90242L9.73527 0.453386C9.60637 0.168574 9.32399 -0.00158265 9.02821 1.10976e-05C8.9414 1.10976e-05 8.85299 0.0151986 8.76702 0.0463236L7.03612 0.679136C6.65605 0.817417 6.44709 1.22354 6.55668 1.61204L7.12462 4.33642C7.17093 4.50245 7.11955 4.6802 6.99234 4.79654L5.27409 6.37407C5.18737 6.45329 5.07777 6.49464 4.9648 6.49548C4.9109 6.49548 4.85615 6.48536 4.80299 6.46511L2.16037 5.67807C2.07027 5.64348 1.97755 5.62754 1.88652 5.62754C1.5958 5.62914 1.31934 5.79611 1.18884 6.07417L0.412679 7.74601C0.240742 8.11173 0.381461 8.54654 0.732929 8.74623L3.03768 10.2606C3.18852 10.3449 3.27787 10.5058 3.26934 10.6769L3.16996 13.0086C3.16321 13.1805 3.05784 13.333 2.90277 13.4055L0.452336 14.7251C0.0849295 14.8919 -0.0912268 15.3142 0.0469607 15.6925L0.67818 17.4242C0.792742 17.7369 1.08937 17.9349 1.40793 17.934C1.47534 17.9332 1.54359 17.923 1.61184 17.9037L4.33705 17.3358C4.37671 17.3248 4.41712 17.3189 4.45677 17.3189C4.58399 17.3189 4.70784 17.3712 4.79634 17.4672L6.37302 19.1863C6.49096 19.3127 6.52546 19.4948 6.46574 19.6566L5.67693 22.2992C5.5363 22.6776 5.70899 23.0997 6.07555 23.2718L7.74571 24.0486C7.85268 24.0975 7.9648 24.121 8.07515 24.121C8.34571 24.1194 8.60521 23.9769 8.74509 23.7276L10.2594 21.4228C10.3402 21.2796 10.4903 21.1901 10.6529 21.1901H10.6782L13.0083 21.2904C13.181 21.2972 13.3352 21.4008 13.4069 21.5575L14.7257 24.0081C14.8554 24.2912 15.1369 24.4614 15.4335 24.4606C15.5195 24.4597 15.6079 24.4453 15.6938 24.4142ZM14.4112 21.046C14.1543 20.5244 13.6386 20.1881 13.0562 20.1654L10.7346 20.066C10.706 20.0643 10.6774 20.0626 10.6487 20.0626C10.1017 20.066 9.5894 20.3559 9.30449 20.8227L7.94287 22.8966L6.82884 22.3783L7.53843 20.0045C7.72462 19.4526 7.5973 18.85 7.20384 18.4253L5.62977 16.7088C5.32884 16.3784 4.90002 16.1905 4.45246 16.193C4.32777 16.193 4.20299 16.2082 4.08252 16.2385L1.63115 16.7492L1.21143 15.5964L3.41587 14.4099C3.93749 14.1495 4.27377 13.6329 4.29487 13.0557L4.39518 10.7308C4.42293 10.1477 4.13221 9.60498 3.63421 9.30329L1.5629 7.94317L2.0803 6.82914L4.45752 7.53864C4.62271 7.59432 4.79455 7.62123 4.96987 7.62123C5.36418 7.61954 5.74096 7.47301 6.0359 7.20329L7.74909 5.63082C8.18305 5.23651 8.36174 4.64664 8.22102 4.08029L7.71121 1.63145L8.86396 1.21014L10.0495 3.41448C10.3074 3.93451 10.8215 4.2707 11.4038 4.29507L13.7372 4.39623L13.8071 4.39792C14.3583 4.39539 14.8715 4.10382 15.1563 3.6361L16.5181 1.56226L17.6321 2.08042L16.9234 4.45267C16.7346 5.00542 16.8611 5.60711 17.2571 6.03348L18.8337 7.75173C19.1345 8.08117 19.5626 8.26829 20.0067 8.26576C20.1332 8.26492 20.2579 8.24982 20.3809 8.22114L22.8297 7.70964L23.2493 8.86323L21.044 10.0514C20.5292 10.3076 20.1937 10.8183 20.1651 11.4031L20.0647 13.7263C20.0369 14.3104 20.3277 14.853 20.8266 15.1564L22.897 16.5173L22.3796 17.6321L20.0032 16.9218C19.8381 16.8661 19.6662 16.8384 19.4901 16.8392C19.0931 16.8399 18.7139 16.99 18.4249 17.2554L16.7049 18.8338C16.2777 19.2281 16.1016 19.8164 16.239 20.3793L16.7505 22.8297L15.5968 23.2494L14.4112 21.046Z" fill="#1E3A5F"/>
<path d="M17.1358 14.5127C17.7451 13.2014 17.8083 11.7318 17.3128 10.375C16.8165 9.0175 15.823 7.93375 14.5151 7.32616C13.7846 6.98491 13.0093 6.81381 12.2112 6.81719C11.5877 6.81972 10.9708 6.93091 10.3776 7.14756C9.01838 7.64303 7.93473 8.63659 7.32545 9.94694C6.71616 11.2557 6.65298 12.7244 7.1476 14.0845C7.64485 15.4429 8.63926 16.5266 9.94707 17.1342C10.6768 17.4738 11.452 17.6456 12.25 17.6423C12.8745 17.6389 13.4914 17.5278 14.0855 17.3119C15.4413 16.8166 16.5241 15.8222 17.1358 14.5127ZM13.6986 16.2536C13.2259 16.4264 12.7346 16.5132 12.245 16.5149C11.623 16.5183 11.0028 16.3833 10.4223 16.1129C9.38495 15.63 8.5996 14.7721 8.20604 13.6977C7.8151 12.6216 7.86385 11.4588 8.34676 10.4222C8.82966 9.38397 9.68832 8.59694 10.7627 8.206C11.2362 8.03237 11.7276 7.94556 12.2164 7.94388C12.8383 7.94125 13.4576 8.07616 14.0382 8.34672C15.0747 8.82953 15.8618 9.68744 16.2545 10.7618C16.6464 11.8371 16.5965 12.9992 16.1145 14.0373C15.63 15.0747 14.773 15.861 13.6986 16.2536Z" fill="#1E3A5F"/>
</svg>
