<svg width="32" height="32" viewBox="0 0 32 32" fill="none" xmlns="http://www.w3.org/2000/svg">
<path d="M18.1283 5.49034L20.3943 10.0223C20.7033 10.6532 21.5273 11.2583 22.2226 11.3742L26.3297 12.0566C28.9562 12.4943 29.5742 14.3998 27.6816 16.2796L24.4886 19.4726C23.9478 20.0133 23.6517 21.0562 23.8191 21.803L24.7332 25.7556C25.4542 28.8842 23.7933 30.0945 21.0252 28.4593L17.1756 26.1805C16.4803 25.7685 15.3345 25.7685 14.6263 26.1805L10.7767 28.4593C8.02147 30.0945 6.34772 28.8713 7.06872 25.7556L7.98284 21.803C8.15022 21.0562 7.85409 20.0133 7.31334 19.4726L4.12034 16.2796C2.24059 14.3998 2.84572 12.4943 5.47222 12.0566L9.57934 11.3742C10.2617 11.2583 11.0857 10.6532 11.3947 10.0223L13.6607 5.49034C14.8967 3.03121 16.9052 3.03121 18.1283 5.49034Z" stroke="#FF6F3C" stroke-width="1.93125" stroke-linecap="round" stroke-linejoin="round"/>
</svg>
