<svg width="24" height="25" viewBox="0 0 24 25" fill="none" xmlns="http://www.w3.org/2000/svg">
<path d="M12 12.5L16 8.5M16 8.5V5.5L18 3.5L19 5.5L21 6.5L19 8.5H16Z" stroke="#FF6F3C" stroke-linecap="round" stroke-linejoin="round"/>
<path d="M21 12.5C21 14.28 20.4722 16.0201 19.4832 17.5001C18.4943 18.9802 17.0887 20.1337 15.4442 20.8149C13.7996 21.4961 11.99 21.6743 10.2442 21.3271C8.49836 20.9798 6.89472 20.1226 5.63604 18.864C4.37737 17.6053 3.5202 16.0016 3.17294 14.2558C2.82567 12.51 3.0039 10.7004 3.68509 9.05585C4.36628 7.41131 5.51983 6.00571 6.99987 5.01677C8.47991 4.02784 10.22 3.5 12 3.5" stroke="#FF6F3C" stroke-linecap="round" stroke-linejoin="round"/>
<path d="M16 12.5C16 13.2911 15.7654 14.0645 15.3259 14.7223C14.8864 15.3801 14.2616 15.8928 13.5307 16.1955C12.7998 16.4983 11.9956 16.5775 11.2196 16.4231C10.4437 16.2688 9.73098 15.8878 9.17157 15.3284C8.61216 14.769 8.2312 14.0563 8.07686 13.2804C7.92252 12.5044 8.00173 11.7002 8.30448 10.9693C8.60723 10.2384 9.11993 9.61365 9.77772 9.17412C10.4355 8.7346 11.2089 8.5 12 8.5" stroke="#FF6F3C" stroke-linecap="round" stroke-linejoin="round"/>
</svg>
