<svg width="24" height="25" viewBox="0 0 24 25" fill="none" xmlns="http://www.w3.org/2000/svg">
<g clip-path="url(#clip0_294_6735)">
<path d="M6.52123 5.14348V1.80435C6.52123 1.07391 7.09514 0.5 7.82558 0.5C8.55601 0.5 9.12992 1.07391 9.12992 1.80435V5.14348C9.12992 5.87391 8.55601 6.44783 7.82558 6.44783C7.09514 6.44783 6.52123 5.87391 6.52123 5.14348ZM16.1734 6.44783C16.9038 6.44783 17.4778 5.87391 17.4778 5.14348V1.80435C17.4778 1.07391 16.9038 0.5 16.1734 0.5C15.443 0.5 14.8691 1.07391 14.8691 1.80435V5.14348C14.8691 5.87391 15.443 6.44783 16.1734 6.44783ZM7.35601 10.9348H16.6169C17.1908 10.9348 17.6604 10.4652 17.6604 9.8913C17.6604 9.31739 17.1908 8.84783 16.6169 8.84783H7.35601C6.7821 8.84783 6.31253 9.31739 6.31253 9.8913C6.31253 10.4652 6.7821 10.9348 7.35601 10.9348ZM21.9125 2.32609H19.7473C19.1734 2.32609 18.7038 2.79565 18.7038 3.36957C18.7038 3.94348 19.1734 4.41304 19.7473 4.41304H20.8691V22.1522H3.12993V4.41304H4.25166C4.82558 4.41304 5.29514 3.94348 5.29514 3.36957C5.29514 2.79565 4.82558 2.32609 4.25166 2.32609H2.08645C1.51253 2.32609 1.04297 2.9 1.04297 3.47391V23.1957C1.04297 23.7696 1.51253 24.2391 2.08645 24.2391H21.9125C22.4864 24.2391 22.956 23.7696 22.956 23.1957V3.47391C22.956 2.9 22.4864 2.32609 21.9125 2.32609ZM11.1386 4.41304H12.8604C13.4343 4.41304 13.9038 3.94348 13.9038 3.36957C13.9038 2.79565 13.4343 2.32609 12.8604 2.32609H11.1386C10.5647 2.32609 10.0951 2.79565 10.0951 3.36957C10.0951 3.94348 10.5647 4.41304 11.1386 4.41304ZM7.35601 15.6304H16.6169C17.1908 15.6304 17.6604 15.1609 17.6604 14.587C17.6604 14.013 17.1908 13.5435 16.6169 13.5435H7.35601C6.7821 13.5435 6.31253 14.013 6.31253 14.587C6.31253 15.1609 6.7821 15.6304 7.35601 15.6304Z" fill="#D85E2F"/>
</g>
<defs>
<clipPath id="clip0_294_6735">
<rect width="24" height="24" fill="white" transform="translate(0 0.5)"/>
</clipPath>
</defs>
</svg>
