<svg width="25" height="25" viewBox="0 0 25 25" fill="none" xmlns="http://www.w3.org/2000/svg">
<rect x="0.5" y="0.5" width="24" height="24" rx="8" fill="white"/>
<path d="M21.5 6.47998C18.17 6.14998 14.82 5.97998 11.48 5.97998C9.5 5.97998 7.52 6.07998 5.54 6.27998L3.5 6.47998" stroke="#999999" stroke-width="1.5" stroke-linecap="round" stroke-linejoin="round"/>
<path d="M9 5.47L9.22 4.16C9.38 3.21 9.5 2.5 11.19 2.5H13.81C15.5 2.5 15.63 3.25 15.78 4.17L16 5.47" stroke="#999999" stroke-width="1.5" stroke-linecap="round" stroke-linejoin="round"/>
<path d="M19.3504 9.64001L18.7004 19.71C18.5904 21.28 18.5004 22.5 15.7104 22.5H9.29039C6.50039 22.5 6.41039 21.28 6.30039 19.71L5.65039 9.64001" stroke="#999999" stroke-width="1.5" stroke-linecap="round" stroke-linejoin="round"/>
<path d="M10.8301 17H14.1601" stroke="#999999" stroke-width="1.5" stroke-linecap="round" stroke-linejoin="round"/>
<path d="M10 13H15" stroke="#999999" stroke-width="1.5" stroke-linecap="round" stroke-linejoin="round"/>
</svg>
