<svg width="18" height="24" viewBox="0 0 18 24" fill="none" xmlns="http://www.w3.org/2000/svg">
<path d="M9.17269 11.0788C9.0647 11.068 8.93511 11.068 8.81631 11.0788C6.24612 10.9925 4.20508 8.88662 4.20508 6.29482C4.20508 3.64903 6.34331 1.5 8.9999 1.5C11.6457 1.5 13.7947 3.64903 13.7947 6.29482C13.7839 8.88662 11.7429 10.9925 9.17269 11.0788Z" stroke="#1C48C1" stroke-width="1.35" stroke-linecap="round" stroke-linejoin="round"/>
<path d="M3.59506 14.7208C0.981661 16.4703 0.981661 19.3213 3.59506 21.0599C6.56482 23.047 11.4352 23.047 14.405 21.0599C17.0184 19.3105 17.0184 16.4595 14.405 14.7208C11.446 12.7446 6.57562 12.7446 3.59506 14.7208Z" stroke="#1C48C1" stroke-width="1.35" stroke-linecap="round" stroke-linejoin="round"/>
</svg>
