<svg width="32" height="32" viewBox="0 0 32 32" fill="none" xmlns="http://www.w3.org/2000/svg">
<g clip-path="url(#clip0_210_16396)">
<path d="M4.7607 14.663C4.84187 14.6624 4.92304 14.6618 5.00667 14.6611C5.09728 14.6614 5.18789 14.6617 5.2785 14.662C5.37434 14.6617 5.47019 14.6612 5.56603 14.6607C5.83009 14.6596 6.09414 14.6596 6.3582 14.6598C6.64272 14.6599 6.92723 14.6588 7.21175 14.6579C7.76942 14.6564 8.3271 14.6559 8.88477 14.6558C9.33793 14.6557 9.79109 14.6553 10.2443 14.6547C11.5282 14.653 12.8121 14.6522 14.096 14.6523C14.1652 14.6523 14.2345 14.6523 14.3058 14.6523C14.4099 14.6524 14.4099 14.6524 14.516 14.6524C15.6401 14.6524 16.7643 14.6506 17.8884 14.648C19.0418 14.6453 20.1952 14.644 21.3486 14.6442C21.9965 14.6442 22.6444 14.6437 23.2923 14.6417C23.8439 14.64 24.3954 14.6396 24.947 14.6409C25.2286 14.6415 25.5101 14.6415 25.7917 14.6399C26.0493 14.6384 26.3069 14.6386 26.5645 14.6403C26.6578 14.6406 26.7512 14.6402 26.8445 14.6392C27.5416 14.6319 27.5416 14.6319 27.7474 14.7674C27.8325 14.8664 27.8325 14.8664 27.9379 15.0621C27.9728 15.1206 28.0076 15.179 28.0436 15.2393C28.0748 15.3005 28.1061 15.3618 28.1383 15.4249C28.1745 15.4952 28.2107 15.5656 28.248 15.6381C28.2866 15.7143 28.3251 15.7905 28.3637 15.8668C28.4043 15.9463 28.445 16.0259 28.4857 16.1054C28.9013 16.919 29.3103 17.736 29.716 18.5546C29.8003 18.7246 29.8854 18.894 29.9725 19.0625C30.001 19.1177 30.0294 19.1729 30.0587 19.2298C30.0833 19.2767 30.1078 19.3235 30.1331 19.3718C30.2378 19.616 30.2209 19.8291 30.1449 20.0777C30.03 20.2309 29.9236 20.291 29.7504 20.3746C29.5819 20.3877 29.4295 20.3926 29.2621 20.3863C29.1972 20.385 29.1972 20.385 29.1309 20.3837C29.0249 20.3815 28.9189 20.3782 28.8129 20.3746C28.8131 20.4312 28.8132 20.4878 28.8134 20.5461C28.8176 21.9238 28.8207 23.3014 28.8226 24.679C28.8236 25.3452 28.8249 26.0115 28.827 26.6777C28.8289 27.2584 28.8301 27.8391 28.8305 28.4197C28.8308 28.7272 28.8314 29.0346 28.8327 29.3421C28.834 29.6316 28.8344 29.9211 28.8341 30.2105C28.8342 30.3167 28.8345 30.4228 28.8352 30.529C28.8362 30.6742 28.836 30.8193 28.8354 30.9645C28.8356 31.0457 28.8358 31.1269 28.836 31.2105C28.8089 31.4767 28.75 31.6386 28.6254 31.8746C28.3992 32.0254 28.2965 32.0154 28.0272 32.0158C27.9851 32.0161 27.943 32.0163 27.8996 32.0166C27.7574 32.0172 27.6153 32.017 27.4731 32.0167C27.3706 32.017 27.268 32.0173 27.1655 32.0177C26.8829 32.0186 26.6003 32.0187 26.3177 32.0187C26.0133 32.0188 25.7088 32.0196 25.4044 32.0203C24.7383 32.0217 24.0722 32.0222 23.4062 32.0226C22.9905 32.0228 22.5749 32.0232 22.1592 32.0236C21.0091 32.0248 19.8589 32.0259 18.7088 32.026C18.6352 32.0261 18.5615 32.0261 18.4856 32.0261C18.3363 32.0261 18.1871 32.0261 18.0378 32.0261C17.9636 32.0262 17.8895 32.0262 17.8132 32.0262C17.7019 32.0262 17.7019 32.0262 17.5883 32.0262C16.3854 32.0264 15.1824 32.0281 13.9794 32.0305C12.7453 32.0328 11.5111 32.0341 10.2769 32.0341C9.58356 32.0341 8.89026 32.0346 8.19696 32.0364C7.60671 32.038 7.01648 32.0384 6.42624 32.0375C6.12493 32.037 5.82364 32.0371 5.52234 32.0385C5.24668 32.0398 4.97106 32.0397 4.69541 32.0383C4.59552 32.0381 4.49562 32.0384 4.39574 32.0393C4.26021 32.0405 4.12483 32.0397 3.98931 32.0384C3.91397 32.0384 3.83862 32.0385 3.76099 32.0385C3.50604 31.9884 3.4132 31.8847 3.2504 31.6871C3.15534 31.4672 3.18022 31.2235 3.18038 30.987C3.18033 30.9417 3.18028 30.8963 3.18022 30.8495C3.18012 30.6974 3.18046 30.5453 3.1808 30.3932C3.18082 30.2842 3.18081 30.1752 3.18078 30.0661C3.18076 29.7701 3.18113 29.474 3.18156 29.1779C3.18195 28.8685 3.18199 28.5591 3.18206 28.2498C3.18226 27.6638 3.18277 27.0779 3.1834 26.492C3.1841 25.825 3.18444 25.158 3.18475 24.491C3.18541 23.1189 3.18651 21.7467 3.1879 20.3746C3.09182 20.3778 3.09182 20.3778 2.99381 20.3812C2.90877 20.3829 2.82372 20.3846 2.73868 20.3863C2.69658 20.3879 2.65449 20.3894 2.61112 20.3911C2.33108 20.3952 2.16108 20.3574 1.9379 20.1871C1.77649 19.9719 1.79571 19.7609 1.8129 19.4996C1.87572 19.3427 1.93943 19.2056 2.01993 19.0587C2.06622 18.9703 2.11244 18.8818 2.1586 18.7933C2.19607 18.7225 2.19607 18.7225 2.23429 18.6502C2.37564 18.3794 2.50968 18.105 2.64493 17.8311C2.70365 17.713 2.7624 17.5949 2.8212 17.4769C2.911 17.2965 3.00072 17.1161 3.09018 16.9356C4.21618 14.664 4.21618 14.664 4.7607 14.663ZM5.1254 15.9371C4.58723 16.9584 4.58723 16.9584 4.05271 17.9817C4.01161 18.0607 3.97041 18.1396 3.92911 18.2185C3.86783 18.3356 3.80688 18.4528 3.746 18.5701C3.71071 18.6379 3.67541 18.7056 3.63904 18.7754C3.55402 18.9261 3.55402 18.9261 3.5629 19.0621C6.80102 19.0621 10.0391 19.0621 13.3754 19.0621C13.6229 18.5671 13.8704 18.0721 14.1254 17.5621C14.5117 16.8286 14.5117 16.8286 14.6836 16.5095C14.7763 16.3224 14.8557 16.129 14.9379 15.9371C11.6998 15.9371 8.46165 15.9371 5.1254 15.9371ZM17.0629 15.9371C17.3964 16.6412 17.7285 17.3382 18.0902 18.0269C18.1657 18.1714 18.2411 18.3158 18.3166 18.4603C18.349 18.5221 18.3814 18.5839 18.4148 18.6476C18.4864 18.7851 18.5561 18.9235 18.6254 19.0621C21.8635 19.0621 25.1016 19.0621 28.4379 19.0621C28.3341 18.7464 28.3341 18.7464 28.2004 18.4526C28.1789 18.4107 28.1574 18.3687 28.1352 18.3255C28.1008 18.2593 28.1008 18.2593 28.0656 18.1917C28.0415 18.145 28.0175 18.0983 27.9927 18.0502C27.9419 17.9518 27.891 17.8534 27.84 17.7551C27.7628 17.6063 27.6859 17.4573 27.6092 17.3083C27.5595 17.2121 27.5098 17.116 27.4601 17.0199C27.4262 16.9542 27.4262 16.9542 27.3916 16.8872C27.2252 16.5668 27.0509 16.253 26.8754 15.9371C23.6373 15.9371 20.3991 15.9371 17.0629 15.9371ZM15.2504 18.1871C15.2252 18.2385 15.2 18.2898 15.174 18.3428C15.0798 18.5345 14.9851 18.7261 14.8903 18.9176C14.8494 19.0003 14.8087 19.083 14.7681 19.1658C14.7095 19.2853 14.6504 19.4046 14.5912 19.5238C14.5559 19.5954 14.5205 19.6671 14.4841 19.741C14.2196 20.2182 14.2196 20.2182 13.9379 20.3121C13.8111 20.3185 13.6841 20.3212 13.5571 20.322C13.4378 20.3229 13.4378 20.3229 13.3162 20.3238C13.2275 20.3242 13.1389 20.3246 13.0503 20.3249C12.9558 20.3255 12.8613 20.3262 12.7667 20.3268C12.5133 20.3285 12.2599 20.3298 12.0065 20.3311C11.7689 20.3323 11.5312 20.3339 11.2935 20.3354C10.5982 20.3397 9.90279 20.3434 9.20743 20.3472C6.87745 20.3608 6.87745 20.3608 4.5004 20.3746C4.5004 23.7983 4.5004 27.2221 4.5004 30.7496C8.06852 30.7496 11.6366 30.7496 15.3129 30.7496C15.3335 29.6152 15.3541 28.4808 15.3754 27.3121C15.5004 26.8746 15.5004 26.8746 15.6293 26.7496C15.8897 26.6609 16.1116 26.6747 16.3754 26.7496C16.5763 26.9254 16.5703 27.0368 16.6254 27.3121C16.646 28.4465 16.6666 29.5808 16.6879 30.7496C20.256 30.7496 23.8241 30.7496 27.5004 30.7496C27.5004 27.3258 27.5004 23.9021 27.5004 20.3746C24.4086 20.3615 24.4086 20.3615 21.3168 20.3503C20.7191 20.3472 20.7191 20.3472 20.4394 20.3455C20.2439 20.3444 20.0483 20.3438 19.8527 20.3435C19.6033 20.3431 19.3539 20.3419 19.1045 20.34C19.0129 20.3394 18.9214 20.3392 18.8298 20.3393C18.7061 20.3394 18.5824 20.3382 18.4588 20.337C18.3548 20.3366 18.3548 20.3366 18.2487 20.3361C18.0378 20.3088 17.9208 20.2498 17.7504 20.1246C17.65 19.9793 17.65 19.9793 17.5646 19.8094C17.5329 19.7474 17.5012 19.6854 17.4685 19.6215C17.4365 19.5568 17.4045 19.4921 17.3715 19.4254C17.3392 19.3618 17.307 19.2983 17.2737 19.2329C17.1817 19.0514 17.0909 18.8693 17.0004 18.6871C16.951 18.5884 16.9016 18.4896 16.8522 18.3909C16.8186 18.3237 16.785 18.2564 16.7504 18.1871C16.7298 18.1871 16.7091 18.1871 16.6879 18.1871C16.6875 18.23 16.6872 18.2728 16.6868 18.317C16.6828 18.7642 16.6775 19.2113 16.6715 19.6584C16.6693 19.8252 16.6677 19.9919 16.6662 20.1587C16.6641 20.3987 16.6609 20.6387 16.6574 20.8787C16.657 20.953 16.6566 21.0273 16.6562 21.1039C16.6494 21.4886 16.635 21.7892 16.4379 22.1246C16.2081 22.2778 16.0173 22.3011 15.7504 22.2496C15.5304 22.0811 15.423 21.957 15.3754 21.6871C15.3683 21.5707 15.3644 21.454 15.3626 21.3374C15.3613 21.2674 15.3601 21.1973 15.3588 21.1251C15.3572 21.0122 15.3572 21.0122 15.3556 20.897C15.3543 20.8197 15.353 20.7424 15.3517 20.6627C15.3483 20.4576 15.3452 20.2525 15.3421 20.0475C15.339 19.838 15.3355 19.6285 15.3321 19.419C15.3254 19.0084 15.319 18.5977 15.3129 18.1871C15.2923 18.1871 15.2716 18.1871 15.2504 18.1871Z" fill="white"/>
<path d="M19.8665 1.52328C20.9244 2.44281 21.6183 3.61408 21.962 4.97006C21.9773 5.0283 21.9926 5.08655 22.0083 5.14657C22.3542 6.769 22.0084 8.54186 21.126 9.9349C20.8767 10.3125 20.5893 10.6461 20.2745 10.9701C20.2355 11.0128 20.1966 11.0556 20.1565 11.0997C19.117 12.209 17.5336 12.8557 16.0289 12.9234C14.2475 12.9761 12.6107 12.4704 11.2972 11.2364C11.2241 11.1664 11.2241 11.1664 11.1495 11.0951C11.1027 11.0529 11.0558 11.0108 11.0076 10.9674C9.96904 9.99791 9.27371 8.48098 9.20418 7.06114C9.14737 5.01728 9.69389 3.29803 11.1143 1.79427C13.5337 -0.492596 17.322 -0.604935 19.8665 1.52328ZM11.7901 3.01302C10.7934 4.18889 10.4241 5.57197 10.5245 7.09506C10.675 8.40158 11.4096 9.62277 12.3995 10.4701C13.5978 11.3852 14.9695 11.7327 16.4566 11.568C17.7768 11.3442 19.0164 10.6019 19.804 9.51254C20.6197 8.3248 20.918 7.02764 20.7452 5.6036C20.4868 4.24587 19.7426 3.00181 18.5931 2.21444C16.3397 0.824941 13.6455 1.08072 11.7901 3.01302Z" fill="white"/>
<path d="M18.687 3.9379C18.8777 4.03739 18.9738 4.1088 19.0413 4.31632C19.085 4.57347 19.0931 4.69634 18.959 4.92984C18.7993 5.14231 18.6317 5.34362 18.4566 5.54337C18.3893 5.62095 18.3221 5.69859 18.2549 5.77628C18.222 5.81433 18.1891 5.85237 18.1552 5.89157C17.9802 6.09596 17.8115 6.30544 17.6419 6.51432C17.4531 6.7445 17.2604 6.97118 17.0675 7.1979C16.8844 7.41363 16.7047 7.63179 16.5269 7.85196C15.6636 8.91153 15.6636 8.91153 15.2808 8.97306C14.8883 8.96532 14.6523 8.68704 14.3745 8.4379C14.2647 8.34371 14.1543 8.25019 14.0439 8.15667C13.9304 8.05996 13.8178 7.96216 13.7053 7.86417C13.584 7.75894 13.4627 7.65984 13.3347 7.56241C13.1028 7.38333 12.973 7.26082 12.9214 6.96524C12.9133 6.6862 13.0023 6.52399 13.187 6.3129C13.4131 6.19986 13.629 6.19906 13.8745 6.2504C14.1057 6.39146 14.2991 6.5692 14.4995 6.7504C14.612 6.84641 14.7253 6.94151 14.8394 7.03556C14.8896 7.07818 14.9398 7.1208 14.9915 7.16471C15.0354 7.19299 15.0793 7.22127 15.1245 7.2504C15.3568 7.17299 15.4117 7.08227 15.562 6.89103C15.6118 6.82867 15.6616 6.76631 15.7129 6.70206C15.7393 6.66897 15.7656 6.63588 15.7928 6.60178C15.9291 6.4327 16.0698 6.26739 16.2105 6.10196C16.2392 6.06812 16.2679 6.03427 16.2975 5.99939C16.4151 5.86078 16.5328 5.72228 16.6505 5.58377C16.7383 5.4805 16.8259 5.37719 16.9136 5.27384C16.9419 5.24042 16.9703 5.207 16.9995 5.17257C17.2333 4.89629 17.4619 4.61612 17.6887 4.33414C18.0077 3.9558 18.1802 3.82431 18.687 3.9379Z" fill="white"/>
<path d="M7.20022 27.3004C7.32258 27.2989 7.32258 27.2989 7.4474 27.2973C7.5369 27.2966 7.6264 27.2959 7.7159 27.2953C7.7609 27.295 7.8059 27.2947 7.85227 27.2943C8.09051 27.2926 8.32874 27.2914 8.56698 27.2905C8.81289 27.2895 9.05875 27.2867 9.30464 27.2835C9.49386 27.2814 9.68307 27.2807 9.8723 27.2803C9.96293 27.2799 10.0536 27.279 10.1442 27.2775C10.2712 27.2755 10.3982 27.2757 10.5252 27.2759C10.6335 27.2752 10.6335 27.2752 10.744 27.2744C10.996 27.3239 11.0882 27.4303 11.2498 27.6249C11.3588 27.8428 11.3038 28.0809 11.2498 28.3124C11.1095 28.4996 11.0343 28.5509 10.8123 28.6249C10.6884 28.6314 10.5643 28.6342 10.4403 28.635C10.3637 28.6356 10.2872 28.6362 10.2083 28.6368C10.1246 28.6371 10.041 28.6374 9.95735 28.6376C9.87149 28.638 9.78563 28.6383 9.69976 28.6387C9.51977 28.6393 9.33977 28.6397 9.15977 28.6399C8.9295 28.6403 8.69926 28.6418 8.46899 28.6436C8.29162 28.6447 8.11426 28.645 7.93688 28.6451C7.85201 28.6453 7.76714 28.6458 7.68227 28.6466C7.56337 28.6477 7.44445 28.6475 7.32554 28.6472C7.25797 28.6474 7.19039 28.6476 7.12076 28.6479C6.86056 28.6153 6.69785 28.5079 6.51155 28.328C6.4028 28.122 6.40958 27.9799 6.43733 27.7499C6.65487 27.3583 6.76595 27.3052 7.20022 27.3004Z" fill="white"/>
<path d="M26.0376 8.71416C26.1175 8.75498 26.1968 8.79678 26.2757 8.8394C26.3187 8.8618 26.3618 8.8842 26.4062 8.90727C26.5434 8.97887 26.6799 9.0517 26.8164 9.12456C26.9064 9.17159 26.9963 9.21855 27.0863 9.26543C27.3074 9.38105 27.5274 9.49867 27.7467 9.6176C27.8322 9.66386 27.9178 9.70985 28.0036 9.75554C28.1252 9.82043 28.2461 9.88639 28.367 9.95268C28.4365 9.99039 28.5059 10.0281 28.5775 10.0669C28.7637 10.1966 28.8429 10.2952 28.9375 10.4996C28.9784 10.7808 28.9584 10.9019 28.8125 11.148C28.5905 11.3423 28.4126 11.3819 28.125 11.3746C27.9168 11.302 27.9168 11.302 27.6992 11.1832C27.6131 11.1371 27.5269 11.0912 27.4407 11.0452C27.3921 11.0187 27.3435 10.9923 27.2934 10.965C27.0962 10.8591 26.8973 10.757 26.698 10.6551C26.066 10.3313 26.066 10.3313 25.8081 10.1978C25.7458 10.1656 25.6834 10.1335 25.6191 10.1003C25.1069 9.8161 25.1069 9.8161 24.9375 9.56206C24.8916 9.27702 24.9005 9.06086 25.0508 8.81206C25.343 8.5449 25.6862 8.57428 26.0376 8.71416Z" fill="white"/>
<path d="M6.62466 8.62528C6.97081 8.81759 6.97081 8.81759 7.06216 9.00028C7.07925 9.12455 7.07925 9.12455 7.08559 9.26982C7.08865 9.31727 7.09172 9.36472 7.09487 9.41361C7.0461 9.63598 6.91685 9.72446 6.74966 9.87528C6.56841 9.98889 6.56841 9.98889 6.36928 10.0933C6.33339 10.1123 6.2975 10.1314 6.26051 10.151C6.1452 10.212 6.02949 10.2722 5.91372 10.3323C5.83417 10.3741 5.75464 10.4159 5.67513 10.4577C5.55744 10.5196 5.43972 10.5815 5.32188 10.6431C5.11077 10.7536 4.90121 10.8662 4.6935 10.983C4.65156 11.0063 4.60961 11.0297 4.5664 11.0538C4.4622 11.1122 4.35835 11.1712 4.25454 11.2303C4.01392 11.3335 3.82362 11.3594 3.56215 11.3753C3.3329 11.2785 3.17885 11.1589 3.06215 10.9378C3.02888 10.6811 3.03943 10.5424 3.16291 10.3135C3.32841 10.1048 3.49265 10.0005 3.72744 9.88749C3.76787 9.86701 3.80829 9.84653 3.84995 9.82543C3.97883 9.76038 4.10834 9.69671 4.23794 9.6331C4.36435 9.56991 4.49062 9.50645 4.61687 9.44295C4.70102 9.40076 4.78528 9.35881 4.86967 9.31711C5.08498 9.21031 5.29715 9.10013 5.50658 8.98216C5.56901 8.94734 5.56901 8.94734 5.63271 8.91183C5.71119 8.86775 5.78927 8.82293 5.86682 8.77723C6.12921 8.63056 6.32633 8.59476 6.62466 8.62528Z" fill="white"/>
<path d="M3.93713 1.49976C4.09433 1.5595 4.2254 1.61861 4.37073 1.69898C4.41178 1.72064 4.45283 1.7423 4.49512 1.76462C4.58868 1.814 4.68204 1.86377 4.77524 1.91385C4.95969 2.01173 5.14565 2.10629 5.33191 2.20069C5.47117 2.2717 5.61041 2.34275 5.74963 2.41382C5.81602 2.44743 5.8824 2.48104 5.95079 2.51567C6.91186 3.01172 6.91186 3.01172 7.06213 3.31226C7.09056 3.59656 7.10694 3.79188 6.93323 4.0271C6.71008 4.22176 6.60546 4.23887 6.31213 4.24976C6.14066 4.19162 5.99854 4.13247 5.83948 4.05054C5.79468 4.02848 5.74989 4.00642 5.70374 3.98369C5.1382 3.70122 4.58441 3.39474 4.03221 3.08722C3.92651 3.02855 3.82052 2.97041 3.71425 2.91278C3.66413 2.88549 3.61401 2.8582 3.56238 2.83008C3.51795 2.80608 3.47352 2.78207 3.42775 2.75734C3.25547 2.65291 3.1588 2.55128 3.06213 2.37476C3.02315 2.06288 3.05715 1.87427 3.24963 1.62476C3.48294 1.46922 3.66694 1.46591 3.93713 1.49976Z" fill="white"/>
<path d="M28.6756 1.57831C28.8951 1.75388 28.9287 1.87101 28.9647 2.14862C28.9314 2.42455 28.8191 2.56319 28.6249 2.75018C28.4379 2.87088 28.4379 2.87088 28.2308 2.9743C28.1935 2.99325 28.1562 3.0122 28.1178 3.03173C27.9982 3.09234 27.8779 3.15174 27.7577 3.21112C27.6752 3.25255 27.5927 3.29406 27.5103 3.33566C27.3885 3.39713 27.2667 3.45854 27.1447 3.51962C26.7766 3.70417 26.417 3.90195 26.0589 4.10516C25.8481 4.19966 25.6674 4.23406 25.4374 4.25018C25.2094 4.15174 25.0514 4.03474 24.9374 3.81268C24.8909 3.39416 24.8909 3.39416 25.0231 3.16253C25.2634 2.92508 25.5427 2.79748 25.8436 2.64862C25.9729 2.58307 26.1021 2.5174 26.2313 2.4516C26.2967 2.41841 26.3621 2.38523 26.4294 2.35104C26.7863 2.16688 27.1364 1.97069 27.4868 1.77456C27.5353 1.74759 27.5837 1.72061 27.6336 1.69281C27.6759 1.66911 27.7181 1.64541 27.7616 1.62099C28.0649 1.46484 28.3619 1.43885 28.6756 1.57831Z" fill="white"/>
<path d="M26.1198 5.72478C26.1851 5.7246 26.2504 5.72442 26.3177 5.72424C26.4554 5.72411 26.5931 5.72446 26.7308 5.72524C26.9413 5.72625 27.1518 5.72525 27.3623 5.72405C27.4963 5.72417 27.6303 5.72441 27.7643 5.72478C27.8272 5.7244 27.89 5.72402 27.9547 5.72363C28.3446 5.72755 28.5752 5.76805 28.8637 6.04656C28.9724 6.25261 28.9657 6.39472 28.9379 6.62469C28.7456 6.97084 28.7456 6.97084 28.5629 7.06219C28.4605 7.06909 28.3579 7.07213 28.2553 7.07325C28.1913 7.07405 28.1272 7.07485 28.0612 7.07568C27.957 7.07637 27.957 7.07637 27.8507 7.07708C27.7795 7.07758 27.7083 7.07809 27.6349 7.07861C27.484 7.07947 27.333 7.08014 27.1821 7.08063C26.9512 7.08171 26.7204 7.08445 26.4895 7.08721C26.343 7.08784 26.1965 7.08837 26.05 7.0888C25.9463 7.09044 25.9463 7.09044 25.8406 7.09211C25.3606 7.09075 25.3606 7.09075 25.1145 6.94333C24.9312 6.73259 24.9233 6.58906 24.9289 6.30999C24.9406 6.15051 24.961 6.06228 25.0629 5.93719C25.4065 5.71128 25.723 5.72238 26.1198 5.72478Z" fill="white"/>
<path d="M3.853 5.74031C3.91183 5.73971 3.97067 5.73911 4.03129 5.73849C4.12651 5.7381 4.12651 5.7381 4.22365 5.73769C4.28908 5.73733 4.35451 5.73698 4.42193 5.73661C4.56047 5.73602 4.69901 5.73561 4.83755 5.73537C5.04907 5.73476 5.26055 5.73283 5.47206 5.73085C5.6067 5.73045 5.74135 5.73012 5.87599 5.72988C5.93909 5.72911 6.00219 5.72833 6.0672 5.72754C6.40453 5.7286 6.64662 5.74591 6.93727 5.93789C7.08756 6.12233 7.08801 6.33108 7.08278 6.56484C7.05036 6.75933 6.95068 6.86605 6.81227 7.00039C6.65787 7.07758 6.55242 7.07248 6.3797 7.07494C6.28363 7.07645 6.28363 7.07645 6.18561 7.07798C5.89256 7.08076 5.59952 7.08333 5.30646 7.08477C5.15181 7.0858 4.99716 7.08751 4.84253 7.08989C4.61978 7.09331 4.3971 7.09468 4.17433 7.0956C4.10525 7.09702 4.03616 7.09843 3.96498 7.09989C3.48432 7.09857 3.48432 7.09857 3.23886 6.9124C3.05736 6.65466 3.0304 6.50656 3.06227 6.18789C3.25642 5.85057 3.4735 5.74344 3.853 5.74031Z" fill="white"/>
<path d="M16.1876 23.8121C16.5363 24.0094 16.5363 24.0094 16.6251 24.1871C16.6598 24.4766 16.6649 24.6859 16.5079 24.9371C16.3033 25.1296 16.1588 25.1454 15.8776 25.1429C15.6794 25.1144 15.5739 25.015 15.4376 24.8746C15.3291 24.6575 15.3375 24.4238 15.3751 24.1871C15.6197 23.8781 15.7957 23.7744 16.1876 23.8121Z" fill="white"/>
</g>
<defs>
<clipPath id="clip0_210_16396">
<rect width="32" height="32" fill="white"/>
</clipPath>
</defs>
</svg>
