<svg width="14" height="13" viewBox="0 0 14 13" fill="none" xmlns="http://www.w3.org/2000/svg">
<path d="M10.8665 1.52328C11.9244 2.44281 12.6183 3.61408 12.962 4.97006C12.9773 5.02831 12.9926 5.08655 13.0083 5.14657C13.3542 6.769 13.0084 8.54186 12.126 9.9349C11.8767 10.3125 11.5893 10.6461 11.2745 10.9701C11.2355 11.0128 11.1966 11.0556 11.1565 11.0997C10.117 12.209 8.53364 12.8557 7.02886 12.9234C5.24753 12.9761 3.61074 12.4704 2.29717 11.2364C2.22405 11.1664 2.22405 11.1664 2.14946 11.0951C2.10265 11.0529 2.05584 11.0108 2.00762 10.9674C0.969036 9.99791 0.273706 8.48098 0.204179 7.06114C0.147371 5.01728 0.693893 3.29804 2.11431 1.79427C4.53366 -0.492596 8.32203 -0.604935 10.8665 1.52328ZM2.79009 3.01302C1.79344 4.18889 1.42405 5.57197 1.52446 7.09506C1.67496 8.40158 2.40959 9.62277 3.39946 10.4701C4.59779 11.3852 5.96951 11.7327 7.45659 11.568C8.7768 11.3442 10.0164 10.6019 10.804 9.51254C11.6197 8.3248 11.918 7.02764 11.7452 5.6036C11.4868 4.24587 10.7426 3.00181 9.59307 2.21444C7.33975 0.824941 4.64549 1.08072 2.79009 3.01302Z" fill="#9E9E9E"/>
</svg>
