<svg xmlns="http://www.w3.org/2000/svg" version="1.0" width="512.000000pt" height="512.000000pt" viewBox="0 0 512.000000 512.000000" preserveAspectRatio="xMidYMid meet">

<g transform="translate(0.000000,512.000000) scale(0.100000,-0.100000)" fill="#000000" stroke="none">
<path d="M2380 4954 c-160 -18 -230 -29 -330 -51 -900 -197 -1601 -880 -1820 -1775 -52 -211 -64 -322 -64 -568 0 -246 12 -357 64 -568 92 -375 262 -706 515 -1000 382 -445 916 -731 1515 -814 123 -17 478 -16 600 1 605 83 1134 368 1517 815 300 351 486 757 559 1228 25 157 25 518 1 675 -82 521 -313 985 -671 1347 -369 374 -830 607 -1363 691 -93 15 -448 28 -523 19z m-1080 -810 c41 -27 200 -187 216 -216 44 -84 -34 -187 -123 -160 l-33 10 0 -1209 0 -1209 1209 0 1210 0 -10 30 c-31 89 72 171 159 126 37 -19 218 -207 227 -235 16 -52 -2 -83 -118 -199 -100 -100 -119 -114 -155 -119 -38 -5 -45 -2 -78 31 -35 35 -36 39 -32 91 l5 55 -1289 0 -1290 0 -29 29 -29 29 0 1291 0 1291 -27 -7 c-62 -16 -115 6 -141 61 -25 51 -8 90 81 183 134 141 186 167 247 127z m1645 -15 c292 -59 557 -201 770 -414 124 -124 209 -244 286 -400 101 -208 150 -397 152 -597 2 -114 1 -118 -24 -144 -18 -18 -41 -28 -71 -31 -39 -5 -49 -2 -78 24 -32 28 -33 33 -41 134 -22 267 -83 456 -212 651 -102 156 -223 276 -375 375 -197 129 -385 190 -651 212 -100 8 -106 10 -133 40 -48 54 -30 143 36 172 31 14 227 1 341 -22z m397 -729 c50 -14 97 -55 119 -105 39 -85 19 -149 -77 -246 l-66 -66 63 -5 c49 -4 66 -9 80 -27 24 -30 24 -42 -2 -75 -20 -26 -21 -26 -168 -26 -169 0 -191 8 -191 65 0 30 13 45 121 147 67 62 125 123 130 136 11 29 -6 66 -38 81 -37 17 -48 14 -93 -24 -23 -19 -51 -35 -63 -35 -32 0 -57 29 -57 66 0 26 8 40 39 66 64 54 128 69 203 48z m-1341 -425 c26 -14 35 -14 81 0 100 29 210 12 297 -48 l34 -23 54 32 c144 86 315 64 427 -56 93 -99 91 -87 94 -558 l3 -413 -35 -35 c-46 -46 -100 -48 -148 -5 l-33 29 -5 394 c-6 438 -5 431 -74 465 -68 32 -155 -13 -170 -88 -3 -17 -6 -193 -6 -390 0 -256 -3 -366 -12 -384 -23 -51 -109 -72 -157 -39 -49 34 -51 56 -51 455 0 412 0 413 -66 444 -40 19 -68 19 -108 0 -66 -31 -66 -32 -66 -444 0 -399 -2 -421 -51 -455 -39 -27 -102 -21 -138 13 l-31 29 0 512 0 512 34 34 c38 38 77 44 127 19z"/>
</g>
</svg>
